%TF.GenerationSoftware,KiCad,Pcbnew,10.0.6*%
%TF.CreationDate,2026-09-08T17:18:01+02:00*%
%TF.ProjectId,kali-tank-sensor-v3,6b616c69-2d74-4616-9e6b-2d73656e736f,rev?*%
%TF.SameCoordinates,Original*%
%TF.FileFunction,Copper,L1,Top*%
%TF.FilePolarity,Positive*%
%FSLAX46Y46*%
G04 Gerber Fmt 4.6, Leading zero omitted, Abs format (unit mm)*
G04 Created by KiCad (PCBNEW 10.0.6) date 2026-09-08 17:18:01*
%MOMM*%
%LPD*%
G01*
G04 APERTURE LIST*
G04 Aperture macros list*
%AMRoundRect*
0 Rectangle with rounded corners*
0 $1 Rounding radius*
0 $2 $3 $4 $5 $6 $7 $8 $9 X,Y pos of 4 corners*
0 Add a 4 corners polygon primitive as box body*
4,1,4,$2,$3,$4,$5,$6,$7,$8,$9,$2,$3,0*
0 Add four circle primitives for the rounded corners*
1,1,$1+$1,$2,$3*
1,1,$1+$1,$4,$5*
1,1,$1+$1,$6,$7*
1,1,$1+$1,$8,$9*
0 Add four rect primitives between the rounded corners*
20,1,$1+$1,$2,$3,$4,$5,0*
20,1,$1+$1,$4,$5,$6,$7,0*
20,1,$1+$1,$6,$7,$8,$9,0*
20,1,$1+$1,$8,$9,$2,$3,0*%
G04 Aperture macros list end*
%TA.AperFunction,SMDPad,CuDef*%
%ADD10RoundRect,0.150000X-0.587500X-0.150000X0.587500X-0.150000X0.587500X0.150000X-0.587500X0.150000X0*%
%TD*%
%TA.AperFunction,SMDPad,CuDef*%
%ADD11RoundRect,0.250000X-0.250000X-0.475000X0.250000X-0.475000X0.250000X0.475000X-0.250000X0.475000X0*%
%TD*%
%TA.AperFunction,SMDPad,CuDef*%
%ADD12RoundRect,0.250000X0.262500X0.450000X-0.262500X0.450000X-0.262500X-0.450000X0.262500X-0.450000X0*%
%TD*%
%TA.AperFunction,SMDPad,CuDef*%
%ADD13RoundRect,0.250000X0.250000X0.475000X-0.250000X0.475000X-0.250000X-0.475000X0.250000X-0.475000X0*%
%TD*%
%TA.AperFunction,SMDPad,CuDef*%
%ADD14RoundRect,0.250000X-0.262500X-0.450000X0.262500X-0.450000X0.262500X0.450000X-0.262500X0.450000X0*%
%TD*%
%TA.AperFunction,SMDPad,CuDef*%
%ADD15RoundRect,0.250000X-1.000000X-0.900000X1.000000X-0.900000X1.000000X0.900000X-1.000000X0.900000X0*%
%TD*%
%TA.AperFunction,SMDPad,CuDef*%
%ADD16R,3.000000X4.000000*%
%TD*%
%TA.AperFunction,SMDPad,CuDef*%
%ADD17RoundRect,0.360000X-1.515000X-0.840000X1.515000X-0.840000X1.515000X0.840000X-1.515000X0.840000X0*%
%TD*%
%TA.AperFunction,SMDPad,CuDef*%
%ADD18RoundRect,0.250000X-0.325000X-0.650000X0.325000X-0.650000X0.325000X0.650000X-0.325000X0.650000X0*%
%TD*%
%TA.AperFunction,SMDPad,CuDef*%
%ADD19R,2.000000X3.000000*%
%TD*%
%TA.AperFunction,SMDPad,CuDef*%
%ADD20RoundRect,0.087500X0.087500X-0.662500X0.087500X0.662500X-0.087500X0.662500X-0.087500X-0.662500X0*%
%TD*%
%TA.AperFunction,SMDPad,CuDef*%
%ADD21R,1.000000X1.400000*%
%TD*%
%TA.AperFunction,SMDPad,CuDef*%
%ADD22RoundRect,0.250000X1.000000X0.650000X-1.000000X0.650000X-1.000000X-0.650000X1.000000X-0.650000X0*%
%TD*%
%TA.AperFunction,SMDPad,CuDef*%
%ADD23RoundRect,0.250000X-0.312500X-0.625000X0.312500X-0.625000X0.312500X0.625000X-0.312500X0.625000X0*%
%TD*%
%TA.AperFunction,ViaPad*%
%ADD24C,0.700000*%
%TD*%
%TA.AperFunction,Conductor*%
%ADD25C,0.250000*%
%TD*%
%TA.AperFunction,Conductor*%
%ADD26C,0.400000*%
%TD*%
%TA.AperFunction,Conductor*%
%ADD27C,0.350000*%
%TD*%
%TA.AperFunction,Conductor*%
%ADD28C,0.300000*%
%TD*%
%TA.AperFunction,Conductor*%
%ADD29C,0.500000*%
%TD*%
G04 APERTURE END LIST*
D10*
%TO.P,Q1,1*%
%TO.N,GATE*%
X117062500Y-115050000D03*
%TO.P,Q1,2*%
%TO.N,GND*%
X117062500Y-116950000D03*
%TO.P,Q1,3*%
%TO.N,NODE_B*%
X118937500Y-116000000D03*
%TD*%
D11*
%TO.P,C4,1*%
%TO.N,V12_P*%
X128050000Y-87000000D03*
%TO.P,C4,2*%
%TO.N,GND*%
X129950000Y-87000000D03*
%TD*%
D12*
%TO.P,R6,1*%
%TO.N,VS_INA*%
X126912500Y-116000000D03*
%TO.P,R6,2*%
%TO.N,SCL*%
X125087500Y-116000000D03*
%TD*%
D13*
%TO.P,C1,1*%
%TO.N,VS_INA*%
X126950000Y-111000000D03*
%TO.P,C1,2*%
%TO.N,GND*%
X125050000Y-111000000D03*
%TD*%
D14*
%TO.P,R1,1*%
%TO.N,+3V3*%
X117087500Y-105000000D03*
%TO.P,R1,2*%
%TO.N,SHUNT_LO*%
X118912500Y-105000000D03*
%TD*%
D15*
%TO.P,D2,1*%
%TO.N,V12_F*%
X119850000Y-93000000D03*
%TO.P,D2,2*%
%TO.N,GND*%
X124150000Y-93000000D03*
%TD*%
D16*
%TO.P,J4,1*%
%TO.N,NODE_B*%
X106000000Y-122000000D03*
%TD*%
D14*
%TO.P,R3,1*%
%TO.N,MEAS_EN*%
X110587500Y-116000000D03*
%TO.P,R3,2*%
%TO.N,GATE*%
X112412500Y-116000000D03*
%TD*%
D17*
%TO.P,U3,1*%
%TO.N,V12_P*%
X133875000Y-93250000D03*
%TO.P,U3,2*%
%TO.N,GND*%
X133875000Y-84750000D03*
%TO.P,U3,3*%
%TO.N,+3V3*%
X150125000Y-93250000D03*
%TO.P,U3,4*%
%TO.N,GND*%
X150125000Y-84750000D03*
%TD*%
D18*
%TO.P,C2,1*%
%TO.N,+3V3*%
X129025000Y-128000000D03*
%TO.P,C2,2*%
%TO.N,GND*%
X131975000Y-128000000D03*
%TD*%
D12*
%TO.P,R5,1*%
%TO.N,VS_INA*%
X126912500Y-120000000D03*
%TO.P,R5,2*%
%TO.N,SDA*%
X125087500Y-120000000D03*
%TD*%
D16*
%TO.P,J3,1*%
%TO.N,NODE_A*%
X106000000Y-110000000D03*
%TD*%
D19*
%TO.P,U1,1*%
%TO.N,N/C*%
X149620000Y-103500000D03*
%TO.P,U1,2*%
%TO.N,MEAS_EN*%
X147080000Y-103500000D03*
%TO.P,U1,3*%
%TO.N,N/C*%
X144540000Y-103500000D03*
%TO.P,U1,4*%
X142000000Y-103500000D03*
%TO.P,U1,5*%
%TO.N,SDA*%
X139460000Y-103500000D03*
%TO.P,U1,6*%
%TO.N,SCL*%
X136920000Y-103500000D03*
%TO.P,U1,7*%
%TO.N,N/C*%
X134380000Y-103500000D03*
%TO.P,U1,8*%
X134380000Y-120500000D03*
%TO.P,U1,9*%
X136920000Y-120500000D03*
%TO.P,U1,10*%
X139460000Y-120500000D03*
%TO.P,U1,11*%
%TO.N,VS_INA*%
X142000000Y-120500000D03*
%TO.P,U1,12*%
%TO.N,+3V3_MCU*%
X144540000Y-120500000D03*
%TO.P,U1,13*%
%TO.N,GND*%
X147080000Y-120500000D03*
%TO.P,U1,14*%
%TO.N,N/C*%
X149620000Y-120500000D03*
%TD*%
D14*
%TO.P,R2,1*%
%TO.N,SHUNT_LO*%
X122087500Y-105000000D03*
%TO.P,R2,2*%
%TO.N,NODE_A*%
X123912500Y-105000000D03*
%TD*%
D20*
%TO.P,U2,1*%
%TO.N,GND*%
X120000000Y-113100000D03*
%TO.P,U2,2*%
X120500000Y-113100000D03*
%TO.P,U2,3*%
%TO.N,N/C*%
X121000000Y-113100000D03*
%TO.P,U2,4*%
%TO.N,SDA*%
X121500000Y-113100000D03*
%TO.P,U2,5*%
%TO.N,SCL*%
X122000000Y-113100000D03*
%TO.P,U2,6*%
%TO.N,VS_INA*%
X122000000Y-108900000D03*
%TO.P,U2,7*%
%TO.N,GND*%
X121500000Y-108900000D03*
%TO.P,U2,8*%
%TO.N,NODE_A*%
X121000000Y-108900000D03*
%TO.P,U2,9*%
%TO.N,SHUNT_LO*%
X120500000Y-108900000D03*
%TO.P,U2,10*%
%TO.N,+3V3*%
X120000000Y-108900000D03*
%TD*%
D21*
%TO.P,SB1,1*%
%TO.N,+3V3*%
X143850000Y-128000000D03*
%TO.P,SB1,2*%
%TO.N,+3V3_MCU*%
X145150000Y-128000000D03*
%TD*%
D14*
%TO.P,R4,1*%
%TO.N,GATE*%
X117087500Y-121000000D03*
%TO.P,R4,2*%
%TO.N,GND*%
X118912500Y-121000000D03*
%TD*%
D16*
%TO.P,J2,1*%
%TO.N,GND*%
X106000000Y-96000000D03*
%TD*%
%TO.P,J1,1*%
%TO.N,V12_IN*%
X106000000Y-87000000D03*
%TD*%
D22*
%TO.P,D1,1*%
%TO.N,V12_P*%
X124000000Y-87000000D03*
%TO.P,D1,2*%
%TO.N,V12_F*%
X120000000Y-87000000D03*
%TD*%
D18*
%TO.P,C3,1*%
%TO.N,+3V3*%
X136025000Y-128000000D03*
%TO.P,C3,2*%
%TO.N,GND*%
X138975000Y-128000000D03*
%TD*%
D23*
%TO.P,F1,1*%
%TO.N,V12_IN*%
X113537500Y-87000000D03*
%TO.P,F1,2*%
%TO.N,V12_F*%
X116462500Y-87000000D03*
%TD*%
D24*
%TO.N,+3V3*%
X153500000Y-93250000D03*
X142200000Y-128000000D03*
X127500000Y-128000000D03*
X134500000Y-128000000D03*
X118600000Y-106600000D03*
X117088000Y-102500000D03*
%TO.N,GND*%
X120000000Y-114900000D03*
X109000000Y-96000000D03*
X140500000Y-128000000D03*
X118912000Y-123200000D03*
X121500000Y-110600000D03*
X117062000Y-118600000D03*
X131300000Y-84750000D03*
X131600000Y-87000000D03*
X126400000Y-93000000D03*
X153500000Y-84750000D03*
X133000000Y-128000000D03*
X147079999Y-124000000D03*
X125050000Y-113000000D03*
%TO.N,NODE_A*%
X108000000Y-109400000D03*
X122000000Y-107200000D03*
%TO.N,NODE_B*%
X108000000Y-124500000D03*
X120600000Y-124500000D03*
%TO.N,SCL*%
X124500000Y-118000000D03*
X136920000Y-100000000D03*
%TO.N,SDA*%
X121500000Y-122000000D03*
X139460000Y-99000000D03*
%TD*%
%TO.N,+3V3*%
D25*
X120000000Y-106600000D02*
X118600000Y-106600000D01*
X120000000Y-108900000D02*
X120000000Y-106600000D01*
D26*
X117088000Y-105000000D02*
X117088000Y-102500000D01*
X129025000Y-128000000D02*
X127500000Y-128000000D01*
X150125000Y-93250000D02*
X153500000Y-93250000D01*
X143850000Y-128000000D02*
X142200000Y-128000000D01*
X136025000Y-128000000D02*
X134500000Y-128000000D01*
%TO.N,+3V3_MCU*%
X145150000Y-128000000D02*
X144540000Y-126500000D01*
X144540000Y-126500000D02*
X144540000Y-121000000D01*
%TO.N,GATE*%
D25*
X117062000Y-113500000D02*
X117062000Y-115050000D01*
X114500000Y-116000000D02*
X114500000Y-113500000D01*
X114500000Y-113500000D02*
X117062000Y-113500000D01*
X114500000Y-121000000D02*
X117088000Y-121000000D01*
X114500000Y-116000000D02*
X114500000Y-121000000D01*
X112412000Y-116000000D02*
X114500000Y-116000000D01*
%TO.N,GND*%
X120500000Y-114200000D02*
X120000000Y-114900000D01*
D27*
X124150000Y-93000000D02*
X126400000Y-93000000D01*
X106000000Y-96000000D02*
X109000000Y-96000000D01*
X133875000Y-84750000D02*
X131300000Y-84750000D01*
D25*
X120000000Y-113100000D02*
X120000000Y-114900000D01*
D27*
X138975000Y-128000000D02*
X140500000Y-128000000D01*
X125050000Y-111000000D02*
X125050000Y-113000000D01*
D25*
X120500000Y-113100000D02*
X120500000Y-114200000D01*
D27*
X147079999Y-120500000D02*
X147079999Y-124000000D01*
X150125000Y-84750000D02*
X153500000Y-84750000D01*
X118912000Y-121000000D02*
X118912000Y-123200000D01*
X117062000Y-116950000D02*
X117062000Y-118600000D01*
X131975000Y-128000000D02*
X133000000Y-128000000D01*
D25*
X121500000Y-108900000D02*
X121500000Y-110600000D01*
D27*
X129949999Y-87000000D02*
X131600000Y-87000000D01*
%TO.N,MEAS_EN*%
D25*
X109200000Y-116000000D02*
X109200000Y-98200000D01*
X109200000Y-98200000D02*
X147079999Y-98200000D01*
X110588000Y-116000000D02*
X109200000Y-116000000D01*
X147079999Y-98200000D02*
X147079999Y-102500000D01*
%TO.N,NODE_A*%
X121000000Y-107200000D02*
X123912000Y-107200000D01*
D28*
X108000000Y-109400000D02*
X108000000Y-110000000D01*
D25*
X123912000Y-107200000D02*
X123912000Y-105000000D01*
X121000000Y-108900000D02*
X121000000Y-107200000D01*
D28*
X108000000Y-110000000D02*
X106000000Y-110000000D01*
%TO.N,NODE_B*%
X118938000Y-116000000D02*
X120600000Y-116000000D01*
X120600000Y-116000000D02*
X120600000Y-124500000D01*
X108000000Y-124500000D02*
X108000000Y-122000000D01*
X108000000Y-122000000D02*
X106000000Y-122000000D01*
%TO.N,SCL*%
D25*
X122000000Y-113100000D02*
X122000000Y-116000000D01*
X122000000Y-116000000D02*
X125088000Y-116000000D01*
X124500000Y-116000000D02*
X124500000Y-118000000D01*
X136920000Y-100000000D02*
X136920000Y-102500000D01*
%TO.N,SDA*%
X121500000Y-113100000D02*
X121500000Y-120000000D01*
X139460000Y-99000000D02*
X139460000Y-102500000D01*
X121500000Y-120000000D02*
X125088000Y-120000000D01*
X121500000Y-120000000D02*
X121500000Y-122000000D01*
%TO.N,SHUNT_LO*%
X118912000Y-105000000D02*
X122088000Y-105000000D01*
X120500000Y-105000000D02*
X120500000Y-108900000D01*
%TO.N,V12_F*%
D26*
X119850000Y-87000000D02*
X119850000Y-93000000D01*
D29*
X116463000Y-87000000D02*
X120000000Y-87000000D01*
%TO.N,V12_IN*%
X106000000Y-87000000D02*
X113537000Y-87000000D01*
%TO.N,V12_P*%
X124000000Y-87000000D02*
X128050000Y-87000000D01*
X128050000Y-87000000D02*
X128050000Y-93250000D01*
X128050000Y-93250000D02*
X133875000Y-93250000D01*
%TO.N,VS_INA*%
D25*
X122000000Y-108900000D02*
X122000000Y-107900000D01*
X126930000Y-123000000D02*
X142000000Y-123000000D01*
X126930000Y-120000000D02*
X126930000Y-123000000D01*
X122000000Y-107900000D02*
X126930000Y-107900000D01*
X142000000Y-123000000D02*
X142000000Y-121000000D01*
X126930000Y-107900000D02*
X126930000Y-120000000D01*
%TD*%
%TA.AperFunction,Conductor*%
%TO.N,GND*%
G36*
X121543447Y-107594407D02*
G01*
X121555259Y-107604496D01*
X121621451Y-107670687D01*
X121649229Y-107725203D01*
X121647074Y-107766314D01*
X121632852Y-107819397D01*
X121624500Y-107850566D01*
X121624500Y-108033394D01*
X121615225Y-108075233D01*
X121589725Y-108129919D01*
X121547997Y-108174667D01*
X121487936Y-108186342D01*
X121432483Y-108160485D01*
X121410275Y-108129919D01*
X121384775Y-108075233D01*
X121375500Y-108033394D01*
X121375500Y-107674500D01*
X121394407Y-107616309D01*
X121443907Y-107580345D01*
X121474500Y-107575500D01*
X121485256Y-107575500D01*
X121543447Y-107594407D01*
G37*
%TD.AperFunction*%
%TA.AperFunction,Conductor*%
G36*
X154359191Y-80618907D02*
G01*
X154395155Y-80668407D01*
X154400000Y-80699000D01*
X154400000Y-131301000D01*
X154381093Y-131359191D01*
X154331593Y-131395155D01*
X154301000Y-131400000D01*
X100699000Y-131400000D01*
X100640809Y-131381093D01*
X100604845Y-131331593D01*
X100600000Y-131301000D01*
X100600000Y-127920943D01*
X126899500Y-127920943D01*
X126899500Y-128079057D01*
X126940423Y-128231784D01*
X127019480Y-128368716D01*
X127131284Y-128480520D01*
X127268216Y-128559577D01*
X127420943Y-128600500D01*
X127420945Y-128600500D01*
X127579055Y-128600500D01*
X127579057Y-128600500D01*
X127731784Y-128559577D01*
X127868716Y-128480520D01*
X127869741Y-128479494D01*
X127870668Y-128479022D01*
X127873866Y-128476569D01*
X127874320Y-128477161D01*
X127924256Y-128451719D01*
X127939743Y-128450500D01*
X128100501Y-128450500D01*
X128158692Y-128469407D01*
X128194656Y-128518907D01*
X128199501Y-128549500D01*
X128199501Y-128697870D01*
X128205908Y-128757480D01*
X128205909Y-128757485D01*
X128256202Y-128892329D01*
X128299749Y-128950500D01*
X128342454Y-129007546D01*
X128342457Y-129007548D01*
X128342458Y-129007549D01*
X128457670Y-129093797D01*
X128592511Y-129144089D01*
X128592512Y-129144089D01*
X128592517Y-129144091D01*
X128652127Y-129150500D01*
X129397872Y-129150499D01*
X129457483Y-129144091D01*
X129524907Y-129118943D01*
X129592329Y-129093797D01*
X129592329Y-129093796D01*
X129592331Y-129093796D01*
X129707546Y-129007546D01*
X129793796Y-128892331D01*
X129844091Y-128757483D01*
X129850500Y-128697873D01*
X129850500Y-128200001D01*
X131100000Y-128200001D01*
X131100000Y-128693064D01*
X131110613Y-128781443D01*
X131166080Y-128922095D01*
X131257435Y-129042564D01*
X131377904Y-129133919D01*
X131518556Y-129189386D01*
X131606935Y-129199999D01*
X131606942Y-129200000D01*
X131774999Y-129200000D01*
X131775000Y-129199999D01*
X131775000Y-128200001D01*
X132175000Y-128200001D01*
X132175000Y-129199999D01*
X132175001Y-129200000D01*
X132343058Y-129200000D01*
X132343064Y-129199999D01*
X132431443Y-129189386D01*
X132572095Y-129133919D01*
X132692564Y-129042564D01*
X132783919Y-128922095D01*
X132839386Y-128781443D01*
X132849999Y-128693064D01*
X132850000Y-128693058D01*
X132850000Y-128200001D01*
X132849999Y-128200000D01*
X132175001Y-128200000D01*
X132175000Y-128200001D01*
X131775000Y-128200001D01*
X131774999Y-128200000D01*
X131100001Y-128200000D01*
X131100000Y-128200001D01*
X129850500Y-128200001D01*
X129850500Y-128079055D01*
X129850500Y-127920943D01*
X133899500Y-127920943D01*
X133899500Y-128079057D01*
X133940423Y-128231784D01*
X134019480Y-128368716D01*
X134131284Y-128480520D01*
X134268216Y-128559577D01*
X134420943Y-128600500D01*
X134420945Y-128600500D01*
X134579055Y-128600500D01*
X134579057Y-128600500D01*
X134731784Y-128559577D01*
X134868716Y-128480520D01*
X134869741Y-128479494D01*
X134870668Y-128479022D01*
X134873866Y-128476569D01*
X134874320Y-128477161D01*
X134924256Y-128451719D01*
X134939743Y-128450500D01*
X135100501Y-128450500D01*
X135158692Y-128469407D01*
X135194656Y-128518907D01*
X135199501Y-128549500D01*
X135199501Y-128697870D01*
X135205908Y-128757480D01*
X135205909Y-128757485D01*
X135256202Y-128892329D01*
X135299749Y-128950500D01*
X135342454Y-129007546D01*
X135342457Y-129007548D01*
X135342458Y-129007549D01*
X135457670Y-129093797D01*
X135592511Y-129144089D01*
X135592512Y-129144089D01*
X135592517Y-129144091D01*
X135652127Y-129150500D01*
X136397872Y-129150499D01*
X136457483Y-129144091D01*
X136524907Y-129118943D01*
X136592329Y-129093797D01*
X136592329Y-129093796D01*
X136592331Y-129093796D01*
X136707546Y-129007546D01*
X136793796Y-128892331D01*
X136844091Y-128757483D01*
X136850500Y-128697873D01*
X136850499Y-128200001D01*
X138100000Y-128200001D01*
X138100000Y-128693064D01*
X138110613Y-128781443D01*
X138166080Y-128922095D01*
X138257435Y-129042564D01*
X138377904Y-129133919D01*
X138518556Y-129189386D01*
X138606935Y-129199999D01*
X138606942Y-129200000D01*
X138774999Y-129200000D01*
X138775000Y-129199999D01*
X138775000Y-128200001D01*
X139175000Y-128200001D01*
X139175000Y-129199999D01*
X139175001Y-129200000D01*
X139343058Y-129200000D01*
X139343064Y-129199999D01*
X139431443Y-129189386D01*
X139572095Y-129133919D01*
X139692564Y-129042564D01*
X139783919Y-128922095D01*
X139839386Y-128781443D01*
X139849999Y-128693064D01*
X139850000Y-128693058D01*
X139850000Y-128200001D01*
X139849999Y-128200000D01*
X139175001Y-128200000D01*
X139175000Y-128200001D01*
X138775000Y-128200001D01*
X138774999Y-128200000D01*
X138100001Y-128200000D01*
X138100000Y-128200001D01*
X136850499Y-128200001D01*
X136850499Y-127920944D01*
X136850499Y-127306935D01*
X138100000Y-127306935D01*
X138100000Y-127799999D01*
X138100001Y-127800000D01*
X138774999Y-127800000D01*
X138775000Y-127799999D01*
X138775000Y-126800001D01*
X139175000Y-126800001D01*
X139175000Y-127799999D01*
X139175001Y-127800000D01*
X139849999Y-127800000D01*
X139850000Y-127799999D01*
X139850000Y-127306941D01*
X139849999Y-127306935D01*
X139839386Y-127218556D01*
X139783919Y-127077904D01*
X139692564Y-126957435D01*
X139572095Y-126866080D01*
X139431443Y-126810613D01*
X139343064Y-126800000D01*
X139175001Y-126800000D01*
X139175000Y-126800001D01*
X138775000Y-126800001D01*
X138774999Y-126800000D01*
X138606935Y-126800000D01*
X138518556Y-126810613D01*
X138377904Y-126866080D01*
X138257435Y-126957435D01*
X138166080Y-127077904D01*
X138110613Y-127218556D01*
X138100000Y-127306935D01*
X136850499Y-127306935D01*
X136850499Y-127303981D01*
X136850499Y-127302133D01*
X136850499Y-127302128D01*
X136844091Y-127242517D01*
X136835154Y-127218556D01*
X136793797Y-127107670D01*
X136707549Y-126992458D01*
X136707548Y-126992457D01*
X136707546Y-126992454D01*
X136660767Y-126957435D01*
X136592329Y-126906202D01*
X136457488Y-126855910D01*
X136457483Y-126855909D01*
X136457481Y-126855908D01*
X136457477Y-126855908D01*
X136426249Y-126852550D01*
X136397873Y-126849500D01*
X136397870Y-126849500D01*
X135652133Y-126849500D01*
X135652129Y-126849500D01*
X135652128Y-126849501D01*
X135644949Y-126850272D01*
X135592519Y-126855908D01*
X135592514Y-126855909D01*
X135457670Y-126906202D01*
X135342458Y-126992450D01*
X135342450Y-126992458D01*
X135256202Y-127107670D01*
X135205910Y-127242511D01*
X135205908Y-127242522D01*
X135199500Y-127302129D01*
X135199500Y-127450500D01*
X135180593Y-127508691D01*
X135131093Y-127544655D01*
X135100500Y-127549500D01*
X134939743Y-127549500D01*
X134881552Y-127530593D01*
X134869745Y-127520509D01*
X134868716Y-127519480D01*
X134731784Y-127440423D01*
X134579057Y-127399500D01*
X134420943Y-127399500D01*
X134268216Y-127440423D01*
X134131284Y-127519480D01*
X134019480Y-127631284D01*
X133940423Y-127768216D01*
X133899500Y-127920943D01*
X129850500Y-127920943D01*
X129850500Y-127914454D01*
X129850499Y-127306935D01*
X131100000Y-127306935D01*
X131100000Y-127799999D01*
X131100001Y-127800000D01*
X131774999Y-127800000D01*
X131775000Y-127799999D01*
X131775000Y-126800001D01*
X132175000Y-126800001D01*
X132175000Y-127799999D01*
X132175001Y-127800000D01*
X132849999Y-127800000D01*
X132850000Y-127799999D01*
X132850000Y-127306941D01*
X132849999Y-127306935D01*
X132839386Y-127218556D01*
X132783919Y-127077904D01*
X132692564Y-126957435D01*
X132572095Y-126866080D01*
X132431443Y-126810613D01*
X132343064Y-126800000D01*
X132175001Y-126800000D01*
X132175000Y-126800001D01*
X131775000Y-126800001D01*
X131774999Y-126800000D01*
X131606935Y-126800000D01*
X131518556Y-126810613D01*
X131377904Y-126866080D01*
X131257435Y-126957435D01*
X131166080Y-127077904D01*
X131110613Y-127218556D01*
X131100000Y-127306935D01*
X129850499Y-127306935D01*
X129850499Y-127303981D01*
X129850499Y-127302133D01*
X129850499Y-127302128D01*
X129844091Y-127242517D01*
X129835154Y-127218556D01*
X129793797Y-127107670D01*
X129707549Y-126992458D01*
X129707548Y-126992457D01*
X129707546Y-126992454D01*
X129660767Y-126957435D01*
X129592329Y-126906202D01*
X129457488Y-126855910D01*
X129457483Y-126855909D01*
X129457481Y-126855908D01*
X129457477Y-126855908D01*
X129426249Y-126852550D01*
X129397873Y-126849500D01*
X129397870Y-126849500D01*
X128652133Y-126849500D01*
X128652129Y-126849500D01*
X128652128Y-126849501D01*
X128644949Y-126850272D01*
X128592519Y-126855908D01*
X128592514Y-126855909D01*
X128457670Y-126906202D01*
X128342458Y-126992450D01*
X128342450Y-126992458D01*
X128256202Y-127107670D01*
X128205910Y-127242511D01*
X128205908Y-127242522D01*
X128199500Y-127302129D01*
X128199500Y-127450500D01*
X128180593Y-127508691D01*
X128131093Y-127544655D01*
X128100500Y-127549500D01*
X127939743Y-127549500D01*
X127881552Y-127530593D01*
X127869745Y-127520509D01*
X127868716Y-127519480D01*
X127731784Y-127440423D01*
X127579057Y-127399500D01*
X127420943Y-127399500D01*
X127268216Y-127440423D01*
X127131284Y-127519480D01*
X127019480Y-127631284D01*
X126940423Y-127768216D01*
X126899500Y-127920943D01*
X100600000Y-127920943D01*
X100600000Y-119975327D01*
X104249500Y-119975327D01*
X104249500Y-124024672D01*
X104249501Y-124024684D01*
X104264033Y-124097736D01*
X104264035Y-124097742D01*
X104319397Y-124180599D01*
X104319399Y-124180601D01*
X104402260Y-124235966D01*
X104457808Y-124247015D01*
X104475315Y-124250498D01*
X104475320Y-124250498D01*
X104475326Y-124250500D01*
X104788248Y-124250500D01*
X104846439Y-124269407D01*
X104882403Y-124318907D01*
X104882403Y-124380093D01*
X104858252Y-124419503D01*
X104527756Y-124749999D01*
X104433840Y-125100500D01*
X104300000Y-125600000D01*
X104527756Y-126450000D01*
X105150000Y-127072243D01*
X106000000Y-127300000D01*
X106850000Y-127072243D01*
X107472243Y-126450000D01*
X107700000Y-125600000D01*
X107578067Y-125144940D01*
X107581270Y-125083842D01*
X107619775Y-125036292D01*
X107678875Y-125020456D01*
X107723191Y-125033582D01*
X107768216Y-125059577D01*
X107920943Y-125100500D01*
X107920945Y-125100500D01*
X108079055Y-125100500D01*
X108079057Y-125100500D01*
X108231784Y-125059577D01*
X108368716Y-124980520D01*
X108480520Y-124868716D01*
X108559577Y-124731784D01*
X108600500Y-124579057D01*
X108600500Y-124420943D01*
X108559577Y-124268216D01*
X108480520Y-124131284D01*
X108480517Y-124131281D01*
X108429496Y-124080259D01*
X108401719Y-124025742D01*
X108400500Y-124010256D01*
X108400500Y-121947274D01*
X108399647Y-121944089D01*
X108373207Y-121845413D01*
X108320480Y-121754087D01*
X108245913Y-121679520D01*
X108219305Y-121664158D01*
X108154589Y-121626794D01*
X108154588Y-121626793D01*
X108154587Y-121626793D01*
X108052727Y-121599500D01*
X108052725Y-121599500D01*
X107849500Y-121599500D01*
X107791309Y-121580593D01*
X107755345Y-121531093D01*
X107750500Y-121500500D01*
X107750500Y-119975327D01*
X107750498Y-119975315D01*
X107745575Y-119950565D01*
X107735966Y-119902260D01*
X107680601Y-119819399D01*
X107680599Y-119819397D01*
X107597742Y-119764035D01*
X107597740Y-119764034D01*
X107597737Y-119764033D01*
X107597736Y-119764033D01*
X107524684Y-119749501D01*
X107524674Y-119749500D01*
X104475326Y-119749500D01*
X104475325Y-119749500D01*
X104475315Y-119749501D01*
X104402263Y-119764033D01*
X104402257Y-119764035D01*
X104319400Y-119819397D01*
X104319397Y-119819400D01*
X104264035Y-119902257D01*
X104264033Y-119902263D01*
X104249501Y-119975315D01*
X104249500Y-119975327D01*
X100600000Y-119975327D01*
X100600000Y-107975327D01*
X104249500Y-107975327D01*
X104249500Y-112024672D01*
X104249501Y-112024684D01*
X104264033Y-112097736D01*
X104264035Y-112097742D01*
X104319397Y-112180599D01*
X104319399Y-112180601D01*
X104402260Y-112235966D01*
X104457808Y-112247015D01*
X104475315Y-112250498D01*
X104475320Y-112250498D01*
X104475326Y-112250500D01*
X104788248Y-112250500D01*
X104846439Y-112269407D01*
X104882403Y-112318907D01*
X104882403Y-112380093D01*
X104858252Y-112419503D01*
X104527756Y-112749999D01*
X104388573Y-113269439D01*
X104300000Y-113600000D01*
X104527756Y-114450000D01*
X105150000Y-115072243D01*
X106000000Y-115300000D01*
X106850000Y-115072243D01*
X107472243Y-114450000D01*
X107700000Y-113600000D01*
X107472243Y-112750000D01*
X107141747Y-112419503D01*
X107113970Y-112364987D01*
X107123541Y-112304555D01*
X107166806Y-112261290D01*
X107211751Y-112250500D01*
X107524673Y-112250500D01*
X107524674Y-112250500D01*
X107597740Y-112235966D01*
X107680601Y-112180601D01*
X107735966Y-112097740D01*
X107750500Y-112024674D01*
X107750500Y-110499500D01*
X107769407Y-110441309D01*
X107818907Y-110405345D01*
X107849500Y-110400500D01*
X108052725Y-110400500D01*
X108052727Y-110400500D01*
X108154587Y-110373207D01*
X108245913Y-110320480D01*
X108320480Y-110245913D01*
X108373207Y-110154587D01*
X108400500Y-110052727D01*
X108400500Y-109889743D01*
X108419407Y-109831552D01*
X108429490Y-109819745D01*
X108480520Y-109768716D01*
X108559577Y-109631784D01*
X108600500Y-109479057D01*
X108600500Y-109320943D01*
X108559577Y-109168216D01*
X108480520Y-109031284D01*
X108368716Y-108919480D01*
X108231784Y-108840423D01*
X108079057Y-108799500D01*
X107920943Y-108799500D01*
X107920940Y-108799500D01*
X107875121Y-108811777D01*
X107814020Y-108808574D01*
X107766471Y-108770068D01*
X107750500Y-108716150D01*
X107750500Y-107975327D01*
X107750498Y-107975315D01*
X107747015Y-107957808D01*
X107735966Y-107902260D01*
X107680601Y-107819399D01*
X107680599Y-107819397D01*
X107597742Y-107764035D01*
X107597740Y-107764034D01*
X107597737Y-107764033D01*
X107597736Y-107764033D01*
X107524684Y-107749501D01*
X107524674Y-107749500D01*
X104475326Y-107749500D01*
X104475325Y-107749500D01*
X104475315Y-107749501D01*
X104402263Y-107764033D01*
X104402257Y-107764035D01*
X104319400Y-107819397D01*
X104319397Y-107819400D01*
X104264035Y-107902257D01*
X104264033Y-107902263D01*
X104249501Y-107975315D01*
X104249500Y-107975327D01*
X100600000Y-107975327D01*
X100600000Y-96200001D01*
X104200001Y-96200001D01*
X104200001Y-98044791D01*
X104202909Y-98069874D01*
X104248213Y-98172477D01*
X104327522Y-98251786D01*
X104430127Y-98297090D01*
X104455203Y-98299999D01*
X104738748Y-98299999D01*
X104796938Y-98318906D01*
X104832902Y-98368406D01*
X104832903Y-98429591D01*
X104808752Y-98469002D01*
X104527757Y-98749998D01*
X104527756Y-98749999D01*
X104522875Y-98768216D01*
X104300000Y-99600000D01*
X104527756Y-100450000D01*
X105150000Y-101072243D01*
X106000000Y-101300000D01*
X106850000Y-101072243D01*
X107472243Y-100450000D01*
X107700000Y-99600000D01*
X107472243Y-98750000D01*
X107338552Y-98616309D01*
X107191246Y-98469002D01*
X107163469Y-98414486D01*
X107173040Y-98354054D01*
X107216305Y-98310789D01*
X107261250Y-98299999D01*
X107544790Y-98299999D01*
X107544791Y-98299998D01*
X107569874Y-98297090D01*
X107672477Y-98251786D01*
X107751786Y-98172477D01*
X107761461Y-98150565D01*
X108824500Y-98150565D01*
X108824500Y-115950565D01*
X108824500Y-116049435D01*
X108847067Y-116133657D01*
X108850091Y-116144942D01*
X108899523Y-116230559D01*
X108899525Y-116230562D01*
X108969438Y-116300475D01*
X108969440Y-116300476D01*
X109055058Y-116349908D01*
X109055056Y-116349908D01*
X109055060Y-116349909D01*
X109055062Y-116349910D01*
X109150565Y-116375500D01*
X109725501Y-116375500D01*
X109783692Y-116394407D01*
X109819656Y-116443907D01*
X109824501Y-116474500D01*
X109824501Y-116497870D01*
X109830908Y-116557480D01*
X109830909Y-116557485D01*
X109881202Y-116692329D01*
X109921222Y-116745788D01*
X109967454Y-116807546D01*
X109967457Y-116807548D01*
X109967458Y-116807549D01*
X110082670Y-116893797D01*
X110217511Y-116944089D01*
X110217512Y-116944089D01*
X110217517Y-116944091D01*
X110277127Y-116950500D01*
X110897872Y-116950499D01*
X110957483Y-116944091D01*
X111044907Y-116911484D01*
X111092329Y-116893797D01*
X111092329Y-116893796D01*
X111092331Y-116893796D01*
X111207546Y-116807546D01*
X111293796Y-116692331D01*
X111344091Y-116557483D01*
X111350500Y-116497873D01*
X111350499Y-115502129D01*
X111649500Y-115502129D01*
X111649500Y-116497866D01*
X111649501Y-116497870D01*
X111655908Y-116557480D01*
X111655909Y-116557485D01*
X111706202Y-116692329D01*
X111746222Y-116745788D01*
X111792454Y-116807546D01*
X111792457Y-116807548D01*
X111792458Y-116807549D01*
X111907670Y-116893797D01*
X112042511Y-116944089D01*
X112042512Y-116944089D01*
X112042517Y-116944091D01*
X112102127Y-116950500D01*
X112722872Y-116950499D01*
X112782483Y-116944091D01*
X112869907Y-116911484D01*
X112917329Y-116893797D01*
X112917329Y-116893796D01*
X112917331Y-116893796D01*
X113032546Y-116807546D01*
X113118796Y-116692331D01*
X113169091Y-116557483D01*
X113175500Y-116497873D01*
X113175500Y-116474500D01*
X113194407Y-116416309D01*
X113243907Y-116380345D01*
X113274500Y-116375500D01*
X114025500Y-116375500D01*
X114083691Y-116394407D01*
X114119655Y-116443907D01*
X114124500Y-116474500D01*
X114124500Y-121049435D01*
X114147067Y-121133657D01*
X114150091Y-121144942D01*
X114199523Y-121230559D01*
X114199525Y-121230562D01*
X114269438Y-121300475D01*
X114269440Y-121300476D01*
X114355058Y-121349908D01*
X114355056Y-121349908D01*
X114355060Y-121349909D01*
X114355062Y-121349910D01*
X114450565Y-121375500D01*
X114549435Y-121375500D01*
X116225501Y-121375500D01*
X116283692Y-121394407D01*
X116319656Y-121443907D01*
X116324501Y-121474500D01*
X116324501Y-121497870D01*
X116330908Y-121557480D01*
X116330909Y-121557485D01*
X116381202Y-121692329D01*
X116467450Y-121807541D01*
X116467454Y-121807546D01*
X116467457Y-121807548D01*
X116467458Y-121807549D01*
X116582670Y-121893797D01*
X116717511Y-121944089D01*
X116717512Y-121944089D01*
X116717517Y-121944091D01*
X116777127Y-121950500D01*
X117397872Y-121950499D01*
X117457483Y-121944091D01*
X117524907Y-121918943D01*
X117592329Y-121893797D01*
X117592329Y-121893796D01*
X117592331Y-121893796D01*
X117707546Y-121807546D01*
X117793796Y-121692331D01*
X117844091Y-121557483D01*
X117850500Y-121497873D01*
X117850499Y-121200001D01*
X118100000Y-121200001D01*
X118100000Y-121493064D01*
X118110613Y-121581443D01*
X118166080Y-121722095D01*
X118257435Y-121842564D01*
X118377904Y-121933919D01*
X118518556Y-121989386D01*
X118606935Y-121999999D01*
X118606942Y-122000000D01*
X118712499Y-122000000D01*
X118712500Y-121999999D01*
X118712500Y-121200001D01*
X119112500Y-121200001D01*
X119112500Y-121999999D01*
X119112501Y-122000000D01*
X119218058Y-122000000D01*
X119218064Y-121999999D01*
X119306443Y-121989386D01*
X119447095Y-121933919D01*
X119567564Y-121842564D01*
X119658919Y-121722095D01*
X119714386Y-121581443D01*
X119724999Y-121493064D01*
X119725000Y-121493058D01*
X119725000Y-121200001D01*
X119724999Y-121200000D01*
X119112501Y-121200000D01*
X119112500Y-121200001D01*
X118712500Y-121200001D01*
X118712499Y-121200000D01*
X118100001Y-121200000D01*
X118100000Y-121200001D01*
X117850499Y-121200001D01*
X117850499Y-120962589D01*
X117850499Y-120506935D01*
X118100000Y-120506935D01*
X118100000Y-120799999D01*
X118100001Y-120800000D01*
X118712499Y-120800000D01*
X118712500Y-120799999D01*
X118712500Y-120000001D01*
X119112500Y-120000001D01*
X119112500Y-120799999D01*
X119112501Y-120800000D01*
X119724999Y-120800000D01*
X119725000Y-120799999D01*
X119725000Y-120506941D01*
X119724999Y-120506935D01*
X119714386Y-120418556D01*
X119658919Y-120277904D01*
X119567564Y-120157435D01*
X119447095Y-120066080D01*
X119306443Y-120010613D01*
X119218064Y-120000000D01*
X119112501Y-120000000D01*
X119112500Y-120000001D01*
X118712500Y-120000001D01*
X118712499Y-120000000D01*
X118606935Y-120000000D01*
X118518556Y-120010613D01*
X118377904Y-120066080D01*
X118257435Y-120157435D01*
X118166080Y-120277904D01*
X118110613Y-120418556D01*
X118100000Y-120506935D01*
X117850499Y-120506935D01*
X117850499Y-120503981D01*
X117850499Y-120502133D01*
X117850499Y-120502128D01*
X117844091Y-120442517D01*
X117826147Y-120394407D01*
X117793797Y-120307670D01*
X117707549Y-120192458D01*
X117707548Y-120192457D01*
X117707546Y-120192454D01*
X117660767Y-120157435D01*
X117592329Y-120106202D01*
X117457488Y-120055910D01*
X117457483Y-120055909D01*
X117457481Y-120055908D01*
X117457477Y-120055908D01*
X117426249Y-120052550D01*
X117397873Y-120049500D01*
X117397870Y-120049500D01*
X116777133Y-120049500D01*
X116777129Y-120049500D01*
X116777128Y-120049501D01*
X116769949Y-120050272D01*
X116717519Y-120055908D01*
X116717514Y-120055909D01*
X116582670Y-120106202D01*
X116467458Y-120192450D01*
X116467450Y-120192458D01*
X116381202Y-120307670D01*
X116330910Y-120442511D01*
X116330908Y-120442522D01*
X116327470Y-120474500D01*
X116324958Y-120497873D01*
X116324500Y-120502129D01*
X116324500Y-120525500D01*
X116305593Y-120583691D01*
X116256093Y-120619655D01*
X116225500Y-120624500D01*
X114974500Y-120624500D01*
X114916309Y-120605593D01*
X114880345Y-120556093D01*
X114875500Y-120525500D01*
X114875500Y-117150001D01*
X116025001Y-117150001D01*
X116025001Y-117154203D01*
X116027850Y-117184600D01*
X116027850Y-117184602D01*
X116072654Y-117312647D01*
X116153207Y-117421790D01*
X116153209Y-117421792D01*
X116262352Y-117502345D01*
X116390398Y-117547149D01*
X116420789Y-117549999D01*
X116862498Y-117549999D01*
X116862500Y-117549998D01*
X116862500Y-117150001D01*
X117262500Y-117150001D01*
X117262500Y-117549998D01*
X117262501Y-117549999D01*
X117704203Y-117549999D01*
X117734600Y-117547149D01*
X117734602Y-117547149D01*
X117862647Y-117502345D01*
X117971790Y-117421792D01*
X117971792Y-117421790D01*
X118052345Y-117312647D01*
X118097149Y-117184601D01*
X118099999Y-117154211D01*
X118100000Y-117154210D01*
X118100000Y-117150001D01*
X118099999Y-117150000D01*
X117262501Y-117150000D01*
X117262500Y-117150001D01*
X116862500Y-117150001D01*
X116862499Y-117150000D01*
X116025002Y-117150000D01*
X116025001Y-117150001D01*
X114875500Y-117150001D01*
X114875500Y-116745788D01*
X116025000Y-116745788D01*
X116025000Y-116749999D01*
X116025001Y-116750000D01*
X116862499Y-116750000D01*
X116862500Y-116749999D01*
X116862500Y-116350001D01*
X116862499Y-116350000D01*
X116420796Y-116350000D01*
X116390399Y-116352850D01*
X116390397Y-116352850D01*
X116262352Y-116397654D01*
X116153209Y-116478207D01*
X116153207Y-116478209D01*
X116072654Y-116587352D01*
X116027850Y-116715398D01*
X116025000Y-116745788D01*
X114875500Y-116745788D01*
X114875500Y-113974500D01*
X114894407Y-113916309D01*
X114943907Y-113880345D01*
X114974500Y-113875500D01*
X116587500Y-113875500D01*
X116645691Y-113894407D01*
X116681655Y-113943907D01*
X116686500Y-113974500D01*
X116686500Y-114400500D01*
X116667593Y-114458691D01*
X116618093Y-114494655D01*
X116587501Y-114499500D01*
X116443479Y-114499500D01*
X116443476Y-114499501D01*
X116349700Y-114514352D01*
X116349695Y-114514354D01*
X116236659Y-114571949D01*
X116146949Y-114661659D01*
X116089354Y-114774695D01*
X116074500Y-114868477D01*
X116074500Y-115231520D01*
X116074501Y-115231523D01*
X116089352Y-115325299D01*
X116089354Y-115325303D01*
X116089354Y-115325304D01*
X116146950Y-115438342D01*
X116236658Y-115528050D01*
X116349696Y-115585646D01*
X116443481Y-115600500D01*
X117681518Y-115600499D01*
X117681521Y-115600499D01*
X117681522Y-115600498D01*
X117728411Y-115593072D01*
X117775299Y-115585647D01*
X117775304Y-115585646D01*
X117785221Y-115580593D01*
X117854856Y-115545111D01*
X117915287Y-115535540D01*
X117969804Y-115563317D01*
X117997582Y-115617833D01*
X117988011Y-115678265D01*
X117988011Y-115678266D01*
X117964354Y-115724696D01*
X117949500Y-115818477D01*
X117949500Y-116181520D01*
X117949501Y-116181524D01*
X117964915Y-116278854D01*
X117955343Y-116339286D01*
X117912077Y-116382549D01*
X117851645Y-116392120D01*
X117834437Y-116387784D01*
X117734601Y-116352850D01*
X117704211Y-116350000D01*
X117262501Y-116350000D01*
X117262500Y-116350001D01*
X117262500Y-116749999D01*
X117262501Y-116750000D01*
X118099998Y-116750000D01*
X118099999Y-116749999D01*
X118099999Y-116745796D01*
X118097149Y-116715399D01*
X118097148Y-116715393D01*
X118074444Y-116650509D01*
X118073071Y-116589339D01*
X118107914Y-116539045D01*
X118165666Y-116518836D01*
X118212834Y-116529602D01*
X118224696Y-116535646D01*
X118318481Y-116550500D01*
X119556518Y-116550499D01*
X119556521Y-116550499D01*
X119556522Y-116550498D01*
X119628842Y-116539045D01*
X119650299Y-116535647D01*
X119650299Y-116535646D01*
X119650304Y-116535646D01*
X119763342Y-116478050D01*
X119797485Y-116443907D01*
X119811897Y-116429496D01*
X119866414Y-116401719D01*
X119881900Y-116400500D01*
X120100500Y-116400500D01*
X120158691Y-116419407D01*
X120194655Y-116468907D01*
X120199500Y-116499500D01*
X120199500Y-124010256D01*
X120180593Y-124068447D01*
X120170504Y-124080259D01*
X120119482Y-124131281D01*
X120119480Y-124131283D01*
X120119480Y-124131284D01*
X120040423Y-124268216D01*
X119999500Y-124420943D01*
X119999500Y-124579057D01*
X120040423Y-124731784D01*
X120119480Y-124868716D01*
X120231284Y-124980520D01*
X120368216Y-125059577D01*
X120520943Y-125100500D01*
X120520945Y-125100500D01*
X120679055Y-125100500D01*
X120679057Y-125100500D01*
X120831784Y-125059577D01*
X120968716Y-124980520D01*
X121080520Y-124868716D01*
X121159577Y-124731784D01*
X121200500Y-124579057D01*
X121200500Y-124420943D01*
X121159577Y-124268216D01*
X121080520Y-124131284D01*
X121080517Y-124131281D01*
X121029496Y-124080259D01*
X121001719Y-124025742D01*
X121000500Y-124010256D01*
X121000500Y-122576484D01*
X121019407Y-122518293D01*
X121068907Y-122482329D01*
X121130093Y-122482329D01*
X121148990Y-122490742D01*
X121268216Y-122559577D01*
X121420943Y-122600500D01*
X121420945Y-122600500D01*
X121579055Y-122600500D01*
X121579057Y-122600500D01*
X121731784Y-122559577D01*
X121868716Y-122480520D01*
X121980520Y-122368716D01*
X122059577Y-122231784D01*
X122100500Y-122079057D01*
X122100500Y-121920943D01*
X122059577Y-121768216D01*
X121980520Y-121631284D01*
X121948736Y-121599500D01*
X121904496Y-121555259D01*
X121876719Y-121500742D01*
X121875500Y-121485256D01*
X121875500Y-120474500D01*
X121894407Y-120416309D01*
X121943907Y-120380345D01*
X121974500Y-120375500D01*
X124225501Y-120375500D01*
X124283692Y-120394407D01*
X124319656Y-120443907D01*
X124324501Y-120474500D01*
X124324501Y-120497872D01*
X124324959Y-120502128D01*
X124330908Y-120557480D01*
X124330909Y-120557485D01*
X124381202Y-120692329D01*
X124461804Y-120799999D01*
X124467454Y-120807546D01*
X124467457Y-120807548D01*
X124467458Y-120807549D01*
X124582670Y-120893797D01*
X124717511Y-120944089D01*
X124717512Y-120944089D01*
X124717517Y-120944091D01*
X124777127Y-120950500D01*
X125397872Y-120950499D01*
X125457483Y-120944091D01*
X125544907Y-120911484D01*
X125592329Y-120893797D01*
X125592329Y-120893796D01*
X125592331Y-120893796D01*
X125707546Y-120807546D01*
X125793796Y-120692331D01*
X125844091Y-120557483D01*
X125850500Y-120497873D01*
X125850499Y-119502128D01*
X125844091Y-119442517D01*
X125844089Y-119442511D01*
X125793797Y-119307670D01*
X125707549Y-119192458D01*
X125707548Y-119192457D01*
X125707546Y-119192454D01*
X125707541Y-119192450D01*
X125592329Y-119106202D01*
X125457488Y-119055910D01*
X125457483Y-119055909D01*
X125457481Y-119055908D01*
X125457477Y-119055908D01*
X125426249Y-119052550D01*
X125397873Y-119049500D01*
X125397870Y-119049500D01*
X124777133Y-119049500D01*
X124777129Y-119049500D01*
X124777128Y-119049501D01*
X124769949Y-119050272D01*
X124717519Y-119055908D01*
X124717514Y-119055909D01*
X124582670Y-119106202D01*
X124467458Y-119192450D01*
X124467450Y-119192458D01*
X124381202Y-119307670D01*
X124330910Y-119442511D01*
X124330908Y-119442522D01*
X124324500Y-119502129D01*
X124324500Y-119525500D01*
X124305593Y-119583691D01*
X124256093Y-119619655D01*
X124225500Y-119624500D01*
X121974500Y-119624500D01*
X121916309Y-119605593D01*
X121880345Y-119556093D01*
X121875500Y-119525500D01*
X121875500Y-116474500D01*
X121894407Y-116416309D01*
X121943907Y-116380345D01*
X121974500Y-116375500D01*
X122049435Y-116375500D01*
X124025500Y-116375500D01*
X124083691Y-116394407D01*
X124119655Y-116443907D01*
X124124500Y-116474500D01*
X124124500Y-117485256D01*
X124105593Y-117543447D01*
X124095504Y-117555259D01*
X124019482Y-117631281D01*
X124019480Y-117631283D01*
X124019480Y-117631284D01*
X123940423Y-117768216D01*
X123899500Y-117920943D01*
X123899500Y-118079057D01*
X123940423Y-118231784D01*
X124019480Y-118368716D01*
X124131284Y-118480520D01*
X124268216Y-118559577D01*
X124420943Y-118600500D01*
X124420945Y-118600500D01*
X124579055Y-118600500D01*
X124579057Y-118600500D01*
X124731784Y-118559577D01*
X124868716Y-118480520D01*
X124980520Y-118368716D01*
X125059577Y-118231784D01*
X125100500Y-118079057D01*
X125100500Y-117920943D01*
X125059577Y-117768216D01*
X124980520Y-117631284D01*
X124980517Y-117631281D01*
X124904496Y-117555259D01*
X124876719Y-117500742D01*
X124875500Y-117485256D01*
X124875500Y-117049499D01*
X124894407Y-116991308D01*
X124943907Y-116955344D01*
X124974500Y-116950499D01*
X125397867Y-116950499D01*
X125397872Y-116950499D01*
X125457483Y-116944091D01*
X125544907Y-116911484D01*
X125592329Y-116893797D01*
X125592329Y-116893796D01*
X125592331Y-116893796D01*
X125707546Y-116807546D01*
X125793796Y-116692331D01*
X125844091Y-116557483D01*
X125850500Y-116497873D01*
X125850499Y-115502128D01*
X125844091Y-115442517D01*
X125840230Y-115432165D01*
X125793797Y-115307670D01*
X125707549Y-115192458D01*
X125707548Y-115192457D01*
X125707546Y-115192454D01*
X125707541Y-115192450D01*
X125592329Y-115106202D01*
X125457488Y-115055910D01*
X125457483Y-115055909D01*
X125457481Y-115055908D01*
X125457477Y-115055908D01*
X125426249Y-115052550D01*
X125397873Y-115049500D01*
X125397870Y-115049500D01*
X124777133Y-115049500D01*
X124777129Y-115049500D01*
X124777128Y-115049501D01*
X124769949Y-115050272D01*
X124717519Y-115055908D01*
X124717514Y-115055909D01*
X124582670Y-115106202D01*
X124467458Y-115192450D01*
X124467450Y-115192458D01*
X124381202Y-115307670D01*
X124330910Y-115442511D01*
X124330908Y-115442522D01*
X124324500Y-115502129D01*
X124324500Y-115525500D01*
X124305593Y-115583691D01*
X124256093Y-115619655D01*
X124225500Y-115624500D01*
X122474500Y-115624500D01*
X122416309Y-115605593D01*
X122380345Y-115556093D01*
X122375500Y-115525500D01*
X122375500Y-113966603D01*
X122384776Y-113924763D01*
X122419019Y-113851330D01*
X122425500Y-113802103D01*
X122425499Y-112397898D01*
X122419019Y-112348670D01*
X122368644Y-112240641D01*
X122284359Y-112156356D01*
X122284357Y-112156355D01*
X122284356Y-112156354D01*
X122176335Y-112105983D01*
X122176333Y-112105982D01*
X122176330Y-112105981D01*
X122127103Y-112099500D01*
X122127101Y-112099500D01*
X121872900Y-112099500D01*
X121872892Y-112099501D01*
X121823670Y-112105980D01*
X121791837Y-112120824D01*
X121731107Y-112128280D01*
X121708162Y-112120824D01*
X121676330Y-112105981D01*
X121627103Y-112099500D01*
X121627101Y-112099500D01*
X121372900Y-112099500D01*
X121372892Y-112099501D01*
X121323670Y-112105980D01*
X121291837Y-112120824D01*
X121231107Y-112128280D01*
X121208162Y-112120824D01*
X121176330Y-112105981D01*
X121127103Y-112099500D01*
X121127101Y-112099500D01*
X120872900Y-112099500D01*
X120872890Y-112099501D01*
X120827705Y-112105449D01*
X120769841Y-112095506D01*
X120708738Y-112064372D01*
X120708734Y-112064371D01*
X120675000Y-112059028D01*
X120675000Y-112155989D01*
X120656093Y-112214180D01*
X120646005Y-112225991D01*
X120631356Y-112240640D01*
X120631354Y-112240643D01*
X120580983Y-112348664D01*
X120580981Y-112348668D01*
X120580981Y-112348670D01*
X120574500Y-112397897D01*
X120574500Y-112925000D01*
X120574501Y-113100000D01*
X120574501Y-113802108D01*
X120580980Y-113851329D01*
X120631354Y-113959356D01*
X120631355Y-113959357D01*
X120631356Y-113959359D01*
X120646005Y-113974008D01*
X120673781Y-114028523D01*
X120675000Y-114044010D01*
X120675000Y-114140970D01*
X120675001Y-114140971D01*
X120708732Y-114135629D01*
X120708737Y-114135628D01*
X120769840Y-114104494D01*
X120827707Y-114094550D01*
X120872897Y-114100500D01*
X121025500Y-114100499D01*
X121083690Y-114119406D01*
X121119654Y-114168906D01*
X121124500Y-114199499D01*
X121124500Y-115737987D01*
X121105593Y-115796178D01*
X121056093Y-115832142D01*
X120994907Y-115832142D01*
X120945407Y-115796178D01*
X120939764Y-115787488D01*
X120920480Y-115754087D01*
X120845913Y-115679520D01*
X120843739Y-115678265D01*
X120754589Y-115626794D01*
X120754588Y-115626793D01*
X120754587Y-115626793D01*
X120652727Y-115599500D01*
X120652725Y-115599500D01*
X119881900Y-115599500D01*
X119823709Y-115580593D01*
X119811897Y-115570504D01*
X119763343Y-115521951D01*
X119763342Y-115521950D01*
X119650304Y-115464354D01*
X119650305Y-115464354D01*
X119556521Y-115449500D01*
X118318478Y-115449500D01*
X118318476Y-115449501D01*
X118224700Y-115464352D01*
X118224697Y-115464353D01*
X118145143Y-115504888D01*
X118084711Y-115514459D01*
X118030194Y-115486681D01*
X118002417Y-115432165D01*
X118011989Y-115371733D01*
X118035646Y-115325304D01*
X118050500Y-115231519D01*
X118050499Y-114868482D01*
X118035646Y-114774696D01*
X117978050Y-114661658D01*
X117888342Y-114571950D01*
X117775304Y-114514354D01*
X117775305Y-114514354D01*
X117681522Y-114499500D01*
X117681519Y-114499500D01*
X117536500Y-114499500D01*
X117478309Y-114480593D01*
X117442345Y-114431093D01*
X117437500Y-114400500D01*
X117437500Y-113450566D01*
X117437500Y-113450565D01*
X117411910Y-113355062D01*
X117411908Y-113355059D01*
X117411908Y-113355057D01*
X117370591Y-113283495D01*
X117370590Y-113283494D01*
X117365687Y-113275001D01*
X119525000Y-113275001D01*
X119525000Y-113792997D01*
X119539372Y-113883737D01*
X119595098Y-113993105D01*
X119681894Y-114079901D01*
X119791267Y-114135629D01*
X119824998Y-114140971D01*
X119825000Y-114140970D01*
X119825000Y-113275001D01*
X119824999Y-113275000D01*
X119525001Y-113275000D01*
X119525000Y-113275001D01*
X117365687Y-113275001D01*
X117362475Y-113269438D01*
X117292562Y-113199525D01*
X117292559Y-113199523D01*
X117206941Y-113150091D01*
X117206943Y-113150091D01*
X117169885Y-113140161D01*
X117111435Y-113124500D01*
X114549435Y-113124500D01*
X114450565Y-113124500D01*
X114392114Y-113140161D01*
X114355057Y-113150091D01*
X114269440Y-113199523D01*
X114199523Y-113269440D01*
X114150091Y-113355057D01*
X114124500Y-113450566D01*
X114124500Y-115525500D01*
X114105593Y-115583691D01*
X114056093Y-115619655D01*
X114025500Y-115624500D01*
X113274499Y-115624500D01*
X113216308Y-115605593D01*
X113180344Y-115556093D01*
X113175499Y-115525500D01*
X113175499Y-115502133D01*
X113175499Y-115502128D01*
X113169091Y-115442517D01*
X113165230Y-115432165D01*
X113118797Y-115307670D01*
X113032549Y-115192458D01*
X113032548Y-115192457D01*
X113032546Y-115192454D01*
X113032541Y-115192450D01*
X112917329Y-115106202D01*
X112782488Y-115055910D01*
X112782483Y-115055909D01*
X112782481Y-115055908D01*
X112782477Y-115055908D01*
X112751249Y-115052550D01*
X112722873Y-115049500D01*
X112722870Y-115049500D01*
X112102133Y-115049500D01*
X112102129Y-115049500D01*
X112102128Y-115049501D01*
X112094949Y-115050272D01*
X112042519Y-115055908D01*
X112042514Y-115055909D01*
X111907670Y-115106202D01*
X111792458Y-115192450D01*
X111792450Y-115192458D01*
X111706202Y-115307670D01*
X111655910Y-115442511D01*
X111655908Y-115442522D01*
X111649500Y-115502129D01*
X111350499Y-115502129D01*
X111350499Y-115502128D01*
X111344091Y-115442517D01*
X111340230Y-115432165D01*
X111293797Y-115307670D01*
X111207549Y-115192458D01*
X111207548Y-115192457D01*
X111207546Y-115192454D01*
X111207541Y-115192450D01*
X111092329Y-115106202D01*
X110957488Y-115055910D01*
X110957483Y-115055909D01*
X110957481Y-115055908D01*
X110957477Y-115055908D01*
X110926249Y-115052550D01*
X110897873Y-115049500D01*
X110897870Y-115049500D01*
X110277133Y-115049500D01*
X110277129Y-115049500D01*
X110277128Y-115049501D01*
X110269949Y-115050272D01*
X110217519Y-115055908D01*
X110217514Y-115055909D01*
X110082670Y-115106202D01*
X109967458Y-115192450D01*
X109967450Y-115192458D01*
X109881202Y-115307670D01*
X109830910Y-115442511D01*
X109830908Y-115442522D01*
X109824500Y-115502129D01*
X109824500Y-115525500D01*
X109805593Y-115583691D01*
X109756093Y-115619655D01*
X109725500Y-115624500D01*
X109674500Y-115624500D01*
X109616309Y-115605593D01*
X109580345Y-115556093D01*
X109575500Y-115525500D01*
X109575500Y-112407002D01*
X119525000Y-112407002D01*
X119525000Y-112924999D01*
X119525001Y-112925000D01*
X119824999Y-112925000D01*
X119825000Y-112924999D01*
X119825000Y-112059028D01*
X120175000Y-112059028D01*
X120175000Y-114140970D01*
X120208735Y-114135628D01*
X120216151Y-114133219D01*
X120216933Y-114135626D01*
X120265464Y-114127928D01*
X120283648Y-114133836D01*
X120283849Y-114133219D01*
X120291264Y-114135628D01*
X120324999Y-114140970D01*
X120325000Y-114140970D01*
X120325000Y-112059028D01*
X120291264Y-112064371D01*
X120283856Y-112066779D01*
X120283075Y-112064378D01*
X120234500Y-112072065D01*
X120216343Y-112066165D01*
X120216144Y-112066779D01*
X120208735Y-112064371D01*
X120175000Y-112059028D01*
X119825000Y-112059028D01*
X119791265Y-112064371D01*
X119791261Y-112064372D01*
X119681894Y-112120098D01*
X119595098Y-112206894D01*
X119539372Y-112316262D01*
X119525000Y-112407002D01*
X109575500Y-112407002D01*
X109575500Y-111200001D01*
X124250000Y-111200001D01*
X124250000Y-111518064D01*
X124260613Y-111606443D01*
X124316080Y-111747095D01*
X124407435Y-111867564D01*
X124527904Y-111958919D01*
X124668556Y-112014386D01*
X124756935Y-112024999D01*
X124756942Y-112025000D01*
X124849999Y-112025000D01*
X124850000Y-112024999D01*
X124850000Y-111200001D01*
X125250000Y-111200001D01*
X125250000Y-112024999D01*
X125250001Y-112025000D01*
X125343058Y-112025000D01*
X125343064Y-112024999D01*
X125431443Y-112014386D01*
X125572095Y-111958919D01*
X125692564Y-111867564D01*
X125783919Y-111747095D01*
X125839386Y-111606443D01*
X125849999Y-111518064D01*
X125850000Y-111518058D01*
X125850000Y-111200001D01*
X125849999Y-111200000D01*
X125250001Y-111200000D01*
X125250000Y-111200001D01*
X124850000Y-111200001D01*
X124849999Y-111200000D01*
X124250001Y-111200000D01*
X124250000Y-111200001D01*
X109575500Y-111200001D01*
X109575500Y-110481935D01*
X124250000Y-110481935D01*
X124250000Y-110799999D01*
X124250001Y-110800000D01*
X124849999Y-110800000D01*
X124850000Y-110799999D01*
X124850000Y-109975001D01*
X125250000Y-109975001D01*
X125250000Y-110799999D01*
X125250001Y-110800000D01*
X125849999Y-110800000D01*
X125850000Y-110799999D01*
X125850000Y-110481941D01*
X125849999Y-110481935D01*
X125839386Y-110393556D01*
X125783919Y-110252904D01*
X125692564Y-110132435D01*
X125572095Y-110041080D01*
X125431443Y-109985613D01*
X125343064Y-109975000D01*
X125250001Y-109975000D01*
X125250000Y-109975001D01*
X124850000Y-109975001D01*
X124849999Y-109975000D01*
X124756935Y-109975000D01*
X124668556Y-109985613D01*
X124527904Y-110041080D01*
X124407435Y-110132435D01*
X124316080Y-110252904D01*
X124260613Y-110393556D01*
X124250000Y-110481935D01*
X109575500Y-110481935D01*
X109575500Y-106520943D01*
X117999500Y-106520943D01*
X117999500Y-106679057D01*
X118040423Y-106831784D01*
X118119480Y-106968716D01*
X118231284Y-107080520D01*
X118368216Y-107159577D01*
X118520943Y-107200500D01*
X118520945Y-107200500D01*
X118679055Y-107200500D01*
X118679057Y-107200500D01*
X118831784Y-107159577D01*
X118968716Y-107080520D01*
X119006729Y-107042506D01*
X119044741Y-107004496D01*
X119099258Y-106976719D01*
X119114744Y-106975500D01*
X119525500Y-106975500D01*
X119583691Y-106994407D01*
X119619655Y-107043907D01*
X119624500Y-107074500D01*
X119624500Y-108033394D01*
X119615225Y-108075232D01*
X119580982Y-108148667D01*
X119580981Y-108148670D01*
X119579426Y-108160485D01*
X119574500Y-108197898D01*
X119574500Y-109602098D01*
X119574501Y-109602108D01*
X119580980Y-109651329D01*
X119631354Y-109759356D01*
X119631355Y-109759357D01*
X119631356Y-109759359D01*
X119715641Y-109843644D01*
X119823670Y-109894019D01*
X119872897Y-109900500D01*
X120127102Y-109900499D01*
X120176330Y-109894019D01*
X120208160Y-109879175D01*
X120268886Y-109871717D01*
X120291838Y-109879175D01*
X120323670Y-109894019D01*
X120372897Y-109900500D01*
X120627102Y-109900499D01*
X120676330Y-109894019D01*
X120708160Y-109879175D01*
X120768886Y-109871717D01*
X120791838Y-109879175D01*
X120823670Y-109894019D01*
X120872897Y-109900500D01*
X121127102Y-109900499D01*
X121172293Y-109894550D01*
X121230158Y-109904493D01*
X121291267Y-109935629D01*
X121324998Y-109940971D01*
X121325000Y-109940970D01*
X121325000Y-109844010D01*
X121329845Y-109829098D01*
X121329845Y-109813417D01*
X121340690Y-109795718D01*
X121343907Y-109785819D01*
X121349044Y-109782086D01*
X121353994Y-109774008D01*
X121368644Y-109759359D01*
X121410276Y-109670078D01*
X121452002Y-109625332D01*
X121512063Y-109613657D01*
X121567516Y-109639514D01*
X121589723Y-109670079D01*
X121631354Y-109759356D01*
X121631355Y-109759357D01*
X121631356Y-109759359D01*
X121646005Y-109774008D01*
X121656528Y-109794661D01*
X121670155Y-109813417D01*
X121670155Y-109821406D01*
X121673781Y-109828523D01*
X121675000Y-109844010D01*
X121675000Y-109940970D01*
X121675001Y-109940971D01*
X121708732Y-109935629D01*
X121708737Y-109935628D01*
X121769840Y-109904494D01*
X121827707Y-109894550D01*
X121872897Y-109900500D01*
X122127102Y-109900499D01*
X122176330Y-109894019D01*
X122284359Y-109843644D01*
X122368644Y-109759359D01*
X122419019Y-109651330D01*
X122425500Y-109602103D01*
X122425499Y-108374499D01*
X122444406Y-108316309D01*
X122493906Y-108280345D01*
X122524499Y-108275500D01*
X126455500Y-108275500D01*
X126513691Y-108294407D01*
X126549655Y-108343907D01*
X126554500Y-108374500D01*
X126554500Y-109976350D01*
X126535593Y-110034541D01*
X126490098Y-110069108D01*
X126457666Y-110081204D01*
X126342458Y-110167450D01*
X126342450Y-110167458D01*
X126256202Y-110282670D01*
X126205910Y-110417511D01*
X126205908Y-110417522D01*
X126199500Y-110477129D01*
X126199500Y-111522866D01*
X126199501Y-111522870D01*
X126205908Y-111582480D01*
X126205909Y-111582485D01*
X126256202Y-111717329D01*
X126278485Y-111747095D01*
X126342454Y-111832546D01*
X126457669Y-111918796D01*
X126490095Y-111930890D01*
X126538010Y-111968938D01*
X126554500Y-112023648D01*
X126554500Y-114982702D01*
X126535593Y-115040893D01*
X126490097Y-115075460D01*
X126407669Y-115106203D01*
X126292458Y-115192450D01*
X126292450Y-115192458D01*
X126206202Y-115307670D01*
X126155910Y-115442511D01*
X126155908Y-115442522D01*
X126149500Y-115502129D01*
X126149500Y-116497866D01*
X126149501Y-116497870D01*
X126155908Y-116557480D01*
X126155909Y-116557485D01*
X126206202Y-116692329D01*
X126246222Y-116745788D01*
X126292454Y-116807546D01*
X126292457Y-116807548D01*
X126292458Y-116807549D01*
X126407667Y-116893795D01*
X126407668Y-116893795D01*
X126407669Y-116893796D01*
X126490098Y-116924540D01*
X126538011Y-116962589D01*
X126554500Y-117017297D01*
X126554500Y-118982702D01*
X126535593Y-119040893D01*
X126490097Y-119075460D01*
X126407669Y-119106203D01*
X126292458Y-119192450D01*
X126292450Y-119192458D01*
X126206202Y-119307670D01*
X126155910Y-119442511D01*
X126155908Y-119442522D01*
X126149500Y-119502129D01*
X126149500Y-120497866D01*
X126149500Y-120497869D01*
X126149501Y-120497872D01*
X126149959Y-120502128D01*
X126155908Y-120557480D01*
X126155909Y-120557485D01*
X126206202Y-120692329D01*
X126286804Y-120799999D01*
X126292454Y-120807546D01*
X126292457Y-120807548D01*
X126292458Y-120807549D01*
X126407667Y-120893795D01*
X126407668Y-120893795D01*
X126407669Y-120893796D01*
X126490098Y-120924540D01*
X126538011Y-120962589D01*
X126554500Y-121017297D01*
X126554500Y-123049435D01*
X126577067Y-123133657D01*
X126580091Y-123144942D01*
X126629523Y-123230559D01*
X126629525Y-123230562D01*
X126699438Y-123300475D01*
X126699440Y-123300476D01*
X126785058Y-123349908D01*
X126785056Y-123349908D01*
X126785060Y-123349909D01*
X126785062Y-123349910D01*
X126880565Y-123375500D01*
X126880567Y-123375500D01*
X142049433Y-123375500D01*
X142049435Y-123375500D01*
X142144938Y-123349910D01*
X142144940Y-123349908D01*
X142144942Y-123349908D01*
X142170377Y-123335222D01*
X142230562Y-123300475D01*
X142300475Y-123230562D01*
X142349910Y-123144938D01*
X142375500Y-123049435D01*
X142375500Y-122349500D01*
X142394407Y-122291309D01*
X142443907Y-122255345D01*
X142474500Y-122250500D01*
X143024673Y-122250500D01*
X143024674Y-122250500D01*
X143097740Y-122235966D01*
X143180601Y-122180601D01*
X143187684Y-122170001D01*
X143235733Y-122132121D01*
X143296872Y-122129719D01*
X143347746Y-122163711D01*
X143352316Y-122170001D01*
X143359397Y-122180599D01*
X143359400Y-122180602D01*
X143436000Y-122231783D01*
X143442260Y-122235966D01*
X143497808Y-122247015D01*
X143515315Y-122250498D01*
X143515320Y-122250498D01*
X143515326Y-122250500D01*
X143990500Y-122250500D01*
X144048691Y-122269407D01*
X144084655Y-122318907D01*
X144089500Y-122349500D01*
X144089500Y-126462204D01*
X144088567Y-126475761D01*
X144085622Y-126497064D01*
X144085621Y-126497068D01*
X144088734Y-126521944D01*
X144089500Y-126534233D01*
X144089500Y-126559311D01*
X144095067Y-126580088D01*
X144097674Y-126593420D01*
X144100343Y-126614760D01*
X144100344Y-126614763D01*
X144100345Y-126614767D01*
X144109794Y-126638005D01*
X144113710Y-126649664D01*
X144120199Y-126673881D01*
X144120200Y-126673883D01*
X144120201Y-126673886D01*
X144130958Y-126692518D01*
X144136923Y-126704713D01*
X144218862Y-126906202D01*
X144221711Y-126913206D01*
X144226117Y-126974232D01*
X144193812Y-127026194D01*
X144137134Y-127049243D01*
X144130004Y-127049500D01*
X143325326Y-127049500D01*
X143325325Y-127049500D01*
X143325315Y-127049501D01*
X143252263Y-127064033D01*
X143252257Y-127064035D01*
X143169400Y-127119397D01*
X143169397Y-127119400D01*
X143114035Y-127202257D01*
X143114033Y-127202263D01*
X143099501Y-127275315D01*
X143099500Y-127275327D01*
X143099500Y-127450500D01*
X143080593Y-127508691D01*
X143031093Y-127544655D01*
X143000500Y-127549500D01*
X142639743Y-127549500D01*
X142581552Y-127530593D01*
X142569745Y-127520509D01*
X142568716Y-127519480D01*
X142431784Y-127440423D01*
X142279057Y-127399500D01*
X142120943Y-127399500D01*
X141968216Y-127440423D01*
X141831284Y-127519480D01*
X141719480Y-127631284D01*
X141640423Y-127768216D01*
X141599500Y-127920943D01*
X141599500Y-128079057D01*
X141640423Y-128231784D01*
X141719480Y-128368716D01*
X141831284Y-128480520D01*
X141968216Y-128559577D01*
X142120943Y-128600500D01*
X142120945Y-128600500D01*
X142279055Y-128600500D01*
X142279057Y-128600500D01*
X142431784Y-128559577D01*
X142568716Y-128480520D01*
X142569741Y-128479494D01*
X142570668Y-128479022D01*
X142573866Y-128476569D01*
X142574320Y-128477161D01*
X142624256Y-128451719D01*
X142639743Y-128450500D01*
X143000500Y-128450500D01*
X143058691Y-128469407D01*
X143094655Y-128518907D01*
X143099500Y-128549500D01*
X143099500Y-128724672D01*
X143099501Y-128724684D01*
X143114033Y-128797736D01*
X143114035Y-128797742D01*
X143169397Y-128880599D01*
X143169399Y-128880601D01*
X143252260Y-128935966D01*
X143307808Y-128947015D01*
X143325315Y-128950498D01*
X143325320Y-128950498D01*
X143325326Y-128950500D01*
X143325327Y-128950500D01*
X144374673Y-128950500D01*
X144374674Y-128950500D01*
X144447740Y-128935966D01*
X144447746Y-128935961D01*
X144456752Y-128932233D01*
X144457586Y-128934248D01*
X144503880Y-128921189D01*
X144542610Y-128933773D01*
X144543248Y-128932233D01*
X144552255Y-128935962D01*
X144552260Y-128935966D01*
X144607808Y-128947015D01*
X144625315Y-128950498D01*
X144625320Y-128950498D01*
X144625326Y-128950500D01*
X144625327Y-128950500D01*
X145674673Y-128950500D01*
X145674674Y-128950500D01*
X145747740Y-128935966D01*
X145830601Y-128880601D01*
X145885966Y-128797740D01*
X145900500Y-128724674D01*
X145900500Y-127275326D01*
X145885966Y-127202260D01*
X145830601Y-127119399D01*
X145830599Y-127119397D01*
X145747742Y-127064035D01*
X145747740Y-127064034D01*
X145747737Y-127064033D01*
X145747736Y-127064033D01*
X145674684Y-127049501D01*
X145674674Y-127049500D01*
X145674673Y-127049500D01*
X145316403Y-127049500D01*
X145258212Y-127030593D01*
X145224696Y-126987794D01*
X145171062Y-126855908D01*
X145082445Y-126637997D01*
X144997793Y-126429835D01*
X144990500Y-126392541D01*
X144990500Y-122349500D01*
X145009407Y-122291309D01*
X145058907Y-122255345D01*
X145089500Y-122250500D01*
X145564673Y-122250500D01*
X145564674Y-122250500D01*
X145637740Y-122235966D01*
X145720601Y-122180601D01*
X145720601Y-122180600D01*
X145722425Y-122179382D01*
X145781313Y-122162774D01*
X145838717Y-122183952D01*
X145847430Y-122191694D01*
X145907522Y-122251786D01*
X146010127Y-122297090D01*
X146035203Y-122299999D01*
X146879998Y-122299999D01*
X146880000Y-122299998D01*
X146880000Y-118700001D01*
X147280000Y-118700001D01*
X147280000Y-122299998D01*
X147280001Y-122299999D01*
X148124790Y-122299999D01*
X148124791Y-122299998D01*
X148149874Y-122297090D01*
X148252478Y-122251786D01*
X148312569Y-122191695D01*
X148367085Y-122163917D01*
X148427517Y-122173488D01*
X148437574Y-122179382D01*
X148516000Y-122231783D01*
X148522260Y-122235966D01*
X148577808Y-122247015D01*
X148595315Y-122250498D01*
X148595320Y-122250498D01*
X148595326Y-122250500D01*
X148595327Y-122250500D01*
X150644673Y-122250500D01*
X150644674Y-122250500D01*
X150717740Y-122235966D01*
X150800601Y-122180601D01*
X150855966Y-122097740D01*
X150870500Y-122024674D01*
X150870500Y-118975326D01*
X150855966Y-118902260D01*
X150812512Y-118837225D01*
X150800602Y-118819400D01*
X150800599Y-118819397D01*
X150717742Y-118764035D01*
X150717740Y-118764034D01*
X150717737Y-118764033D01*
X150717736Y-118764033D01*
X150644684Y-118749501D01*
X150644674Y-118749500D01*
X148595326Y-118749500D01*
X148595325Y-118749500D01*
X148595315Y-118749501D01*
X148522263Y-118764033D01*
X148522254Y-118764036D01*
X148437573Y-118820617D01*
X148378685Y-118837225D01*
X148321281Y-118816046D01*
X148312569Y-118808305D01*
X148252477Y-118748213D01*
X148149872Y-118702909D01*
X148124797Y-118700000D01*
X147280001Y-118700000D01*
X147280000Y-118700001D01*
X146880000Y-118700001D01*
X146879999Y-118700000D01*
X146035210Y-118700000D01*
X146035208Y-118700001D01*
X146010125Y-118702909D01*
X145907520Y-118748214D01*
X145847429Y-118808305D01*
X145792912Y-118836082D01*
X145732480Y-118826510D01*
X145722426Y-118820617D01*
X145637745Y-118764036D01*
X145637740Y-118764034D01*
X145637737Y-118764033D01*
X145637736Y-118764033D01*
X145564684Y-118749501D01*
X145564674Y-118749500D01*
X143515326Y-118749500D01*
X143515325Y-118749500D01*
X143515315Y-118749501D01*
X143442263Y-118764033D01*
X143442257Y-118764035D01*
X143359400Y-118819397D01*
X143359397Y-118819400D01*
X143352315Y-118830000D01*
X143304264Y-118867878D01*
X143243126Y-118870280D01*
X143192253Y-118836286D01*
X143187685Y-118830000D01*
X143180602Y-118819400D01*
X143180599Y-118819397D01*
X143097742Y-118764035D01*
X143097740Y-118764034D01*
X143097737Y-118764033D01*
X143097736Y-118764033D01*
X143024684Y-118749501D01*
X143024674Y-118749500D01*
X140975326Y-118749500D01*
X140975325Y-118749500D01*
X140975315Y-118749501D01*
X140902263Y-118764033D01*
X140902257Y-118764035D01*
X140819400Y-118819397D01*
X140819397Y-118819400D01*
X140812315Y-118830000D01*
X140764264Y-118867878D01*
X140703126Y-118870280D01*
X140652253Y-118836286D01*
X140647685Y-118830000D01*
X140640602Y-118819400D01*
X140640599Y-118819397D01*
X140557742Y-118764035D01*
X140557740Y-118764034D01*
X140557737Y-118764033D01*
X140557736Y-118764033D01*
X140484684Y-118749501D01*
X140484674Y-118749500D01*
X138435326Y-118749500D01*
X138435325Y-118749500D01*
X138435315Y-118749501D01*
X138362263Y-118764033D01*
X138362257Y-118764035D01*
X138279400Y-118819397D01*
X138279397Y-118819400D01*
X138272315Y-118830000D01*
X138224264Y-118867878D01*
X138163126Y-118870280D01*
X138112253Y-118836286D01*
X138107685Y-118830000D01*
X138100602Y-118819400D01*
X138100599Y-118819397D01*
X138017742Y-118764035D01*
X138017740Y-118764034D01*
X138017737Y-118764033D01*
X138017736Y-118764033D01*
X137944684Y-118749501D01*
X137944674Y-118749500D01*
X135895326Y-118749500D01*
X135895325Y-118749500D01*
X135895315Y-118749501D01*
X135822263Y-118764033D01*
X135822257Y-118764035D01*
X135739400Y-118819397D01*
X135739397Y-118819400D01*
X135732315Y-118830000D01*
X135684264Y-118867878D01*
X135623126Y-118870280D01*
X135572253Y-118836286D01*
X135567685Y-118830000D01*
X135560602Y-118819400D01*
X135560599Y-118819397D01*
X135477742Y-118764035D01*
X135477740Y-118764034D01*
X135477737Y-118764033D01*
X135477736Y-118764033D01*
X135404684Y-118749501D01*
X135404674Y-118749500D01*
X133355326Y-118749500D01*
X133355325Y-118749500D01*
X133355315Y-118749501D01*
X133282263Y-118764033D01*
X133282257Y-118764035D01*
X133199400Y-118819397D01*
X133199397Y-118819400D01*
X133144035Y-118902257D01*
X133144033Y-118902263D01*
X133129501Y-118975315D01*
X133129500Y-118975327D01*
X133129500Y-122024672D01*
X133129501Y-122024684D01*
X133144033Y-122097736D01*
X133144035Y-122097742D01*
X133199397Y-122180599D01*
X133199400Y-122180602D01*
X133276000Y-122231783D01*
X133282260Y-122235966D01*
X133337808Y-122247015D01*
X133355315Y-122250498D01*
X133355320Y-122250498D01*
X133355326Y-122250500D01*
X133355327Y-122250500D01*
X135404673Y-122250500D01*
X135404674Y-122250500D01*
X135477740Y-122235966D01*
X135560601Y-122180601D01*
X135567684Y-122170001D01*
X135615733Y-122132121D01*
X135676872Y-122129719D01*
X135727746Y-122163711D01*
X135732316Y-122170001D01*
X135739397Y-122180599D01*
X135739400Y-122180602D01*
X135816000Y-122231783D01*
X135822260Y-122235966D01*
X135877808Y-122247015D01*
X135895315Y-122250498D01*
X135895320Y-122250498D01*
X135895326Y-122250500D01*
X135895327Y-122250500D01*
X137944673Y-122250500D01*
X137944674Y-122250500D01*
X138017740Y-122235966D01*
X138100601Y-122180601D01*
X138107684Y-122170001D01*
X138155733Y-122132121D01*
X138216872Y-122129719D01*
X138267746Y-122163711D01*
X138272316Y-122170001D01*
X138279397Y-122180599D01*
X138279400Y-122180602D01*
X138356000Y-122231783D01*
X138362260Y-122235966D01*
X138417808Y-122247015D01*
X138435315Y-122250498D01*
X138435320Y-122250498D01*
X138435326Y-122250500D01*
X138435327Y-122250500D01*
X140484673Y-122250500D01*
X140484674Y-122250500D01*
X140557740Y-122235966D01*
X140640601Y-122180601D01*
X140647684Y-122170001D01*
X140695733Y-122132121D01*
X140756872Y-122129719D01*
X140807746Y-122163711D01*
X140812316Y-122170001D01*
X140819397Y-122180599D01*
X140819400Y-122180602D01*
X140896000Y-122231783D01*
X140902260Y-122235966D01*
X140957808Y-122247015D01*
X140975315Y-122250498D01*
X140975320Y-122250498D01*
X140975326Y-122250500D01*
X141525500Y-122250500D01*
X141583691Y-122269407D01*
X141619655Y-122318907D01*
X141624500Y-122349500D01*
X141624500Y-122525500D01*
X141605593Y-122583691D01*
X141556093Y-122619655D01*
X141525500Y-122624500D01*
X127404500Y-122624500D01*
X127346309Y-122605593D01*
X127310345Y-122556093D01*
X127305500Y-122525500D01*
X127305500Y-121004243D01*
X127324407Y-120946052D01*
X127369903Y-120911485D01*
X127417331Y-120893796D01*
X127532546Y-120807546D01*
X127618796Y-120692331D01*
X127669091Y-120557483D01*
X127675500Y-120497873D01*
X127675499Y-119502128D01*
X127669091Y-119442517D01*
X127669089Y-119442511D01*
X127618797Y-119307670D01*
X127532549Y-119192458D01*
X127532548Y-119192457D01*
X127532546Y-119192454D01*
X127532541Y-119192450D01*
X127417336Y-119106207D01*
X127417335Y-119106206D01*
X127417332Y-119106205D01*
X127417331Y-119106204D01*
X127369901Y-119088513D01*
X127321988Y-119050462D01*
X127305500Y-118995756D01*
X127305500Y-117500000D01*
X135000000Y-117500000D01*
X135000001Y-117500000D01*
X148999999Y-117500000D01*
X149000000Y-117500000D01*
X149000000Y-106500000D01*
X135000000Y-106500000D01*
X135000000Y-117500000D01*
X127305500Y-117500000D01*
X127305500Y-117004243D01*
X127324407Y-116946052D01*
X127369903Y-116911485D01*
X127417331Y-116893796D01*
X127532546Y-116807546D01*
X127618796Y-116692331D01*
X127669091Y-116557483D01*
X127675500Y-116497873D01*
X127675499Y-115502128D01*
X127669091Y-115442517D01*
X127665230Y-115432165D01*
X127618797Y-115307670D01*
X127532549Y-115192458D01*
X127532548Y-115192457D01*
X127532546Y-115192454D01*
X127532541Y-115192450D01*
X127417336Y-115106207D01*
X127417335Y-115106206D01*
X127417332Y-115106205D01*
X127417331Y-115106204D01*
X127369901Y-115088513D01*
X127321988Y-115050462D01*
X127305500Y-114995756D01*
X127305500Y-112038567D01*
X127324407Y-111980376D01*
X127369902Y-111945810D01*
X127442331Y-111918796D01*
X127557546Y-111832546D01*
X127643796Y-111717331D01*
X127694091Y-111582483D01*
X127700500Y-111522873D01*
X127700499Y-110477128D01*
X127694091Y-110417517D01*
X127685154Y-110393556D01*
X127643797Y-110282670D01*
X127557549Y-110167458D01*
X127557548Y-110167457D01*
X127557546Y-110167454D01*
X127442331Y-110081204D01*
X127442330Y-110081203D01*
X127369903Y-110054189D01*
X127321988Y-110016138D01*
X127305500Y-109961431D01*
X127305500Y-107850566D01*
X127297149Y-107819399D01*
X127279910Y-107755062D01*
X127279908Y-107755059D01*
X127279908Y-107755057D01*
X127236873Y-107680520D01*
X127230475Y-107669438D01*
X127160562Y-107599525D01*
X127160559Y-107599523D01*
X127074941Y-107550091D01*
X127074943Y-107550091D01*
X127037885Y-107540161D01*
X126979435Y-107524500D01*
X126979433Y-107524500D01*
X124329713Y-107524500D01*
X124271522Y-107505593D01*
X124235558Y-107456093D01*
X124235558Y-107394907D01*
X124243977Y-107376000D01*
X124261908Y-107344942D01*
X124261908Y-107344940D01*
X124261910Y-107344938D01*
X124287500Y-107249435D01*
X124287500Y-106010956D01*
X124306407Y-105952765D01*
X124351902Y-105918198D01*
X124417331Y-105893796D01*
X124532546Y-105807546D01*
X124618796Y-105692331D01*
X124669091Y-105557483D01*
X124675500Y-105497873D01*
X124675499Y-104502128D01*
X124669091Y-104442517D01*
X124669089Y-104442511D01*
X124618797Y-104307670D01*
X124532549Y-104192458D01*
X124532548Y-104192457D01*
X124532546Y-104192454D01*
X124532541Y-104192450D01*
X124417329Y-104106202D01*
X124282488Y-104055910D01*
X124282483Y-104055909D01*
X124282481Y-104055908D01*
X124282477Y-104055908D01*
X124251249Y-104052550D01*
X124222873Y-104049500D01*
X124222870Y-104049500D01*
X123602133Y-104049500D01*
X123602129Y-104049500D01*
X123602128Y-104049501D01*
X123594949Y-104050272D01*
X123542519Y-104055908D01*
X123542514Y-104055909D01*
X123407670Y-104106202D01*
X123292458Y-104192450D01*
X123292450Y-104192458D01*
X123206202Y-104307670D01*
X123155910Y-104442511D01*
X123155908Y-104442522D01*
X123149500Y-104502129D01*
X123149500Y-105497866D01*
X123149501Y-105497870D01*
X123155908Y-105557480D01*
X123155909Y-105557485D01*
X123206202Y-105692329D01*
X123292450Y-105807541D01*
X123292454Y-105807546D01*
X123407669Y-105893796D01*
X123472097Y-105917825D01*
X123520010Y-105955874D01*
X123536500Y-106010583D01*
X123536500Y-106725500D01*
X123517593Y-106783691D01*
X123468093Y-106819655D01*
X123437500Y-106824500D01*
X122514744Y-106824500D01*
X122456553Y-106805593D01*
X122444741Y-106795504D01*
X122368718Y-106719482D01*
X122368716Y-106719480D01*
X122231784Y-106640423D01*
X122079057Y-106599500D01*
X121920943Y-106599500D01*
X121768216Y-106640423D01*
X121701300Y-106679057D01*
X121631281Y-106719482D01*
X121555259Y-106795504D01*
X121500742Y-106823281D01*
X121485256Y-106824500D01*
X120974500Y-106824500D01*
X120916309Y-106805593D01*
X120880345Y-106756093D01*
X120875500Y-106725500D01*
X120875500Y-105474500D01*
X120894407Y-105416309D01*
X120943907Y-105380345D01*
X120974500Y-105375500D01*
X121225501Y-105375500D01*
X121283692Y-105394407D01*
X121319656Y-105443907D01*
X121324501Y-105474500D01*
X121324501Y-105497870D01*
X121330908Y-105557480D01*
X121330909Y-105557485D01*
X121381202Y-105692329D01*
X121467450Y-105807541D01*
X121467454Y-105807546D01*
X121467457Y-105807548D01*
X121467458Y-105807549D01*
X121582670Y-105893797D01*
X121717511Y-105944089D01*
X121717512Y-105944089D01*
X121717517Y-105944091D01*
X121777127Y-105950500D01*
X122397872Y-105950499D01*
X122457483Y-105944091D01*
X122527909Y-105917824D01*
X122592329Y-105893797D01*
X122592329Y-105893796D01*
X122592331Y-105893796D01*
X122707546Y-105807546D01*
X122793796Y-105692331D01*
X122844091Y-105557483D01*
X122850500Y-105497873D01*
X122850499Y-104502128D01*
X122844091Y-104442517D01*
X122844089Y-104442511D01*
X122793797Y-104307670D01*
X122707549Y-104192458D01*
X122707548Y-104192457D01*
X122707546Y-104192454D01*
X122707541Y-104192450D01*
X122592329Y-104106202D01*
X122457488Y-104055910D01*
X122457483Y-104055909D01*
X122457481Y-104055908D01*
X122457477Y-104055908D01*
X122426249Y-104052550D01*
X122397873Y-104049500D01*
X122397870Y-104049500D01*
X121777133Y-104049500D01*
X121777129Y-104049500D01*
X121777128Y-104049501D01*
X121769949Y-104050272D01*
X121717519Y-104055908D01*
X121717514Y-104055909D01*
X121582670Y-104106202D01*
X121467458Y-104192450D01*
X121467450Y-104192458D01*
X121381202Y-104307670D01*
X121330910Y-104442511D01*
X121330908Y-104442522D01*
X121324500Y-104502129D01*
X121324500Y-104525500D01*
X121305593Y-104583691D01*
X121256093Y-104619655D01*
X121225500Y-104624500D01*
X119774499Y-104624500D01*
X119716308Y-104605593D01*
X119680344Y-104556093D01*
X119675499Y-104525500D01*
X119675499Y-104502133D01*
X119675499Y-104502128D01*
X119669091Y-104442517D01*
X119669089Y-104442511D01*
X119618797Y-104307670D01*
X119532549Y-104192458D01*
X119532548Y-104192457D01*
X119532546Y-104192454D01*
X119532541Y-104192450D01*
X119417329Y-104106202D01*
X119282488Y-104055910D01*
X119282483Y-104055909D01*
X119282481Y-104055908D01*
X119282477Y-104055908D01*
X119251249Y-104052550D01*
X119222873Y-104049500D01*
X119222870Y-104049500D01*
X118602133Y-104049500D01*
X118602129Y-104049500D01*
X118602128Y-104049501D01*
X118594949Y-104050272D01*
X118542519Y-104055908D01*
X118542514Y-104055909D01*
X118407670Y-104106202D01*
X118292458Y-104192450D01*
X118292450Y-104192458D01*
X118206202Y-104307670D01*
X118155910Y-104442511D01*
X118155908Y-104442522D01*
X118149500Y-104502129D01*
X118149500Y-105497866D01*
X118149501Y-105497870D01*
X118155908Y-105557480D01*
X118155909Y-105557485D01*
X118206202Y-105692329D01*
X118292450Y-105807541D01*
X118292454Y-105807546D01*
X118380921Y-105873772D01*
X118416174Y-105923780D01*
X118415300Y-105984959D01*
X118378633Y-106033941D01*
X118371092Y-106038761D01*
X118231286Y-106119478D01*
X118231284Y-106119480D01*
X118119480Y-106231284D01*
X118040423Y-106368216D01*
X117999500Y-106520943D01*
X109575500Y-106520943D01*
X109575500Y-104502129D01*
X116324500Y-104502129D01*
X116324500Y-105497866D01*
X116324501Y-105497870D01*
X116330908Y-105557480D01*
X116330909Y-105557485D01*
X116381202Y-105692329D01*
X116467450Y-105807541D01*
X116467454Y-105807546D01*
X116467457Y-105807548D01*
X116467458Y-105807549D01*
X116582670Y-105893797D01*
X116717511Y-105944089D01*
X116717512Y-105944089D01*
X116717517Y-105944091D01*
X116777127Y-105950500D01*
X117397872Y-105950499D01*
X117457483Y-105944091D01*
X117527909Y-105917824D01*
X117592329Y-105893797D01*
X117592329Y-105893796D01*
X117592331Y-105893796D01*
X117707546Y-105807546D01*
X117793796Y-105692331D01*
X117844091Y-105557483D01*
X117850500Y-105497873D01*
X117850499Y-104502128D01*
X117844091Y-104442517D01*
X117844089Y-104442511D01*
X117793797Y-104307670D01*
X117707549Y-104192458D01*
X117707548Y-104192457D01*
X117707546Y-104192454D01*
X117707541Y-104192450D01*
X117592332Y-104106203D01*
X117590054Y-104104960D01*
X117588566Y-104103384D01*
X117586663Y-104101960D01*
X117586909Y-104101630D01*
X117548043Y-104060478D01*
X117538500Y-104018070D01*
X117538500Y-102939743D01*
X117557407Y-102881552D01*
X117567490Y-102869745D01*
X117568520Y-102868716D01*
X117647577Y-102731784D01*
X117688500Y-102579057D01*
X117688500Y-102420943D01*
X117647577Y-102268216D01*
X117568520Y-102131284D01*
X117456716Y-102019480D01*
X117319784Y-101940423D01*
X117167057Y-101899500D01*
X117008943Y-101899500D01*
X116856216Y-101940423D01*
X116719284Y-102019480D01*
X116607480Y-102131284D01*
X116528423Y-102268216D01*
X116487500Y-102420943D01*
X116487500Y-102579057D01*
X116528423Y-102731784D01*
X116607480Y-102868716D01*
X116608505Y-102869741D01*
X116608977Y-102870668D01*
X116611431Y-102873866D01*
X116610838Y-102874320D01*
X116636281Y-102924256D01*
X116637500Y-102939743D01*
X116637500Y-104017524D01*
X116618593Y-104075715D01*
X116585945Y-104104414D01*
X116582670Y-104106202D01*
X116467458Y-104192450D01*
X116467450Y-104192458D01*
X116381202Y-104307670D01*
X116330910Y-104442511D01*
X116330908Y-104442522D01*
X116324500Y-104502129D01*
X109575500Y-104502129D01*
X109575500Y-98674500D01*
X109594407Y-98616309D01*
X109643907Y-98580345D01*
X109674500Y-98575500D01*
X138840215Y-98575500D01*
X138898406Y-98594407D01*
X138934370Y-98643907D01*
X138934370Y-98705093D01*
X138925951Y-98724000D01*
X138900424Y-98768213D01*
X138900424Y-98768214D01*
X138900423Y-98768216D01*
X138859500Y-98920943D01*
X138859500Y-99079057D01*
X138900423Y-99231784D01*
X138979480Y-99368716D01*
X139055505Y-99444741D01*
X139083281Y-99499256D01*
X139084500Y-99514743D01*
X139084500Y-101650500D01*
X139065593Y-101708691D01*
X139016093Y-101744655D01*
X138985500Y-101749500D01*
X138435326Y-101749500D01*
X138435325Y-101749500D01*
X138435315Y-101749501D01*
X138362263Y-101764033D01*
X138362257Y-101764035D01*
X138279400Y-101819397D01*
X138279397Y-101819400D01*
X138272315Y-101830000D01*
X138224264Y-101867878D01*
X138163126Y-101870280D01*
X138112253Y-101836286D01*
X138107685Y-101830000D01*
X138100602Y-101819400D01*
X138100599Y-101819397D01*
X138017742Y-101764035D01*
X138017740Y-101764034D01*
X138017737Y-101764033D01*
X138017736Y-101764033D01*
X137944684Y-101749501D01*
X137944674Y-101749500D01*
X137944673Y-101749500D01*
X137394500Y-101749500D01*
X137336309Y-101730593D01*
X137300345Y-101681093D01*
X137295500Y-101650500D01*
X137295500Y-100514743D01*
X137314407Y-100456552D01*
X137324490Y-100444745D01*
X137400520Y-100368716D01*
X137479577Y-100231784D01*
X137520500Y-100079057D01*
X137520500Y-99920943D01*
X137479577Y-99768216D01*
X137400520Y-99631284D01*
X137288716Y-99519480D01*
X137151784Y-99440423D01*
X136999057Y-99399500D01*
X136840943Y-99399500D01*
X136688216Y-99440423D01*
X136551284Y-99519480D01*
X136439480Y-99631284D01*
X136360423Y-99768216D01*
X136319500Y-99920943D01*
X136319500Y-100079057D01*
X136360423Y-100231784D01*
X136439480Y-100368716D01*
X136515505Y-100444741D01*
X136543281Y-100499256D01*
X136544500Y-100514743D01*
X136544500Y-101650500D01*
X136525593Y-101708691D01*
X136476093Y-101744655D01*
X136445500Y-101749500D01*
X135895326Y-101749500D01*
X135895325Y-101749500D01*
X135895315Y-101749501D01*
X135822263Y-101764033D01*
X135822257Y-101764035D01*
X135739400Y-101819397D01*
X135739397Y-101819400D01*
X135732315Y-101830000D01*
X135684264Y-101867878D01*
X135623126Y-101870280D01*
X135572253Y-101836286D01*
X135567685Y-101830000D01*
X135560602Y-101819400D01*
X135560599Y-101819397D01*
X135477742Y-101764035D01*
X135477740Y-101764034D01*
X135477737Y-101764033D01*
X135477736Y-101764033D01*
X135404684Y-101749501D01*
X135404674Y-101749500D01*
X133355326Y-101749500D01*
X133355325Y-101749500D01*
X133355315Y-101749501D01*
X133282263Y-101764033D01*
X133282257Y-101764035D01*
X133199400Y-101819397D01*
X133199397Y-101819400D01*
X133144035Y-101902257D01*
X133144033Y-101902263D01*
X133129501Y-101975315D01*
X133129500Y-101975327D01*
X133129500Y-105024672D01*
X133129501Y-105024684D01*
X133144033Y-105097736D01*
X133144035Y-105097742D01*
X133199397Y-105180599D01*
X133199399Y-105180601D01*
X133282260Y-105235966D01*
X133337808Y-105247015D01*
X133355315Y-105250498D01*
X133355320Y-105250498D01*
X133355326Y-105250500D01*
X133355327Y-105250500D01*
X135404673Y-105250500D01*
X135404674Y-105250500D01*
X135477740Y-105235966D01*
X135560601Y-105180601D01*
X135567684Y-105170001D01*
X135615733Y-105132121D01*
X135676872Y-105129719D01*
X135727746Y-105163711D01*
X135732316Y-105170001D01*
X135739397Y-105180599D01*
X135739399Y-105180601D01*
X135822260Y-105235966D01*
X135877808Y-105247015D01*
X135895315Y-105250498D01*
X135895320Y-105250498D01*
X135895326Y-105250500D01*
X135895327Y-105250500D01*
X137944673Y-105250500D01*
X137944674Y-105250500D01*
X138017740Y-105235966D01*
X138100601Y-105180601D01*
X138107684Y-105170001D01*
X138155733Y-105132121D01*
X138216872Y-105129719D01*
X138267746Y-105163711D01*
X138272316Y-105170001D01*
X138279397Y-105180599D01*
X138279399Y-105180601D01*
X138362260Y-105235966D01*
X138417808Y-105247015D01*
X138435315Y-105250498D01*
X138435320Y-105250498D01*
X138435326Y-105250500D01*
X138435327Y-105250500D01*
X140484673Y-105250500D01*
X140484674Y-105250500D01*
X140557740Y-105235966D01*
X140640601Y-105180601D01*
X140647684Y-105170001D01*
X140695733Y-105132121D01*
X140756872Y-105129719D01*
X140807746Y-105163711D01*
X140812316Y-105170001D01*
X140819397Y-105180599D01*
X140819399Y-105180601D01*
X140902260Y-105235966D01*
X140957808Y-105247015D01*
X140975315Y-105250498D01*
X140975320Y-105250498D01*
X140975326Y-105250500D01*
X140975327Y-105250500D01*
X143024673Y-105250500D01*
X143024674Y-105250500D01*
X143097740Y-105235966D01*
X143180601Y-105180601D01*
X143187684Y-105170001D01*
X143235733Y-105132121D01*
X143296872Y-105129719D01*
X143347746Y-105163711D01*
X143352316Y-105170001D01*
X143359397Y-105180599D01*
X143359399Y-105180601D01*
X143442260Y-105235966D01*
X143497808Y-105247015D01*
X143515315Y-105250498D01*
X143515320Y-105250498D01*
X143515326Y-105250500D01*
X143515327Y-105250500D01*
X145564673Y-105250500D01*
X145564674Y-105250500D01*
X145637740Y-105235966D01*
X145720601Y-105180601D01*
X145727684Y-105170001D01*
X145775733Y-105132121D01*
X145836872Y-105129719D01*
X145887746Y-105163711D01*
X145892316Y-105170001D01*
X145899397Y-105180599D01*
X145899399Y-105180601D01*
X145982260Y-105235966D01*
X146037808Y-105247015D01*
X146055315Y-105250498D01*
X146055320Y-105250498D01*
X146055326Y-105250500D01*
X146055327Y-105250500D01*
X148104673Y-105250500D01*
X148104674Y-105250500D01*
X148177740Y-105235966D01*
X148260601Y-105180601D01*
X148267684Y-105170001D01*
X148315733Y-105132121D01*
X148376872Y-105129719D01*
X148427746Y-105163711D01*
X148432316Y-105170001D01*
X148439397Y-105180599D01*
X148439399Y-105180601D01*
X148522260Y-105235966D01*
X148577808Y-105247015D01*
X148595315Y-105250498D01*
X148595320Y-105250498D01*
X148595326Y-105250500D01*
X148595327Y-105250500D01*
X150644673Y-105250500D01*
X150644674Y-105250500D01*
X150717740Y-105235966D01*
X150800601Y-105180601D01*
X150855966Y-105097740D01*
X150870500Y-105024674D01*
X150870500Y-101975326D01*
X150855966Y-101902260D01*
X150832993Y-101867878D01*
X150800602Y-101819400D01*
X150800599Y-101819397D01*
X150717742Y-101764035D01*
X150717740Y-101764034D01*
X150717737Y-101764033D01*
X150717736Y-101764033D01*
X150644684Y-101749501D01*
X150644674Y-101749500D01*
X148595326Y-101749500D01*
X148595325Y-101749500D01*
X148595315Y-101749501D01*
X148522263Y-101764033D01*
X148522257Y-101764035D01*
X148439400Y-101819397D01*
X148439397Y-101819400D01*
X148432315Y-101830000D01*
X148384264Y-101867878D01*
X148323126Y-101870280D01*
X148272253Y-101836286D01*
X148267685Y-101830000D01*
X148260602Y-101819400D01*
X148260599Y-101819397D01*
X148177742Y-101764035D01*
X148177740Y-101764034D01*
X148177737Y-101764033D01*
X148177736Y-101764033D01*
X148104684Y-101749501D01*
X148104674Y-101749500D01*
X148104673Y-101749500D01*
X147554499Y-101749500D01*
X147496308Y-101730593D01*
X147460344Y-101681093D01*
X147455499Y-101650500D01*
X147455499Y-98150566D01*
X147449387Y-98127756D01*
X147429909Y-98055062D01*
X147429907Y-98055059D01*
X147429907Y-98055057D01*
X147380475Y-97969440D01*
X147380474Y-97969438D01*
X147310561Y-97899525D01*
X147310558Y-97899523D01*
X147224940Y-97850091D01*
X147224942Y-97850091D01*
X147187884Y-97840161D01*
X147129434Y-97824500D01*
X109249435Y-97824500D01*
X109150565Y-97824500D01*
X109092114Y-97840161D01*
X109055057Y-97850091D01*
X108969440Y-97899523D01*
X108899523Y-97969440D01*
X108850091Y-98055057D01*
X108846121Y-98069874D01*
X108824500Y-98150565D01*
X107761461Y-98150565D01*
X107781983Y-98104088D01*
X107797090Y-98069872D01*
X107799999Y-98044797D01*
X107800000Y-98044795D01*
X107800000Y-96200001D01*
X107799999Y-96200000D01*
X104200002Y-96200000D01*
X104200001Y-96200001D01*
X100600000Y-96200001D01*
X100600000Y-93955202D01*
X104200000Y-93955202D01*
X104200000Y-95799999D01*
X104200001Y-95800000D01*
X105799999Y-95800000D01*
X105800000Y-95799999D01*
X105800000Y-93700001D01*
X106200000Y-93700001D01*
X106200000Y-95799999D01*
X106200001Y-95800000D01*
X107799998Y-95800000D01*
X107799999Y-95799999D01*
X107799999Y-93955210D01*
X107799998Y-93955208D01*
X107797090Y-93930125D01*
X107751786Y-93827522D01*
X107672477Y-93748213D01*
X107569872Y-93702909D01*
X107544797Y-93700000D01*
X106200001Y-93700000D01*
X106200000Y-93700001D01*
X105800000Y-93700001D01*
X105799999Y-93700000D01*
X104455210Y-93700000D01*
X104455208Y-93700001D01*
X104430125Y-93702909D01*
X104327522Y-93748213D01*
X104248213Y-93827522D01*
X104202909Y-93930127D01*
X104200000Y-93955202D01*
X100600000Y-93955202D01*
X100600000Y-84975327D01*
X104249500Y-84975327D01*
X104249500Y-89024672D01*
X104249501Y-89024684D01*
X104264033Y-89097736D01*
X104264035Y-89097742D01*
X104319397Y-89180599D01*
X104319399Y-89180601D01*
X104402260Y-89235966D01*
X104457808Y-89247015D01*
X104475315Y-89250498D01*
X104475320Y-89250498D01*
X104475326Y-89250500D01*
X104788248Y-89250500D01*
X104846439Y-89269407D01*
X104882403Y-89318907D01*
X104882403Y-89380093D01*
X104858252Y-89419503D01*
X104527756Y-89749999D01*
X104527756Y-89750000D01*
X104300000Y-90600000D01*
X104527756Y-91450000D01*
X105150000Y-92072243D01*
X106000000Y-92300000D01*
X106850000Y-92072243D01*
X107472243Y-91450000D01*
X107700000Y-90600000D01*
X107472243Y-89750000D01*
X107141747Y-89419503D01*
X107113970Y-89364987D01*
X107123541Y-89304555D01*
X107166806Y-89261290D01*
X107211751Y-89250500D01*
X107524673Y-89250500D01*
X107524674Y-89250500D01*
X107597740Y-89235966D01*
X107680601Y-89180601D01*
X107735966Y-89097740D01*
X107750500Y-89024674D01*
X107750500Y-87599500D01*
X107769407Y-87541309D01*
X107818907Y-87505345D01*
X107849500Y-87500500D01*
X112625501Y-87500500D01*
X112683692Y-87519407D01*
X112719656Y-87568907D01*
X112724501Y-87599500D01*
X112724501Y-87672870D01*
X112730908Y-87732480D01*
X112730909Y-87732485D01*
X112781202Y-87867329D01*
X112799919Y-87892331D01*
X112867454Y-87982546D01*
X112867457Y-87982548D01*
X112867458Y-87982549D01*
X112982670Y-88068797D01*
X113117511Y-88119089D01*
X113117512Y-88119089D01*
X113117517Y-88119091D01*
X113177127Y-88125500D01*
X113897872Y-88125499D01*
X113957483Y-88119091D01*
X114025302Y-88093796D01*
X114092329Y-88068797D01*
X114092329Y-88068796D01*
X114092331Y-88068796D01*
X114207546Y-87982546D01*
X114293796Y-87867331D01*
X114344091Y-87732483D01*
X114350500Y-87672873D01*
X114350499Y-86327129D01*
X115649500Y-86327129D01*
X115649500Y-87672866D01*
X115649501Y-87672870D01*
X115655908Y-87732480D01*
X115655909Y-87732485D01*
X115706202Y-87867329D01*
X115724919Y-87892331D01*
X115792454Y-87982546D01*
X115792457Y-87982548D01*
X115792458Y-87982549D01*
X115907670Y-88068797D01*
X116042511Y-88119089D01*
X116042512Y-88119089D01*
X116042517Y-88119091D01*
X116102127Y-88125500D01*
X116822872Y-88125499D01*
X116882483Y-88119091D01*
X116950302Y-88093796D01*
X117017329Y-88068797D01*
X117017329Y-88068796D01*
X117017331Y-88068796D01*
X117132546Y-87982546D01*
X117218796Y-87867331D01*
X117269091Y-87732483D01*
X117275500Y-87672873D01*
X117275500Y-87599500D01*
X117294407Y-87541309D01*
X117343907Y-87505345D01*
X117374500Y-87500500D01*
X118400501Y-87500500D01*
X118458692Y-87519407D01*
X118494656Y-87568907D01*
X118499501Y-87599500D01*
X118499501Y-87697870D01*
X118505908Y-87757480D01*
X118505909Y-87757485D01*
X118556202Y-87892329D01*
X118608534Y-87962235D01*
X118642454Y-88007546D01*
X118642457Y-88007548D01*
X118642458Y-88007549D01*
X118757670Y-88093797D01*
X118892511Y-88144089D01*
X118892512Y-88144089D01*
X118892517Y-88144091D01*
X118952127Y-88150500D01*
X119300500Y-88150499D01*
X119358691Y-88169406D01*
X119394655Y-88218906D01*
X119399500Y-88249499D01*
X119399500Y-91500500D01*
X119380593Y-91558691D01*
X119331093Y-91594655D01*
X119300500Y-91599500D01*
X118802133Y-91599500D01*
X118802129Y-91599500D01*
X118802128Y-91599501D01*
X118794949Y-91600272D01*
X118742519Y-91605908D01*
X118742514Y-91605909D01*
X118607670Y-91656202D01*
X118492458Y-91742450D01*
X118492450Y-91742458D01*
X118406202Y-91857670D01*
X118355910Y-91992511D01*
X118355908Y-91992522D01*
X118349500Y-92052129D01*
X118349500Y-93947866D01*
X118349501Y-93947870D01*
X118355908Y-94007480D01*
X118355909Y-94007485D01*
X118406202Y-94142329D01*
X118439093Y-94186265D01*
X118492454Y-94257546D01*
X118492457Y-94257548D01*
X118492458Y-94257549D01*
X118607670Y-94343797D01*
X118742511Y-94394089D01*
X118742512Y-94394089D01*
X118742517Y-94394091D01*
X118802127Y-94400500D01*
X120897872Y-94400499D01*
X120957483Y-94394091D01*
X121024907Y-94368943D01*
X121092329Y-94343797D01*
X121092329Y-94343796D01*
X121092331Y-94343796D01*
X121207546Y-94257546D01*
X121293796Y-94142331D01*
X121344091Y-94007483D01*
X121350500Y-93947873D01*
X121350499Y-93200001D01*
X122600000Y-93200001D01*
X122600000Y-93943064D01*
X122610613Y-94031443D01*
X122666080Y-94172095D01*
X122757435Y-94292564D01*
X122877904Y-94383919D01*
X123018556Y-94439386D01*
X123106935Y-94449999D01*
X123106942Y-94450000D01*
X123949999Y-94450000D01*
X123950000Y-94449999D01*
X123950000Y-93200001D01*
X124350000Y-93200001D01*
X124350000Y-94449999D01*
X124350001Y-94450000D01*
X125193058Y-94450000D01*
X125193064Y-94449999D01*
X125281443Y-94439386D01*
X125422095Y-94383919D01*
X125542564Y-94292564D01*
X125633919Y-94172095D01*
X125689386Y-94031443D01*
X125699999Y-93943064D01*
X125700000Y-93943058D01*
X125700000Y-93200001D01*
X125699999Y-93200000D01*
X124350001Y-93200000D01*
X124350000Y-93200001D01*
X123950000Y-93200001D01*
X123949999Y-93200000D01*
X122600001Y-93200000D01*
X122600000Y-93200001D01*
X121350499Y-93200001D01*
X121350499Y-92881284D01*
X121350499Y-92056935D01*
X122600000Y-92056935D01*
X122600000Y-92799999D01*
X122600001Y-92800000D01*
X123949999Y-92800000D01*
X123950000Y-92799999D01*
X123950000Y-91550001D01*
X124350000Y-91550001D01*
X124350000Y-92799999D01*
X124350001Y-92800000D01*
X125699999Y-92800000D01*
X125700000Y-92799999D01*
X125700000Y-92056941D01*
X125699999Y-92056935D01*
X125689386Y-91968556D01*
X125633919Y-91827904D01*
X125542564Y-91707435D01*
X125422095Y-91616080D01*
X125281443Y-91560613D01*
X125193064Y-91550000D01*
X124350001Y-91550000D01*
X124350000Y-91550001D01*
X123950000Y-91550001D01*
X123949999Y-91550000D01*
X123106935Y-91550000D01*
X123018556Y-91560613D01*
X122877904Y-91616080D01*
X122757435Y-91707435D01*
X122666080Y-91827904D01*
X122610613Y-91968556D01*
X122600000Y-92056935D01*
X121350499Y-92056935D01*
X121350499Y-92053981D01*
X121350499Y-92052133D01*
X121350499Y-92052128D01*
X121344091Y-91992517D01*
X121318452Y-91923774D01*
X121293797Y-91857670D01*
X121207549Y-91742458D01*
X121207548Y-91742457D01*
X121207546Y-91742454D01*
X121160767Y-91707435D01*
X121092329Y-91656202D01*
X120957488Y-91605910D01*
X120957483Y-91605909D01*
X120957481Y-91605908D01*
X120957477Y-91605908D01*
X120926249Y-91602550D01*
X120897873Y-91599500D01*
X120897870Y-91599500D01*
X120399500Y-91599500D01*
X120341309Y-91580593D01*
X120305345Y-91531093D01*
X120300500Y-91500500D01*
X120300500Y-88249499D01*
X120319407Y-88191308D01*
X120368907Y-88155344D01*
X120399500Y-88150499D01*
X121047867Y-88150499D01*
X121047872Y-88150499D01*
X121107483Y-88144091D01*
X121174907Y-88118943D01*
X121242329Y-88093797D01*
X121242329Y-88093796D01*
X121242331Y-88093796D01*
X121357546Y-88007546D01*
X121443796Y-87892331D01*
X121447284Y-87882981D01*
X121494089Y-87757488D01*
X121494090Y-87757485D01*
X121494091Y-87757483D01*
X121500500Y-87697873D01*
X121500499Y-86302129D01*
X122499500Y-86302129D01*
X122499500Y-87697866D01*
X122499501Y-87697870D01*
X122505908Y-87757480D01*
X122505909Y-87757485D01*
X122556202Y-87892329D01*
X122608534Y-87962235D01*
X122642454Y-88007546D01*
X122642457Y-88007548D01*
X122642458Y-88007549D01*
X122757670Y-88093797D01*
X122892511Y-88144089D01*
X122892512Y-88144089D01*
X122892517Y-88144091D01*
X122952127Y-88150500D01*
X125047872Y-88150499D01*
X125107483Y-88144091D01*
X125174907Y-88118943D01*
X125242329Y-88093797D01*
X125242329Y-88093796D01*
X125242331Y-88093796D01*
X125357546Y-88007546D01*
X125443796Y-87892331D01*
X125447284Y-87882981D01*
X125494089Y-87757488D01*
X125494090Y-87757485D01*
X125494091Y-87757483D01*
X125500500Y-87697873D01*
X125500500Y-87599500D01*
X125519407Y-87541309D01*
X125568907Y-87505345D01*
X125599500Y-87500500D01*
X127208204Y-87500500D01*
X127266395Y-87519407D01*
X127302359Y-87568907D01*
X127304550Y-87576733D01*
X127305908Y-87582481D01*
X127356202Y-87717329D01*
X127442450Y-87832541D01*
X127442454Y-87832546D01*
X127509829Y-87882982D01*
X127545082Y-87932990D01*
X127549500Y-87962235D01*
X127549500Y-93315892D01*
X127553027Y-93329055D01*
X127583609Y-93443190D01*
X127649496Y-93557309D01*
X127649498Y-93557311D01*
X127649500Y-93557314D01*
X127742686Y-93650500D01*
X127742688Y-93650501D01*
X127742690Y-93650503D01*
X127856810Y-93716390D01*
X127856808Y-93716390D01*
X127856812Y-93716391D01*
X127856814Y-93716392D01*
X127984108Y-93750500D01*
X128115892Y-93750500D01*
X131650500Y-93750500D01*
X131708691Y-93769407D01*
X131744655Y-93818907D01*
X131749500Y-93849500D01*
X131749500Y-94151644D01*
X131752223Y-94186258D01*
X131752223Y-94186261D01*
X131752224Y-94186262D01*
X131772932Y-94257541D01*
X131795259Y-94334388D01*
X131795259Y-94334389D01*
X131873774Y-94467150D01*
X131873775Y-94467151D01*
X131873777Y-94467154D01*
X131982846Y-94576223D01*
X132115614Y-94654742D01*
X132263738Y-94697776D01*
X132298350Y-94700500D01*
X132298355Y-94700500D01*
X135451645Y-94700500D01*
X135451650Y-94700500D01*
X135486262Y-94697776D01*
X135634386Y-94654742D01*
X135767154Y-94576223D01*
X135876223Y-94467154D01*
X135954742Y-94334386D01*
X135997776Y-94186262D01*
X136000500Y-94151650D01*
X136000500Y-92348355D01*
X147999500Y-92348355D01*
X147999500Y-94151644D01*
X148002223Y-94186258D01*
X148002223Y-94186261D01*
X148002224Y-94186262D01*
X148022932Y-94257541D01*
X148045259Y-94334388D01*
X148045259Y-94334389D01*
X148123774Y-94467150D01*
X148123775Y-94467151D01*
X148123777Y-94467154D01*
X148232846Y-94576223D01*
X148365614Y-94654742D01*
X148513738Y-94697776D01*
X148548350Y-94700500D01*
X148548355Y-94700500D01*
X151701645Y-94700500D01*
X151701650Y-94700500D01*
X151736262Y-94697776D01*
X151884386Y-94654742D01*
X152017154Y-94576223D01*
X152126223Y-94467154D01*
X152204742Y-94334386D01*
X152247776Y-94186262D01*
X152250500Y-94151650D01*
X152250500Y-93799500D01*
X152269407Y-93741309D01*
X152318907Y-93705345D01*
X152349500Y-93700500D01*
X153060257Y-93700500D01*
X153118448Y-93719407D01*
X153130254Y-93729490D01*
X153131284Y-93730520D01*
X153268216Y-93809577D01*
X153420943Y-93850500D01*
X153420945Y-93850500D01*
X153579055Y-93850500D01*
X153579057Y-93850500D01*
X153731784Y-93809577D01*
X153868716Y-93730520D01*
X153980520Y-93618716D01*
X154059577Y-93481784D01*
X154100500Y-93329057D01*
X154100500Y-93170943D01*
X154059577Y-93018216D01*
X153980520Y-92881284D01*
X153868716Y-92769480D01*
X153731784Y-92690423D01*
X153579057Y-92649500D01*
X153420943Y-92649500D01*
X153268216Y-92690423D01*
X153131284Y-92769480D01*
X153130258Y-92770505D01*
X153129331Y-92770977D01*
X153126134Y-92773431D01*
X153125679Y-92772838D01*
X153075744Y-92798281D01*
X153060257Y-92799500D01*
X152349500Y-92799500D01*
X152291309Y-92780593D01*
X152255345Y-92731093D01*
X152250500Y-92700500D01*
X152250500Y-92348355D01*
X152247776Y-92313741D01*
X152247776Y-92313738D01*
X152204742Y-92165614D01*
X152149522Y-92072243D01*
X152126225Y-92032849D01*
X152126224Y-92032848D01*
X152126223Y-92032846D01*
X152017154Y-91923777D01*
X152017151Y-91923775D01*
X152017150Y-91923774D01*
X151884388Y-91845259D01*
X151884387Y-91845258D01*
X151884386Y-91845258D01*
X151736262Y-91802224D01*
X151736261Y-91802223D01*
X151736258Y-91802223D01*
X151714271Y-91800493D01*
X151701650Y-91799500D01*
X148548350Y-91799500D01*
X148536586Y-91800425D01*
X148513741Y-91802223D01*
X148513734Y-91802225D01*
X148365611Y-91845259D01*
X148365610Y-91845259D01*
X148232849Y-91923774D01*
X148123774Y-92032849D01*
X148045259Y-92165610D01*
X148045259Y-92165611D01*
X148002225Y-92313734D01*
X148002223Y-92313741D01*
X147999500Y-92348355D01*
X136000500Y-92348355D01*
X136000500Y-92348350D01*
X135997776Y-92313738D01*
X135954742Y-92165614D01*
X135899522Y-92072243D01*
X135876225Y-92032849D01*
X135876224Y-92032848D01*
X135876223Y-92032846D01*
X135767154Y-91923777D01*
X135767151Y-91923775D01*
X135767150Y-91923774D01*
X135634388Y-91845259D01*
X135634387Y-91845258D01*
X135634386Y-91845258D01*
X135486262Y-91802224D01*
X135486261Y-91802223D01*
X135486258Y-91802223D01*
X135464271Y-91800493D01*
X135451650Y-91799500D01*
X132298350Y-91799500D01*
X132286586Y-91800425D01*
X132263741Y-91802223D01*
X132263734Y-91802225D01*
X132115611Y-91845259D01*
X132115610Y-91845259D01*
X131982849Y-91923774D01*
X131873774Y-92032849D01*
X131795259Y-92165610D01*
X131795259Y-92165611D01*
X131752225Y-92313734D01*
X131752223Y-92313741D01*
X131749500Y-92348355D01*
X131749500Y-92650500D01*
X131730593Y-92708691D01*
X131681093Y-92744655D01*
X131650500Y-92749500D01*
X128649500Y-92749500D01*
X128591309Y-92730593D01*
X128555345Y-92681093D01*
X128550500Y-92650500D01*
X128550500Y-87962235D01*
X128569407Y-87904044D01*
X128590169Y-87882983D01*
X128657546Y-87832546D01*
X128743796Y-87717331D01*
X128751054Y-87697873D01*
X128776627Y-87629305D01*
X128794091Y-87582483D01*
X128800500Y-87522873D01*
X128800500Y-87200001D01*
X129150000Y-87200001D01*
X129150000Y-87518064D01*
X129160613Y-87606443D01*
X129216080Y-87747095D01*
X129307435Y-87867564D01*
X129427904Y-87958919D01*
X129568556Y-88014386D01*
X129656935Y-88024999D01*
X129656942Y-88025000D01*
X129749999Y-88025000D01*
X129750000Y-88024999D01*
X129750000Y-87200001D01*
X130150000Y-87200001D01*
X130150000Y-88024999D01*
X130150001Y-88025000D01*
X130243058Y-88025000D01*
X130243064Y-88024999D01*
X130331443Y-88014386D01*
X130472095Y-87958919D01*
X130592564Y-87867564D01*
X130683919Y-87747095D01*
X130739386Y-87606443D01*
X130749999Y-87518064D01*
X130750000Y-87518058D01*
X130750000Y-87200001D01*
X130749999Y-87200000D01*
X130150001Y-87200000D01*
X130150000Y-87200001D01*
X129750000Y-87200001D01*
X129749999Y-87200000D01*
X129150001Y-87200000D01*
X129150000Y-87200001D01*
X128800500Y-87200001D01*
X128800499Y-86481935D01*
X129150000Y-86481935D01*
X129150000Y-86799999D01*
X129150001Y-86800000D01*
X129749999Y-86800000D01*
X129750000Y-86799999D01*
X129750000Y-85975001D01*
X130150000Y-85975001D01*
X130150000Y-86799999D01*
X130150001Y-86800000D01*
X130749999Y-86800000D01*
X130750000Y-86799999D01*
X130750000Y-86481941D01*
X130749999Y-86481935D01*
X130739386Y-86393556D01*
X130683919Y-86252904D01*
X130592564Y-86132435D01*
X130472095Y-86041080D01*
X130331443Y-85985613D01*
X130243064Y-85975000D01*
X130150001Y-85975000D01*
X130150000Y-85975001D01*
X129750000Y-85975001D01*
X129749999Y-85975000D01*
X129656935Y-85975000D01*
X129568556Y-85985613D01*
X129427904Y-86041080D01*
X129307435Y-86132435D01*
X129216080Y-86252904D01*
X129160613Y-86393556D01*
X129150000Y-86481935D01*
X128800499Y-86481935D01*
X128800499Y-86477128D01*
X128794091Y-86417517D01*
X128760380Y-86327133D01*
X128743797Y-86282670D01*
X128657549Y-86167458D01*
X128657548Y-86167457D01*
X128657546Y-86167454D01*
X128611081Y-86132670D01*
X128542329Y-86081202D01*
X128407488Y-86030910D01*
X128407483Y-86030909D01*
X128407481Y-86030908D01*
X128407477Y-86030908D01*
X128376249Y-86027550D01*
X128347873Y-86024500D01*
X128347870Y-86024500D01*
X127752133Y-86024500D01*
X127752129Y-86024500D01*
X127752128Y-86024501D01*
X127744949Y-86025272D01*
X127692519Y-86030908D01*
X127692514Y-86030909D01*
X127557670Y-86081202D01*
X127442458Y-86167450D01*
X127442450Y-86167458D01*
X127356202Y-86282670D01*
X127305909Y-86417515D01*
X127304548Y-86423275D01*
X127272761Y-86475555D01*
X127216315Y-86499167D01*
X127208203Y-86499500D01*
X125599499Y-86499500D01*
X125541308Y-86480593D01*
X125505344Y-86431093D01*
X125500499Y-86400500D01*
X125500499Y-86302133D01*
X125500499Y-86302128D01*
X125494091Y-86242517D01*
X125494089Y-86242511D01*
X125443797Y-86107670D01*
X125357549Y-85992458D01*
X125357548Y-85992457D01*
X125357546Y-85992454D01*
X125334232Y-85975001D01*
X125242329Y-85906202D01*
X125107488Y-85855910D01*
X125107483Y-85855909D01*
X125107481Y-85855908D01*
X125107477Y-85855908D01*
X125076249Y-85852550D01*
X125047873Y-85849500D01*
X125047870Y-85849500D01*
X122952133Y-85849500D01*
X122952129Y-85849500D01*
X122952128Y-85849501D01*
X122944949Y-85850272D01*
X122892519Y-85855908D01*
X122892514Y-85855909D01*
X122757670Y-85906202D01*
X122642458Y-85992450D01*
X122642450Y-85992458D01*
X122556202Y-86107670D01*
X122505910Y-86242511D01*
X122505908Y-86242522D01*
X122499500Y-86302129D01*
X121500499Y-86302129D01*
X121500499Y-86302128D01*
X121494091Y-86242517D01*
X121494089Y-86242511D01*
X121443797Y-86107670D01*
X121357549Y-85992458D01*
X121357548Y-85992457D01*
X121357546Y-85992454D01*
X121334232Y-85975001D01*
X121242329Y-85906202D01*
X121107488Y-85855910D01*
X121107483Y-85855909D01*
X121107481Y-85855908D01*
X121107477Y-85855908D01*
X121076249Y-85852550D01*
X121047873Y-85849500D01*
X121047870Y-85849500D01*
X118952133Y-85849500D01*
X118952129Y-85849500D01*
X118952128Y-85849501D01*
X118944949Y-85850272D01*
X118892519Y-85855908D01*
X118892514Y-85855909D01*
X118757670Y-85906202D01*
X118642458Y-85992450D01*
X118642450Y-85992458D01*
X118556202Y-86107670D01*
X118505910Y-86242511D01*
X118505908Y-86242522D01*
X118499500Y-86302129D01*
X118499500Y-86400500D01*
X118480593Y-86458691D01*
X118431093Y-86494655D01*
X118400500Y-86499500D01*
X117374499Y-86499500D01*
X117316308Y-86480593D01*
X117280344Y-86431093D01*
X117275499Y-86400500D01*
X117275499Y-86327133D01*
X117275499Y-86327128D01*
X117269091Y-86267517D01*
X117260303Y-86243955D01*
X117218797Y-86132670D01*
X117132549Y-86017458D01*
X117132548Y-86017457D01*
X117132546Y-86017454D01*
X117132541Y-86017450D01*
X117017329Y-85931202D01*
X116882488Y-85880910D01*
X116882483Y-85880909D01*
X116882481Y-85880908D01*
X116882477Y-85880908D01*
X116851249Y-85877550D01*
X116822873Y-85874500D01*
X116822870Y-85874500D01*
X116102133Y-85874500D01*
X116102129Y-85874500D01*
X116102128Y-85874501D01*
X116094949Y-85875272D01*
X116042519Y-85880908D01*
X116042514Y-85880909D01*
X115907670Y-85931202D01*
X115792458Y-86017450D01*
X115792450Y-86017458D01*
X115706202Y-86132670D01*
X115655910Y-86267511D01*
X115655908Y-86267522D01*
X115649500Y-86327129D01*
X114350499Y-86327129D01*
X114350499Y-86327128D01*
X114344091Y-86267517D01*
X114335303Y-86243955D01*
X114293797Y-86132670D01*
X114207549Y-86017458D01*
X114207548Y-86017457D01*
X114207546Y-86017454D01*
X114207541Y-86017450D01*
X114092329Y-85931202D01*
X113957488Y-85880910D01*
X113957483Y-85880909D01*
X113957481Y-85880908D01*
X113957477Y-85880908D01*
X113926249Y-85877550D01*
X113897873Y-85874500D01*
X113897870Y-85874500D01*
X113177133Y-85874500D01*
X113177129Y-85874500D01*
X113177128Y-85874501D01*
X113169949Y-85875272D01*
X113117519Y-85880908D01*
X113117514Y-85880909D01*
X112982670Y-85931202D01*
X112867458Y-86017450D01*
X112867450Y-86017458D01*
X112781202Y-86132670D01*
X112730910Y-86267511D01*
X112730908Y-86267522D01*
X112724500Y-86327129D01*
X112724500Y-86400500D01*
X112705593Y-86458691D01*
X112656093Y-86494655D01*
X112625500Y-86499500D01*
X107849500Y-86499500D01*
X107791309Y-86480593D01*
X107755345Y-86431093D01*
X107750500Y-86400500D01*
X107750500Y-84975327D01*
X107750500Y-84975326D01*
X107745462Y-84950001D01*
X131700000Y-84950001D01*
X131700000Y-85643345D01*
X131706042Y-85709841D01*
X131706044Y-85709847D01*
X131753723Y-85862855D01*
X131753728Y-85862867D01*
X131836640Y-86000020D01*
X131949979Y-86113359D01*
X132087132Y-86196271D01*
X132087144Y-86196276D01*
X132240152Y-86243955D01*
X132240158Y-86243957D01*
X132306654Y-86249999D01*
X132306666Y-86250000D01*
X133674999Y-86250000D01*
X133675000Y-86249999D01*
X133675000Y-84950001D01*
X134075000Y-84950001D01*
X134075000Y-86249999D01*
X134075001Y-86250000D01*
X135443334Y-86250000D01*
X135443345Y-86249999D01*
X135509841Y-86243957D01*
X135509847Y-86243955D01*
X135662855Y-86196276D01*
X135662867Y-86196271D01*
X135800020Y-86113359D01*
X135913359Y-86000020D01*
X135996271Y-85862867D01*
X135996276Y-85862855D01*
X136043955Y-85709847D01*
X136043957Y-85709841D01*
X136049999Y-85643345D01*
X136050000Y-85643333D01*
X136050000Y-84950001D01*
X147950000Y-84950001D01*
X147950000Y-85643345D01*
X147956042Y-85709841D01*
X147956044Y-85709847D01*
X148003723Y-85862855D01*
X148003728Y-85862867D01*
X148086640Y-86000020D01*
X148199979Y-86113359D01*
X148337132Y-86196271D01*
X148337144Y-86196276D01*
X148490152Y-86243955D01*
X148490158Y-86243957D01*
X148556654Y-86249999D01*
X148556666Y-86250000D01*
X149924999Y-86250000D01*
X149925000Y-86249999D01*
X149925000Y-84950001D01*
X150325000Y-84950001D01*
X150325000Y-86249999D01*
X150325001Y-86250000D01*
X151693334Y-86250000D01*
X151693345Y-86249999D01*
X151759841Y-86243957D01*
X151759847Y-86243955D01*
X151912855Y-86196276D01*
X151912867Y-86196271D01*
X152050020Y-86113359D01*
X152163359Y-86000020D01*
X152246271Y-85862867D01*
X152246276Y-85862855D01*
X152293955Y-85709847D01*
X152293957Y-85709841D01*
X152299999Y-85643345D01*
X152300000Y-85643333D01*
X152300000Y-84950001D01*
X152299999Y-84950000D01*
X150325001Y-84950000D01*
X150325000Y-84950001D01*
X149925000Y-84950001D01*
X149924999Y-84950000D01*
X147950001Y-84950000D01*
X147950000Y-84950001D01*
X136050000Y-84950001D01*
X136049999Y-84950000D01*
X134075001Y-84950000D01*
X134075000Y-84950001D01*
X133675000Y-84950001D01*
X133674999Y-84950000D01*
X131700001Y-84950000D01*
X131700000Y-84950001D01*
X107745462Y-84950001D01*
X107735966Y-84902260D01*
X107680601Y-84819399D01*
X107680599Y-84819397D01*
X107597742Y-84764035D01*
X107597740Y-84764034D01*
X107597737Y-84764033D01*
X107597736Y-84764033D01*
X107524684Y-84749501D01*
X107524674Y-84749500D01*
X104475326Y-84749500D01*
X104475325Y-84749500D01*
X104475315Y-84749501D01*
X104402263Y-84764033D01*
X104402257Y-84764035D01*
X104319400Y-84819397D01*
X104319397Y-84819400D01*
X104264035Y-84902257D01*
X104264033Y-84902263D01*
X104249501Y-84975315D01*
X104249500Y-84975327D01*
X100600000Y-84975327D01*
X100600000Y-83856654D01*
X131700000Y-83856654D01*
X131700000Y-84549999D01*
X131700001Y-84550000D01*
X133674999Y-84550000D01*
X133675000Y-84549999D01*
X133675000Y-83250001D01*
X134075000Y-83250001D01*
X134075000Y-84549999D01*
X134075001Y-84550000D01*
X136049999Y-84550000D01*
X136050000Y-84549999D01*
X136050000Y-83856666D01*
X136049999Y-83856654D01*
X147950000Y-83856654D01*
X147950000Y-84549999D01*
X147950001Y-84550000D01*
X149924999Y-84550000D01*
X149925000Y-84549999D01*
X149925000Y-83250001D01*
X150325000Y-83250001D01*
X150325000Y-84549999D01*
X150325001Y-84550000D01*
X152299999Y-84550000D01*
X152300000Y-84549999D01*
X152300000Y-83856666D01*
X152299999Y-83856654D01*
X152293957Y-83790158D01*
X152293955Y-83790152D01*
X152246276Y-83637144D01*
X152246271Y-83637132D01*
X152163359Y-83499979D01*
X152050020Y-83386640D01*
X151912867Y-83303728D01*
X151912855Y-83303723D01*
X151759847Y-83256044D01*
X151759841Y-83256042D01*
X151693345Y-83250000D01*
X150325001Y-83250000D01*
X150325000Y-83250001D01*
X149925000Y-83250001D01*
X149924999Y-83250000D01*
X148556654Y-83250000D01*
X148490158Y-83256042D01*
X148490152Y-83256044D01*
X148337144Y-83303723D01*
X148337132Y-83303728D01*
X148199979Y-83386640D01*
X148086640Y-83499979D01*
X148003728Y-83637132D01*
X148003723Y-83637144D01*
X147956044Y-83790152D01*
X147956042Y-83790158D01*
X147950000Y-83856654D01*
X136049999Y-83856654D01*
X136043957Y-83790158D01*
X136043955Y-83790152D01*
X135996276Y-83637144D01*
X135996271Y-83637132D01*
X135913359Y-83499979D01*
X135800020Y-83386640D01*
X135662867Y-83303728D01*
X135662855Y-83303723D01*
X135509847Y-83256044D01*
X135509841Y-83256042D01*
X135443345Y-83250000D01*
X134075001Y-83250000D01*
X134075000Y-83250001D01*
X133675000Y-83250001D01*
X133674999Y-83250000D01*
X132306654Y-83250000D01*
X132240158Y-83256042D01*
X132240152Y-83256044D01*
X132087144Y-83303723D01*
X132087132Y-83303728D01*
X131949979Y-83386640D01*
X131836640Y-83499979D01*
X131753728Y-83637132D01*
X131753723Y-83637144D01*
X131706044Y-83790152D01*
X131706042Y-83790158D01*
X131700000Y-83856654D01*
X100600000Y-83856654D01*
X100600000Y-80699000D01*
X100618907Y-80640809D01*
X100668407Y-80604845D01*
X100699000Y-80600000D01*
X154301000Y-80600000D01*
X154359191Y-80618907D01*
G37*
%TD.AperFunction*%
%TD*%
M02*
