%TF.GenerationSoftware,KiCad,Pcbnew,10.0.6*%
%TF.CreationDate,2026-09-08T17:18:01+02:00*%
%TF.ProjectId,kali-tank-sensor-v3,6b616c69-2d74-4616-9e6b-2d73656e736f,rev?*%
%TF.SameCoordinates,Original*%
%TF.FileFunction,Legend,Top*%
%TF.FilePolarity,Positive*%
%FSLAX46Y46*%
G04 Gerber Fmt 4.6, Leading zero omitted, Abs format (unit mm)*
G04 Created by KiCad (PCBNEW 10.0.6) date 2026-09-08 17:18:01*
%MOMM*%
%LPD*%
G01*
G04 APERTURE LIST*
G04 Aperture macros list*
%AMRoundRect*
0 Rectangle with rounded corners*
0 $1 Rounding radius*
0 $2 $3 $4 $5 $6 $7 $8 $9 X,Y pos of 4 corners*
0 Add a 4 corners polygon primitive as box body*
4,1,4,$2,$3,$4,$5,$6,$7,$8,$9,$2,$3,0*
0 Add four circle primitives for the rounded corners*
1,1,$1+$1,$2,$3*
1,1,$1+$1,$4,$5*
1,1,$1+$1,$6,$7*
1,1,$1+$1,$8,$9*
0 Add four rect primitives between the rounded corners*
20,1,$1+$1,$2,$3,$4,$5,0*
20,1,$1+$1,$4,$5,$6,$7,0*
20,1,$1+$1,$6,$7,$8,$9,0*
20,1,$1+$1,$8,$9,$2,$3,0*%
G04 Aperture macros list end*
%ADD10C,0.150000*%
%ADD11C,0.120000*%
%ADD12RoundRect,0.150000X-0.587500X-0.150000X0.587500X-0.150000X0.587500X0.150000X-0.587500X0.150000X0*%
%ADD13RoundRect,0.250000X-0.250000X-0.475000X0.250000X-0.475000X0.250000X0.475000X-0.250000X0.475000X0*%
%ADD14RoundRect,0.250000X0.262500X0.450000X-0.262500X0.450000X-0.262500X-0.450000X0.262500X-0.450000X0*%
%ADD15RoundRect,0.250000X0.250000X0.475000X-0.250000X0.475000X-0.250000X-0.475000X0.250000X-0.475000X0*%
%ADD16RoundRect,0.250000X-0.262500X-0.450000X0.262500X-0.450000X0.262500X0.450000X-0.262500X0.450000X0*%
%ADD17RoundRect,0.250000X-1.000000X-0.900000X1.000000X-0.900000X1.000000X0.900000X-1.000000X0.900000X0*%
%ADD18C,2.200000*%
%ADD19R,3.000000X4.000000*%
%ADD20RoundRect,0.360000X-1.515000X-0.840000X1.515000X-0.840000X1.515000X0.840000X-1.515000X0.840000X0*%
%ADD21RoundRect,0.250000X-0.325000X-0.650000X0.325000X-0.650000X0.325000X0.650000X-0.325000X0.650000X0*%
%ADD22R,2.000000X3.000000*%
%ADD23RoundRect,0.087500X0.087500X-0.662500X0.087500X0.662500X-0.087500X0.662500X-0.087500X-0.662500X0*%
%ADD24R,1.000000X1.400000*%
%ADD25RoundRect,0.250000X1.000000X0.650000X-1.000000X0.650000X-1.000000X-0.650000X1.000000X-0.650000X0*%
%ADD26RoundRect,0.250000X-0.312500X-0.625000X0.312500X-0.625000X0.312500X0.625000X-0.312500X0.625000X0*%
G04 APERTURE END LIST*
D10*
X136150001Y-96916033D02*
X136383335Y-97616033D01*
X136383335Y-97616033D02*
X136616668Y-96916033D01*
X136850001Y-97249366D02*
X137083335Y-97249366D01*
X137183335Y-97616033D02*
X136850001Y-97616033D01*
X136850001Y-97616033D02*
X136850001Y-96916033D01*
X136850001Y-96916033D02*
X137183335Y-96916033D01*
X137883334Y-97616033D02*
X137650001Y-97282700D01*
X137483334Y-97616033D02*
X137483334Y-96916033D01*
X137483334Y-96916033D02*
X137750001Y-96916033D01*
X137750001Y-96916033D02*
X137816668Y-96949366D01*
X137816668Y-96949366D02*
X137850001Y-96982700D01*
X137850001Y-96982700D02*
X137883334Y-97049366D01*
X137883334Y-97049366D02*
X137883334Y-97149366D01*
X137883334Y-97149366D02*
X137850001Y-97216033D01*
X137850001Y-97216033D02*
X137816668Y-97249366D01*
X137816668Y-97249366D02*
X137750001Y-97282700D01*
X137750001Y-97282700D02*
X137483334Y-97282700D01*
X138183334Y-97616033D02*
X138183334Y-96916033D01*
X138750001Y-97249366D02*
X138516667Y-97249366D01*
X138516667Y-97616033D02*
X138516667Y-96916033D01*
X138516667Y-96916033D02*
X138850001Y-96916033D01*
X139250001Y-97282700D02*
X139250001Y-97616033D01*
X139016667Y-96916033D02*
X139250001Y-97282700D01*
X139250001Y-97282700D02*
X139483334Y-96916033D01*
X140250000Y-97616033D02*
X140250000Y-96916033D01*
X140250000Y-96916033D02*
X140416667Y-96916033D01*
X140416667Y-96916033D02*
X140516667Y-96949366D01*
X140516667Y-96949366D02*
X140583334Y-97016033D01*
X140583334Y-97016033D02*
X140616667Y-97082700D01*
X140616667Y-97082700D02*
X140650000Y-97216033D01*
X140650000Y-97216033D02*
X140650000Y-97316033D01*
X140650000Y-97316033D02*
X140616667Y-97449366D01*
X140616667Y-97449366D02*
X140583334Y-97516033D01*
X140583334Y-97516033D02*
X140516667Y-97582700D01*
X140516667Y-97582700D02*
X140416667Y-97616033D01*
X140416667Y-97616033D02*
X140250000Y-97616033D01*
X141350000Y-97549366D02*
X141316667Y-97582700D01*
X141316667Y-97582700D02*
X141216667Y-97616033D01*
X141216667Y-97616033D02*
X141150000Y-97616033D01*
X141150000Y-97616033D02*
X141050000Y-97582700D01*
X141050000Y-97582700D02*
X140983334Y-97516033D01*
X140983334Y-97516033D02*
X140950000Y-97449366D01*
X140950000Y-97449366D02*
X140916667Y-97316033D01*
X140916667Y-97316033D02*
X140916667Y-97216033D01*
X140916667Y-97216033D02*
X140950000Y-97082700D01*
X140950000Y-97082700D02*
X140983334Y-97016033D01*
X140983334Y-97016033D02*
X141050000Y-96949366D01*
X141050000Y-96949366D02*
X141150000Y-96916033D01*
X141150000Y-96916033D02*
X141216667Y-96916033D01*
X141216667Y-96916033D02*
X141316667Y-96949366D01*
X141316667Y-96949366D02*
X141350000Y-96982700D01*
X142150000Y-96882700D02*
X141550000Y-97782700D01*
X142383333Y-97616033D02*
X142383333Y-96916033D01*
X142383333Y-96916033D02*
X142550000Y-96916033D01*
X142550000Y-96916033D02*
X142650000Y-96949366D01*
X142650000Y-96949366D02*
X142716667Y-97016033D01*
X142716667Y-97016033D02*
X142750000Y-97082700D01*
X142750000Y-97082700D02*
X142783333Y-97216033D01*
X142783333Y-97216033D02*
X142783333Y-97316033D01*
X142783333Y-97316033D02*
X142750000Y-97449366D01*
X142750000Y-97449366D02*
X142716667Y-97516033D01*
X142716667Y-97516033D02*
X142650000Y-97582700D01*
X142650000Y-97582700D02*
X142550000Y-97616033D01*
X142550000Y-97616033D02*
X142383333Y-97616033D01*
X143483333Y-97549366D02*
X143450000Y-97582700D01*
X143450000Y-97582700D02*
X143350000Y-97616033D01*
X143350000Y-97616033D02*
X143283333Y-97616033D01*
X143283333Y-97616033D02*
X143183333Y-97582700D01*
X143183333Y-97582700D02*
X143116667Y-97516033D01*
X143116667Y-97516033D02*
X143083333Y-97449366D01*
X143083333Y-97449366D02*
X143050000Y-97316033D01*
X143050000Y-97316033D02*
X143050000Y-97216033D01*
X143050000Y-97216033D02*
X143083333Y-97082700D01*
X143083333Y-97082700D02*
X143116667Y-97016033D01*
X143116667Y-97016033D02*
X143183333Y-96949366D01*
X143183333Y-96949366D02*
X143283333Y-96916033D01*
X143283333Y-96916033D02*
X143350000Y-96916033D01*
X143350000Y-96916033D02*
X143450000Y-96949366D01*
X143450000Y-96949366D02*
X143483333Y-96982700D01*
X144316666Y-97616033D02*
X144316666Y-96916033D01*
X144316666Y-96916033D02*
X144583333Y-96916033D01*
X144583333Y-96916033D02*
X144650000Y-96949366D01*
X144650000Y-96949366D02*
X144683333Y-96982700D01*
X144683333Y-96982700D02*
X144716666Y-97049366D01*
X144716666Y-97049366D02*
X144716666Y-97149366D01*
X144716666Y-97149366D02*
X144683333Y-97216033D01*
X144683333Y-97216033D02*
X144650000Y-97249366D01*
X144650000Y-97249366D02*
X144583333Y-97282700D01*
X144583333Y-97282700D02*
X144316666Y-97282700D01*
X145016666Y-97616033D02*
X145016666Y-96916033D01*
X145349999Y-97616033D02*
X145349999Y-96916033D01*
X145349999Y-96916033D02*
X145749999Y-97616033D01*
X145749999Y-97616033D02*
X145749999Y-96916033D01*
X146216666Y-96916033D02*
X146349999Y-96916033D01*
X146349999Y-96916033D02*
X146416666Y-96949366D01*
X146416666Y-96949366D02*
X146483332Y-97016033D01*
X146483332Y-97016033D02*
X146516666Y-97149366D01*
X146516666Y-97149366D02*
X146516666Y-97382700D01*
X146516666Y-97382700D02*
X146483332Y-97516033D01*
X146483332Y-97516033D02*
X146416666Y-97582700D01*
X146416666Y-97582700D02*
X146349999Y-97616033D01*
X146349999Y-97616033D02*
X146216666Y-97616033D01*
X146216666Y-97616033D02*
X146149999Y-97582700D01*
X146149999Y-97582700D02*
X146083332Y-97516033D01*
X146083332Y-97516033D02*
X146049999Y-97382700D01*
X146049999Y-97382700D02*
X146049999Y-97149366D01*
X146049999Y-97149366D02*
X146083332Y-97016033D01*
X146083332Y-97016033D02*
X146149999Y-96949366D01*
X146149999Y-96949366D02*
X146216666Y-96916033D01*
X146816665Y-96916033D02*
X146816665Y-97482700D01*
X146816665Y-97482700D02*
X146849999Y-97549366D01*
X146849999Y-97549366D02*
X146883332Y-97582700D01*
X146883332Y-97582700D02*
X146949999Y-97616033D01*
X146949999Y-97616033D02*
X147083332Y-97616033D01*
X147083332Y-97616033D02*
X147149999Y-97582700D01*
X147149999Y-97582700D02*
X147183332Y-97549366D01*
X147183332Y-97549366D02*
X147216665Y-97482700D01*
X147216665Y-97482700D02*
X147216665Y-96916033D01*
X147449998Y-96916033D02*
X147849998Y-96916033D01*
X147649998Y-97616033D02*
X147649998Y-96916033D01*
X140316668Y-130516033D02*
X140450001Y-130516033D01*
X140450001Y-130516033D02*
X140516668Y-130549366D01*
X140516668Y-130549366D02*
X140583334Y-130616033D01*
X140583334Y-130616033D02*
X140616668Y-130749366D01*
X140616668Y-130749366D02*
X140616668Y-130982700D01*
X140616668Y-130982700D02*
X140583334Y-131116033D01*
X140583334Y-131116033D02*
X140516668Y-131182700D01*
X140516668Y-131182700D02*
X140450001Y-131216033D01*
X140450001Y-131216033D02*
X140316668Y-131216033D01*
X140316668Y-131216033D02*
X140250001Y-131182700D01*
X140250001Y-131182700D02*
X140183334Y-131116033D01*
X140183334Y-131116033D02*
X140150001Y-130982700D01*
X140150001Y-130982700D02*
X140150001Y-130749366D01*
X140150001Y-130749366D02*
X140183334Y-130616033D01*
X140183334Y-130616033D02*
X140250001Y-130549366D01*
X140250001Y-130549366D02*
X140316668Y-130516033D01*
X140916667Y-131216033D02*
X140916667Y-130516033D01*
X140916667Y-130516033D02*
X141183334Y-130516033D01*
X141183334Y-130516033D02*
X141250001Y-130549366D01*
X141250001Y-130549366D02*
X141283334Y-130582700D01*
X141283334Y-130582700D02*
X141316667Y-130649366D01*
X141316667Y-130649366D02*
X141316667Y-130749366D01*
X141316667Y-130749366D02*
X141283334Y-130816033D01*
X141283334Y-130816033D02*
X141250001Y-130849366D01*
X141250001Y-130849366D02*
X141183334Y-130882700D01*
X141183334Y-130882700D02*
X140916667Y-130882700D01*
X141616667Y-130849366D02*
X141850001Y-130849366D01*
X141950001Y-131216033D02*
X141616667Y-131216033D01*
X141616667Y-131216033D02*
X141616667Y-130516033D01*
X141616667Y-130516033D02*
X141950001Y-130516033D01*
X142250000Y-131216033D02*
X142250000Y-130516033D01*
X142250000Y-130516033D02*
X142650000Y-131216033D01*
X142650000Y-131216033D02*
X142650000Y-130516033D01*
X143750000Y-130849366D02*
X143850000Y-130882700D01*
X143850000Y-130882700D02*
X143883333Y-130916033D01*
X143883333Y-130916033D02*
X143916666Y-130982700D01*
X143916666Y-130982700D02*
X143916666Y-131082700D01*
X143916666Y-131082700D02*
X143883333Y-131149366D01*
X143883333Y-131149366D02*
X143850000Y-131182700D01*
X143850000Y-131182700D02*
X143783333Y-131216033D01*
X143783333Y-131216033D02*
X143516666Y-131216033D01*
X143516666Y-131216033D02*
X143516666Y-130516033D01*
X143516666Y-130516033D02*
X143750000Y-130516033D01*
X143750000Y-130516033D02*
X143816666Y-130549366D01*
X143816666Y-130549366D02*
X143850000Y-130582700D01*
X143850000Y-130582700D02*
X143883333Y-130649366D01*
X143883333Y-130649366D02*
X143883333Y-130716033D01*
X143883333Y-130716033D02*
X143850000Y-130782700D01*
X143850000Y-130782700D02*
X143816666Y-130816033D01*
X143816666Y-130816033D02*
X143750000Y-130849366D01*
X143750000Y-130849366D02*
X143516666Y-130849366D01*
X144216666Y-130849366D02*
X144450000Y-130849366D01*
X144550000Y-131216033D02*
X144216666Y-131216033D01*
X144216666Y-131216033D02*
X144216666Y-130516033D01*
X144216666Y-130516033D02*
X144550000Y-130516033D01*
X145083333Y-130849366D02*
X144849999Y-130849366D01*
X144849999Y-131216033D02*
X144849999Y-130516033D01*
X144849999Y-130516033D02*
X145183333Y-130516033D01*
X145583333Y-130516033D02*
X145716666Y-130516033D01*
X145716666Y-130516033D02*
X145783333Y-130549366D01*
X145783333Y-130549366D02*
X145849999Y-130616033D01*
X145849999Y-130616033D02*
X145883333Y-130749366D01*
X145883333Y-130749366D02*
X145883333Y-130982700D01*
X145883333Y-130982700D02*
X145849999Y-131116033D01*
X145849999Y-131116033D02*
X145783333Y-131182700D01*
X145783333Y-131182700D02*
X145716666Y-131216033D01*
X145716666Y-131216033D02*
X145583333Y-131216033D01*
X145583333Y-131216033D02*
X145516666Y-131182700D01*
X145516666Y-131182700D02*
X145449999Y-131116033D01*
X145449999Y-131116033D02*
X145416666Y-130982700D01*
X145416666Y-130982700D02*
X145416666Y-130749366D01*
X145416666Y-130749366D02*
X145449999Y-130616033D01*
X145449999Y-130616033D02*
X145516666Y-130549366D01*
X145516666Y-130549366D02*
X145583333Y-130516033D01*
X146583332Y-131216033D02*
X146349999Y-130882700D01*
X146183332Y-131216033D02*
X146183332Y-130516033D01*
X146183332Y-130516033D02*
X146449999Y-130516033D01*
X146449999Y-130516033D02*
X146516666Y-130549366D01*
X146516666Y-130549366D02*
X146549999Y-130582700D01*
X146549999Y-130582700D02*
X146583332Y-130649366D01*
X146583332Y-130649366D02*
X146583332Y-130749366D01*
X146583332Y-130749366D02*
X146549999Y-130816033D01*
X146549999Y-130816033D02*
X146516666Y-130849366D01*
X146516666Y-130849366D02*
X146449999Y-130882700D01*
X146449999Y-130882700D02*
X146183332Y-130882700D01*
X146883332Y-130849366D02*
X147116666Y-130849366D01*
X147216666Y-131216033D02*
X146883332Y-131216033D01*
X146883332Y-131216033D02*
X146883332Y-130516033D01*
X146883332Y-130516033D02*
X147216666Y-130516033D01*
X148049998Y-130516033D02*
X148049998Y-131082700D01*
X148049998Y-131082700D02*
X148083332Y-131149366D01*
X148083332Y-131149366D02*
X148116665Y-131182700D01*
X148116665Y-131182700D02*
X148183332Y-131216033D01*
X148183332Y-131216033D02*
X148316665Y-131216033D01*
X148316665Y-131216033D02*
X148383332Y-131182700D01*
X148383332Y-131182700D02*
X148416665Y-131149366D01*
X148416665Y-131149366D02*
X148449998Y-131082700D01*
X148449998Y-131082700D02*
X148449998Y-130516033D01*
X148749998Y-131182700D02*
X148849998Y-131216033D01*
X148849998Y-131216033D02*
X149016665Y-131216033D01*
X149016665Y-131216033D02*
X149083331Y-131182700D01*
X149083331Y-131182700D02*
X149116665Y-131149366D01*
X149116665Y-131149366D02*
X149149998Y-131082700D01*
X149149998Y-131082700D02*
X149149998Y-131016033D01*
X149149998Y-131016033D02*
X149116665Y-130949366D01*
X149116665Y-130949366D02*
X149083331Y-130916033D01*
X149083331Y-130916033D02*
X149016665Y-130882700D01*
X149016665Y-130882700D02*
X148883331Y-130849366D01*
X148883331Y-130849366D02*
X148816665Y-130816033D01*
X148816665Y-130816033D02*
X148783331Y-130782700D01*
X148783331Y-130782700D02*
X148749998Y-130716033D01*
X148749998Y-130716033D02*
X148749998Y-130649366D01*
X148749998Y-130649366D02*
X148783331Y-130582700D01*
X148783331Y-130582700D02*
X148816665Y-130549366D01*
X148816665Y-130549366D02*
X148883331Y-130516033D01*
X148883331Y-130516033D02*
X149049998Y-130516033D01*
X149049998Y-130516033D02*
X149149998Y-130549366D01*
X149683332Y-130849366D02*
X149783332Y-130882700D01*
X149783332Y-130882700D02*
X149816665Y-130916033D01*
X149816665Y-130916033D02*
X149849998Y-130982700D01*
X149849998Y-130982700D02*
X149849998Y-131082700D01*
X149849998Y-131082700D02*
X149816665Y-131149366D01*
X149816665Y-131149366D02*
X149783332Y-131182700D01*
X149783332Y-131182700D02*
X149716665Y-131216033D01*
X149716665Y-131216033D02*
X149449998Y-131216033D01*
X149449998Y-131216033D02*
X149449998Y-130516033D01*
X149449998Y-130516033D02*
X149683332Y-130516033D01*
X149683332Y-130516033D02*
X149749998Y-130549366D01*
X149749998Y-130549366D02*
X149783332Y-130582700D01*
X149783332Y-130582700D02*
X149816665Y-130649366D01*
X149816665Y-130649366D02*
X149816665Y-130716033D01*
X149816665Y-130716033D02*
X149783332Y-130782700D01*
X149783332Y-130782700D02*
X149749998Y-130816033D01*
X149749998Y-130816033D02*
X149683332Y-130849366D01*
X149683332Y-130849366D02*
X149449998Y-130849366D01*
X109485714Y-87408557D02*
X108971428Y-87408557D01*
X109228571Y-87408557D02*
X109228571Y-86508557D01*
X109228571Y-86508557D02*
X109142857Y-86637128D01*
X109142857Y-86637128D02*
X109057142Y-86722842D01*
X109057142Y-86722842D02*
X108971428Y-86765700D01*
X109828571Y-86594271D02*
X109871428Y-86551414D01*
X109871428Y-86551414D02*
X109957143Y-86508557D01*
X109957143Y-86508557D02*
X110171428Y-86508557D01*
X110171428Y-86508557D02*
X110257143Y-86551414D01*
X110257143Y-86551414D02*
X110300000Y-86594271D01*
X110300000Y-86594271D02*
X110342857Y-86679985D01*
X110342857Y-86679985D02*
X110342857Y-86765700D01*
X110342857Y-86765700D02*
X110300000Y-86894271D01*
X110300000Y-86894271D02*
X109785714Y-87408557D01*
X109785714Y-87408557D02*
X110342857Y-87408557D01*
X110600000Y-86508557D02*
X110900000Y-87408557D01*
X110900000Y-87408557D02*
X111200000Y-86508557D01*
X111500000Y-87065700D02*
X112185715Y-87065700D01*
X111842857Y-87408557D02*
X111842857Y-86722842D01*
X110085714Y-96408557D02*
X109571428Y-96408557D01*
X109828571Y-96408557D02*
X109828571Y-95508557D01*
X109828571Y-95508557D02*
X109742857Y-95637128D01*
X109742857Y-95637128D02*
X109657142Y-95722842D01*
X109657142Y-95722842D02*
X109571428Y-95765700D01*
X110428571Y-95594271D02*
X110471428Y-95551414D01*
X110471428Y-95551414D02*
X110557143Y-95508557D01*
X110557143Y-95508557D02*
X110771428Y-95508557D01*
X110771428Y-95508557D02*
X110857143Y-95551414D01*
X110857143Y-95551414D02*
X110900000Y-95594271D01*
X110900000Y-95594271D02*
X110942857Y-95679985D01*
X110942857Y-95679985D02*
X110942857Y-95765700D01*
X110942857Y-95765700D02*
X110900000Y-95894271D01*
X110900000Y-95894271D02*
X110385714Y-96408557D01*
X110385714Y-96408557D02*
X110942857Y-96408557D01*
X111200000Y-95508557D02*
X111500000Y-96408557D01*
X111500000Y-96408557D02*
X111800000Y-95508557D01*
X112100000Y-96065700D02*
X112785715Y-96065700D01*
X109592857Y-110365700D02*
X109721429Y-110408557D01*
X109721429Y-110408557D02*
X109935714Y-110408557D01*
X109935714Y-110408557D02*
X110021429Y-110365700D01*
X110021429Y-110365700D02*
X110064286Y-110322842D01*
X110064286Y-110322842D02*
X110107143Y-110237128D01*
X110107143Y-110237128D02*
X110107143Y-110151414D01*
X110107143Y-110151414D02*
X110064286Y-110065700D01*
X110064286Y-110065700D02*
X110021429Y-110022842D01*
X110021429Y-110022842D02*
X109935714Y-109979985D01*
X109935714Y-109979985D02*
X109764286Y-109937128D01*
X109764286Y-109937128D02*
X109678571Y-109894271D01*
X109678571Y-109894271D02*
X109635714Y-109851414D01*
X109635714Y-109851414D02*
X109592857Y-109765700D01*
X109592857Y-109765700D02*
X109592857Y-109679985D01*
X109592857Y-109679985D02*
X109635714Y-109594271D01*
X109635714Y-109594271D02*
X109678571Y-109551414D01*
X109678571Y-109551414D02*
X109764286Y-109508557D01*
X109764286Y-109508557D02*
X109978571Y-109508557D01*
X109978571Y-109508557D02*
X110107143Y-109551414D01*
X110492857Y-110408557D02*
X110492857Y-109508557D01*
X110492857Y-109508557D02*
X111007143Y-110408557D01*
X111007143Y-110408557D02*
X111007143Y-109508557D01*
X111435714Y-110408557D02*
X111435714Y-109508557D01*
X111435714Y-109508557D02*
X111650000Y-109508557D01*
X111650000Y-109508557D02*
X111778571Y-109551414D01*
X111778571Y-109551414D02*
X111864286Y-109637128D01*
X111864286Y-109637128D02*
X111907143Y-109722842D01*
X111907143Y-109722842D02*
X111950000Y-109894271D01*
X111950000Y-109894271D02*
X111950000Y-110022842D01*
X111950000Y-110022842D02*
X111907143Y-110194271D01*
X111907143Y-110194271D02*
X111864286Y-110279985D01*
X111864286Y-110279985D02*
X111778571Y-110365700D01*
X111778571Y-110365700D02*
X111650000Y-110408557D01*
X111650000Y-110408557D02*
X111435714Y-110408557D01*
X112978571Y-110151414D02*
X113407143Y-110151414D01*
X112892857Y-110408557D02*
X113192857Y-109508557D01*
X113192857Y-109508557D02*
X113492857Y-110408557D01*
X109528571Y-122365700D02*
X109657143Y-122408557D01*
X109657143Y-122408557D02*
X109871428Y-122408557D01*
X109871428Y-122408557D02*
X109957143Y-122365700D01*
X109957143Y-122365700D02*
X110000000Y-122322842D01*
X110000000Y-122322842D02*
X110042857Y-122237128D01*
X110042857Y-122237128D02*
X110042857Y-122151414D01*
X110042857Y-122151414D02*
X110000000Y-122065700D01*
X110000000Y-122065700D02*
X109957143Y-122022842D01*
X109957143Y-122022842D02*
X109871428Y-121979985D01*
X109871428Y-121979985D02*
X109700000Y-121937128D01*
X109700000Y-121937128D02*
X109614285Y-121894271D01*
X109614285Y-121894271D02*
X109571428Y-121851414D01*
X109571428Y-121851414D02*
X109528571Y-121765700D01*
X109528571Y-121765700D02*
X109528571Y-121679985D01*
X109528571Y-121679985D02*
X109571428Y-121594271D01*
X109571428Y-121594271D02*
X109614285Y-121551414D01*
X109614285Y-121551414D02*
X109700000Y-121508557D01*
X109700000Y-121508557D02*
X109914285Y-121508557D01*
X109914285Y-121508557D02*
X110042857Y-121551414D01*
X110428571Y-122408557D02*
X110428571Y-121508557D01*
X110428571Y-121508557D02*
X110942857Y-122408557D01*
X110942857Y-122408557D02*
X110942857Y-121508557D01*
X111371428Y-122408557D02*
X111371428Y-121508557D01*
X111371428Y-121508557D02*
X111585714Y-121508557D01*
X111585714Y-121508557D02*
X111714285Y-121551414D01*
X111714285Y-121551414D02*
X111800000Y-121637128D01*
X111800000Y-121637128D02*
X111842857Y-121722842D01*
X111842857Y-121722842D02*
X111885714Y-121894271D01*
X111885714Y-121894271D02*
X111885714Y-122022842D01*
X111885714Y-122022842D02*
X111842857Y-122194271D01*
X111842857Y-122194271D02*
X111800000Y-122279985D01*
X111800000Y-122279985D02*
X111714285Y-122365700D01*
X111714285Y-122365700D02*
X111585714Y-122408557D01*
X111585714Y-122408557D02*
X111371428Y-122408557D01*
X113257142Y-121937128D02*
X113385714Y-121979985D01*
X113385714Y-121979985D02*
X113428571Y-122022842D01*
X113428571Y-122022842D02*
X113471428Y-122108557D01*
X113471428Y-122108557D02*
X113471428Y-122237128D01*
X113471428Y-122237128D02*
X113428571Y-122322842D01*
X113428571Y-122322842D02*
X113385714Y-122365700D01*
X113385714Y-122365700D02*
X113299999Y-122408557D01*
X113299999Y-122408557D02*
X112957142Y-122408557D01*
X112957142Y-122408557D02*
X112957142Y-121508557D01*
X112957142Y-121508557D02*
X113257142Y-121508557D01*
X113257142Y-121508557D02*
X113342857Y-121551414D01*
X113342857Y-121551414D02*
X113385714Y-121594271D01*
X113385714Y-121594271D02*
X113428571Y-121679985D01*
X113428571Y-121679985D02*
X113428571Y-121765700D01*
X113428571Y-121765700D02*
X113385714Y-121851414D01*
X113385714Y-121851414D02*
X113342857Y-121894271D01*
X113342857Y-121894271D02*
X113257142Y-121937128D01*
X113257142Y-121937128D02*
X112957142Y-121937128D01*
X151064285Y-124508557D02*
X151064285Y-125237128D01*
X151064285Y-125237128D02*
X151107142Y-125322842D01*
X151107142Y-125322842D02*
X151150000Y-125365700D01*
X151150000Y-125365700D02*
X151235714Y-125408557D01*
X151235714Y-125408557D02*
X151407142Y-125408557D01*
X151407142Y-125408557D02*
X151492857Y-125365700D01*
X151492857Y-125365700D02*
X151535714Y-125322842D01*
X151535714Y-125322842D02*
X151578571Y-125237128D01*
X151578571Y-125237128D02*
X151578571Y-124508557D01*
X151964285Y-125365700D02*
X152092857Y-125408557D01*
X152092857Y-125408557D02*
X152307142Y-125408557D01*
X152307142Y-125408557D02*
X152392857Y-125365700D01*
X152392857Y-125365700D02*
X152435714Y-125322842D01*
X152435714Y-125322842D02*
X152478571Y-125237128D01*
X152478571Y-125237128D02*
X152478571Y-125151414D01*
X152478571Y-125151414D02*
X152435714Y-125065700D01*
X152435714Y-125065700D02*
X152392857Y-125022842D01*
X152392857Y-125022842D02*
X152307142Y-124979985D01*
X152307142Y-124979985D02*
X152135714Y-124937128D01*
X152135714Y-124937128D02*
X152049999Y-124894271D01*
X152049999Y-124894271D02*
X152007142Y-124851414D01*
X152007142Y-124851414D02*
X151964285Y-124765700D01*
X151964285Y-124765700D02*
X151964285Y-124679985D01*
X151964285Y-124679985D02*
X152007142Y-124594271D01*
X152007142Y-124594271D02*
X152049999Y-124551414D01*
X152049999Y-124551414D02*
X152135714Y-124508557D01*
X152135714Y-124508557D02*
X152349999Y-124508557D01*
X152349999Y-124508557D02*
X152478571Y-124551414D01*
X153164285Y-124937128D02*
X153292857Y-124979985D01*
X153292857Y-124979985D02*
X153335714Y-125022842D01*
X153335714Y-125022842D02*
X153378571Y-125108557D01*
X153378571Y-125108557D02*
X153378571Y-125237128D01*
X153378571Y-125237128D02*
X153335714Y-125322842D01*
X153335714Y-125322842D02*
X153292857Y-125365700D01*
X153292857Y-125365700D02*
X153207142Y-125408557D01*
X153207142Y-125408557D02*
X152864285Y-125408557D01*
X152864285Y-125408557D02*
X152864285Y-124508557D01*
X152864285Y-124508557D02*
X153164285Y-124508557D01*
X153164285Y-124508557D02*
X153250000Y-124551414D01*
X153250000Y-124551414D02*
X153292857Y-124594271D01*
X153292857Y-124594271D02*
X153335714Y-124679985D01*
X153335714Y-124679985D02*
X153335714Y-124765700D01*
X153335714Y-124765700D02*
X153292857Y-124851414D01*
X153292857Y-124851414D02*
X153250000Y-124894271D01*
X153250000Y-124894271D02*
X153164285Y-124937128D01*
X153164285Y-124937128D02*
X152864285Y-124937128D01*
X112380951Y-131254819D02*
X112380951Y-130254819D01*
X112952379Y-131254819D02*
X112523808Y-130683390D01*
X112952379Y-130254819D02*
X112380951Y-130826247D01*
X113333332Y-130969104D02*
X113809522Y-130969104D01*
X113238094Y-131254819D02*
X113571427Y-130254819D01*
X113571427Y-130254819D02*
X113904760Y-131254819D01*
X114714284Y-131254819D02*
X114238094Y-131254819D01*
X114238094Y-131254819D02*
X114238094Y-130254819D01*
X115047618Y-131254819D02*
X115047618Y-130254819D01*
X116142856Y-130254819D02*
X116714284Y-130254819D01*
X116428570Y-131254819D02*
X116428570Y-130254819D01*
X116999999Y-130969104D02*
X117476189Y-130969104D01*
X116904761Y-131254819D02*
X117238094Y-130254819D01*
X117238094Y-130254819D02*
X117571427Y-131254819D01*
X117904761Y-131254819D02*
X117904761Y-130254819D01*
X117904761Y-130254819D02*
X118476189Y-131254819D01*
X118476189Y-131254819D02*
X118476189Y-130254819D01*
X118952380Y-131254819D02*
X118952380Y-130254819D01*
X119523808Y-131254819D02*
X119095237Y-130683390D01*
X119523808Y-130254819D02*
X118952380Y-130826247D01*
X120666666Y-131207200D02*
X120809523Y-131254819D01*
X120809523Y-131254819D02*
X121047618Y-131254819D01*
X121047618Y-131254819D02*
X121142856Y-131207200D01*
X121142856Y-131207200D02*
X121190475Y-131159580D01*
X121190475Y-131159580D02*
X121238094Y-131064342D01*
X121238094Y-131064342D02*
X121238094Y-130969104D01*
X121238094Y-130969104D02*
X121190475Y-130873866D01*
X121190475Y-130873866D02*
X121142856Y-130826247D01*
X121142856Y-130826247D02*
X121047618Y-130778628D01*
X121047618Y-130778628D02*
X120857142Y-130731009D01*
X120857142Y-130731009D02*
X120761904Y-130683390D01*
X120761904Y-130683390D02*
X120714285Y-130635771D01*
X120714285Y-130635771D02*
X120666666Y-130540533D01*
X120666666Y-130540533D02*
X120666666Y-130445295D01*
X120666666Y-130445295D02*
X120714285Y-130350057D01*
X120714285Y-130350057D02*
X120761904Y-130302438D01*
X120761904Y-130302438D02*
X120857142Y-130254819D01*
X120857142Y-130254819D02*
X121095237Y-130254819D01*
X121095237Y-130254819D02*
X121238094Y-130302438D01*
X121666666Y-130731009D02*
X121999999Y-130731009D01*
X122142856Y-131254819D02*
X121666666Y-131254819D01*
X121666666Y-131254819D02*
X121666666Y-130254819D01*
X121666666Y-130254819D02*
X122142856Y-130254819D01*
X122571428Y-131254819D02*
X122571428Y-130254819D01*
X122571428Y-130254819D02*
X123142856Y-131254819D01*
X123142856Y-131254819D02*
X123142856Y-130254819D01*
X123571428Y-131207200D02*
X123714285Y-131254819D01*
X123714285Y-131254819D02*
X123952380Y-131254819D01*
X123952380Y-131254819D02*
X124047618Y-131207200D01*
X124047618Y-131207200D02*
X124095237Y-131159580D01*
X124095237Y-131159580D02*
X124142856Y-131064342D01*
X124142856Y-131064342D02*
X124142856Y-130969104D01*
X124142856Y-130969104D02*
X124095237Y-130873866D01*
X124095237Y-130873866D02*
X124047618Y-130826247D01*
X124047618Y-130826247D02*
X123952380Y-130778628D01*
X123952380Y-130778628D02*
X123761904Y-130731009D01*
X123761904Y-130731009D02*
X123666666Y-130683390D01*
X123666666Y-130683390D02*
X123619047Y-130635771D01*
X123619047Y-130635771D02*
X123571428Y-130540533D01*
X123571428Y-130540533D02*
X123571428Y-130445295D01*
X123571428Y-130445295D02*
X123619047Y-130350057D01*
X123619047Y-130350057D02*
X123666666Y-130302438D01*
X123666666Y-130302438D02*
X123761904Y-130254819D01*
X123761904Y-130254819D02*
X123999999Y-130254819D01*
X123999999Y-130254819D02*
X124142856Y-130302438D01*
X124761904Y-130254819D02*
X124952380Y-130254819D01*
X124952380Y-130254819D02*
X125047618Y-130302438D01*
X125047618Y-130302438D02*
X125142856Y-130397676D01*
X125142856Y-130397676D02*
X125190475Y-130588152D01*
X125190475Y-130588152D02*
X125190475Y-130921485D01*
X125190475Y-130921485D02*
X125142856Y-131111961D01*
X125142856Y-131111961D02*
X125047618Y-131207200D01*
X125047618Y-131207200D02*
X124952380Y-131254819D01*
X124952380Y-131254819D02*
X124761904Y-131254819D01*
X124761904Y-131254819D02*
X124666666Y-131207200D01*
X124666666Y-131207200D02*
X124571428Y-131111961D01*
X124571428Y-131111961D02*
X124523809Y-130921485D01*
X124523809Y-130921485D02*
X124523809Y-130588152D01*
X124523809Y-130588152D02*
X124571428Y-130397676D01*
X124571428Y-130397676D02*
X124666666Y-130302438D01*
X124666666Y-130302438D02*
X124761904Y-130254819D01*
X126190475Y-131254819D02*
X125857142Y-130778628D01*
X125619047Y-131254819D02*
X125619047Y-130254819D01*
X125619047Y-130254819D02*
X125999999Y-130254819D01*
X125999999Y-130254819D02*
X126095237Y-130302438D01*
X126095237Y-130302438D02*
X126142856Y-130350057D01*
X126142856Y-130350057D02*
X126190475Y-130445295D01*
X126190475Y-130445295D02*
X126190475Y-130588152D01*
X126190475Y-130588152D02*
X126142856Y-130683390D01*
X126142856Y-130683390D02*
X126095237Y-130731009D01*
X126095237Y-130731009D02*
X125999999Y-130778628D01*
X125999999Y-130778628D02*
X125619047Y-130778628D01*
X128142857Y-131254819D02*
X128142857Y-130588152D01*
X128142857Y-130778628D02*
X128190476Y-130683390D01*
X128190476Y-130683390D02*
X128238095Y-130635771D01*
X128238095Y-130635771D02*
X128333333Y-130588152D01*
X128333333Y-130588152D02*
X128428571Y-130588152D01*
X129142857Y-131207200D02*
X129047619Y-131254819D01*
X129047619Y-131254819D02*
X128857143Y-131254819D01*
X128857143Y-131254819D02*
X128761905Y-131207200D01*
X128761905Y-131207200D02*
X128714286Y-131111961D01*
X128714286Y-131111961D02*
X128714286Y-130731009D01*
X128714286Y-130731009D02*
X128761905Y-130635771D01*
X128761905Y-130635771D02*
X128857143Y-130588152D01*
X128857143Y-130588152D02*
X129047619Y-130588152D01*
X129047619Y-130588152D02*
X129142857Y-130635771D01*
X129142857Y-130635771D02*
X129190476Y-130731009D01*
X129190476Y-130731009D02*
X129190476Y-130826247D01*
X129190476Y-130826247D02*
X128714286Y-130921485D01*
X129523810Y-130588152D02*
X129761905Y-131254819D01*
X129761905Y-131254819D02*
X130000000Y-130588152D01*
X131047620Y-130254819D02*
X131666667Y-130254819D01*
X131666667Y-130254819D02*
X131333334Y-130635771D01*
X131333334Y-130635771D02*
X131476191Y-130635771D01*
X131476191Y-130635771D02*
X131571429Y-130683390D01*
X131571429Y-130683390D02*
X131619048Y-130731009D01*
X131619048Y-130731009D02*
X131666667Y-130826247D01*
X131666667Y-130826247D02*
X131666667Y-131064342D01*
X131666667Y-131064342D02*
X131619048Y-131159580D01*
X131619048Y-131159580D02*
X131571429Y-131207200D01*
X131571429Y-131207200D02*
X131476191Y-131254819D01*
X131476191Y-131254819D02*
X131190477Y-131254819D01*
X131190477Y-131254819D02*
X131095239Y-131207200D01*
X131095239Y-131207200D02*
X131047620Y-131159580D01*
D11*
X117923809Y-114240045D02*
X117847619Y-114201950D01*
X117847619Y-114201950D02*
X117771428Y-114125760D01*
X117771428Y-114125760D02*
X117657142Y-114011474D01*
X117657142Y-114011474D02*
X117580952Y-113973379D01*
X117580952Y-113973379D02*
X117504761Y-113973379D01*
X117542857Y-114163855D02*
X117466666Y-114125760D01*
X117466666Y-114125760D02*
X117390476Y-114049569D01*
X117390476Y-114049569D02*
X117352380Y-113897188D01*
X117352380Y-113897188D02*
X117352380Y-113630521D01*
X117352380Y-113630521D02*
X117390476Y-113478140D01*
X117390476Y-113478140D02*
X117466666Y-113401950D01*
X117466666Y-113401950D02*
X117542857Y-113363855D01*
X117542857Y-113363855D02*
X117695238Y-113363855D01*
X117695238Y-113363855D02*
X117771428Y-113401950D01*
X117771428Y-113401950D02*
X117847619Y-113478140D01*
X117847619Y-113478140D02*
X117885714Y-113630521D01*
X117885714Y-113630521D02*
X117885714Y-113897188D01*
X117885714Y-113897188D02*
X117847619Y-114049569D01*
X117847619Y-114049569D02*
X117771428Y-114125760D01*
X117771428Y-114125760D02*
X117695238Y-114163855D01*
X117695238Y-114163855D02*
X117542857Y-114163855D01*
X118647618Y-114163855D02*
X118190475Y-114163855D01*
X118419047Y-114163855D02*
X118419047Y-113363855D01*
X118419047Y-113363855D02*
X118342856Y-113478140D01*
X118342856Y-113478140D02*
X118266666Y-113554331D01*
X118266666Y-113554331D02*
X118190475Y-113592426D01*
X128866667Y-85087664D02*
X128828571Y-85125760D01*
X128828571Y-85125760D02*
X128714286Y-85163855D01*
X128714286Y-85163855D02*
X128638095Y-85163855D01*
X128638095Y-85163855D02*
X128523809Y-85125760D01*
X128523809Y-85125760D02*
X128447619Y-85049569D01*
X128447619Y-85049569D02*
X128409524Y-84973379D01*
X128409524Y-84973379D02*
X128371428Y-84820998D01*
X128371428Y-84820998D02*
X128371428Y-84706712D01*
X128371428Y-84706712D02*
X128409524Y-84554331D01*
X128409524Y-84554331D02*
X128447619Y-84478140D01*
X128447619Y-84478140D02*
X128523809Y-84401950D01*
X128523809Y-84401950D02*
X128638095Y-84363855D01*
X128638095Y-84363855D02*
X128714286Y-84363855D01*
X128714286Y-84363855D02*
X128828571Y-84401950D01*
X128828571Y-84401950D02*
X128866667Y-84440045D01*
X129552381Y-84630521D02*
X129552381Y-85163855D01*
X129361905Y-84325760D02*
X129171428Y-84897188D01*
X129171428Y-84897188D02*
X129666667Y-84897188D01*
X125866667Y-114163855D02*
X125600000Y-113782902D01*
X125409524Y-114163855D02*
X125409524Y-113363855D01*
X125409524Y-113363855D02*
X125714286Y-113363855D01*
X125714286Y-113363855D02*
X125790476Y-113401950D01*
X125790476Y-113401950D02*
X125828571Y-113440045D01*
X125828571Y-113440045D02*
X125866667Y-113516236D01*
X125866667Y-113516236D02*
X125866667Y-113630521D01*
X125866667Y-113630521D02*
X125828571Y-113706712D01*
X125828571Y-113706712D02*
X125790476Y-113744807D01*
X125790476Y-113744807D02*
X125714286Y-113782902D01*
X125714286Y-113782902D02*
X125409524Y-113782902D01*
X126552381Y-113363855D02*
X126400000Y-113363855D01*
X126400000Y-113363855D02*
X126323809Y-113401950D01*
X126323809Y-113401950D02*
X126285714Y-113440045D01*
X126285714Y-113440045D02*
X126209524Y-113554331D01*
X126209524Y-113554331D02*
X126171428Y-113706712D01*
X126171428Y-113706712D02*
X126171428Y-114011474D01*
X126171428Y-114011474D02*
X126209524Y-114087664D01*
X126209524Y-114087664D02*
X126247619Y-114125760D01*
X126247619Y-114125760D02*
X126323809Y-114163855D01*
X126323809Y-114163855D02*
X126476190Y-114163855D01*
X126476190Y-114163855D02*
X126552381Y-114125760D01*
X126552381Y-114125760D02*
X126590476Y-114087664D01*
X126590476Y-114087664D02*
X126628571Y-114011474D01*
X126628571Y-114011474D02*
X126628571Y-113820998D01*
X126628571Y-113820998D02*
X126590476Y-113744807D01*
X126590476Y-113744807D02*
X126552381Y-113706712D01*
X126552381Y-113706712D02*
X126476190Y-113668617D01*
X126476190Y-113668617D02*
X126323809Y-113668617D01*
X126323809Y-113668617D02*
X126247619Y-113706712D01*
X126247619Y-113706712D02*
X126209524Y-113744807D01*
X126209524Y-113744807D02*
X126171428Y-113820998D01*
X125866667Y-109087664D02*
X125828571Y-109125760D01*
X125828571Y-109125760D02*
X125714286Y-109163855D01*
X125714286Y-109163855D02*
X125638095Y-109163855D01*
X125638095Y-109163855D02*
X125523809Y-109125760D01*
X125523809Y-109125760D02*
X125447619Y-109049569D01*
X125447619Y-109049569D02*
X125409524Y-108973379D01*
X125409524Y-108973379D02*
X125371428Y-108820998D01*
X125371428Y-108820998D02*
X125371428Y-108706712D01*
X125371428Y-108706712D02*
X125409524Y-108554331D01*
X125409524Y-108554331D02*
X125447619Y-108478140D01*
X125447619Y-108478140D02*
X125523809Y-108401950D01*
X125523809Y-108401950D02*
X125638095Y-108363855D01*
X125638095Y-108363855D02*
X125714286Y-108363855D01*
X125714286Y-108363855D02*
X125828571Y-108401950D01*
X125828571Y-108401950D02*
X125866667Y-108440045D01*
X126628571Y-109163855D02*
X126171428Y-109163855D01*
X126400000Y-109163855D02*
X126400000Y-108363855D01*
X126400000Y-108363855D02*
X126323809Y-108478140D01*
X126323809Y-108478140D02*
X126247619Y-108554331D01*
X126247619Y-108554331D02*
X126171428Y-108592426D01*
X117866667Y-103163855D02*
X117600000Y-102782902D01*
X117409524Y-103163855D02*
X117409524Y-102363855D01*
X117409524Y-102363855D02*
X117714286Y-102363855D01*
X117714286Y-102363855D02*
X117790476Y-102401950D01*
X117790476Y-102401950D02*
X117828571Y-102440045D01*
X117828571Y-102440045D02*
X117866667Y-102516236D01*
X117866667Y-102516236D02*
X117866667Y-102630521D01*
X117866667Y-102630521D02*
X117828571Y-102706712D01*
X117828571Y-102706712D02*
X117790476Y-102744807D01*
X117790476Y-102744807D02*
X117714286Y-102782902D01*
X117714286Y-102782902D02*
X117409524Y-102782902D01*
X118628571Y-103163855D02*
X118171428Y-103163855D01*
X118400000Y-103163855D02*
X118400000Y-102363855D01*
X118400000Y-102363855D02*
X118323809Y-102478140D01*
X118323809Y-102478140D02*
X118247619Y-102554331D01*
X118247619Y-102554331D02*
X118171428Y-102592426D01*
X121409524Y-91163855D02*
X121409524Y-90363855D01*
X121409524Y-90363855D02*
X121600000Y-90363855D01*
X121600000Y-90363855D02*
X121714286Y-90401950D01*
X121714286Y-90401950D02*
X121790476Y-90478140D01*
X121790476Y-90478140D02*
X121828571Y-90554331D01*
X121828571Y-90554331D02*
X121866667Y-90706712D01*
X121866667Y-90706712D02*
X121866667Y-90820998D01*
X121866667Y-90820998D02*
X121828571Y-90973379D01*
X121828571Y-90973379D02*
X121790476Y-91049569D01*
X121790476Y-91049569D02*
X121714286Y-91125760D01*
X121714286Y-91125760D02*
X121600000Y-91163855D01*
X121600000Y-91163855D02*
X121409524Y-91163855D01*
X122171428Y-90440045D02*
X122209524Y-90401950D01*
X122209524Y-90401950D02*
X122285714Y-90363855D01*
X122285714Y-90363855D02*
X122476190Y-90363855D01*
X122476190Y-90363855D02*
X122552381Y-90401950D01*
X122552381Y-90401950D02*
X122590476Y-90440045D01*
X122590476Y-90440045D02*
X122628571Y-90516236D01*
X122628571Y-90516236D02*
X122628571Y-90592426D01*
X122628571Y-90592426D02*
X122590476Y-90706712D01*
X122590476Y-90706712D02*
X122133333Y-91163855D01*
X122133333Y-91163855D02*
X122628571Y-91163855D01*
X105733333Y-119363855D02*
X105733333Y-119935283D01*
X105733333Y-119935283D02*
X105695238Y-120049569D01*
X105695238Y-120049569D02*
X105619047Y-120125760D01*
X105619047Y-120125760D02*
X105504762Y-120163855D01*
X105504762Y-120163855D02*
X105428571Y-120163855D01*
X106457143Y-119630521D02*
X106457143Y-120163855D01*
X106266667Y-119325760D02*
X106076190Y-119897188D01*
X106076190Y-119897188D02*
X106571429Y-119897188D01*
X111366667Y-114163855D02*
X111100000Y-113782902D01*
X110909524Y-114163855D02*
X110909524Y-113363855D01*
X110909524Y-113363855D02*
X111214286Y-113363855D01*
X111214286Y-113363855D02*
X111290476Y-113401950D01*
X111290476Y-113401950D02*
X111328571Y-113440045D01*
X111328571Y-113440045D02*
X111366667Y-113516236D01*
X111366667Y-113516236D02*
X111366667Y-113630521D01*
X111366667Y-113630521D02*
X111328571Y-113706712D01*
X111328571Y-113706712D02*
X111290476Y-113744807D01*
X111290476Y-113744807D02*
X111214286Y-113782902D01*
X111214286Y-113782902D02*
X110909524Y-113782902D01*
X111633333Y-113363855D02*
X112128571Y-113363855D01*
X112128571Y-113363855D02*
X111861905Y-113668617D01*
X111861905Y-113668617D02*
X111976190Y-113668617D01*
X111976190Y-113668617D02*
X112052381Y-113706712D01*
X112052381Y-113706712D02*
X112090476Y-113744807D01*
X112090476Y-113744807D02*
X112128571Y-113820998D01*
X112128571Y-113820998D02*
X112128571Y-114011474D01*
X112128571Y-114011474D02*
X112090476Y-114087664D01*
X112090476Y-114087664D02*
X112052381Y-114125760D01*
X112052381Y-114125760D02*
X111976190Y-114163855D01*
X111976190Y-114163855D02*
X111747619Y-114163855D01*
X111747619Y-114163855D02*
X111671428Y-114125760D01*
X111671428Y-114125760D02*
X111633333Y-114087664D01*
X141390476Y-88563855D02*
X141390476Y-89211474D01*
X141390476Y-89211474D02*
X141428571Y-89287664D01*
X141428571Y-89287664D02*
X141466666Y-89325760D01*
X141466666Y-89325760D02*
X141542857Y-89363855D01*
X141542857Y-89363855D02*
X141695238Y-89363855D01*
X141695238Y-89363855D02*
X141771428Y-89325760D01*
X141771428Y-89325760D02*
X141809523Y-89287664D01*
X141809523Y-89287664D02*
X141847619Y-89211474D01*
X141847619Y-89211474D02*
X141847619Y-88563855D01*
X142152380Y-88563855D02*
X142647618Y-88563855D01*
X142647618Y-88563855D02*
X142380952Y-88868617D01*
X142380952Y-88868617D02*
X142495237Y-88868617D01*
X142495237Y-88868617D02*
X142571428Y-88906712D01*
X142571428Y-88906712D02*
X142609523Y-88944807D01*
X142609523Y-88944807D02*
X142647618Y-89020998D01*
X142647618Y-89020998D02*
X142647618Y-89211474D01*
X142647618Y-89211474D02*
X142609523Y-89287664D01*
X142609523Y-89287664D02*
X142571428Y-89325760D01*
X142571428Y-89325760D02*
X142495237Y-89363855D01*
X142495237Y-89363855D02*
X142266666Y-89363855D01*
X142266666Y-89363855D02*
X142190475Y-89325760D01*
X142190475Y-89325760D02*
X142152380Y-89287664D01*
X132960715Y-82763855D02*
X132960715Y-81963855D01*
X133341667Y-82763855D02*
X133341667Y-81963855D01*
X133341667Y-81963855D02*
X133798810Y-82763855D01*
X133798810Y-82763855D02*
X133798810Y-81963855D01*
X134179762Y-82459093D02*
X134789286Y-82459093D01*
X132960715Y-95963855D02*
X132960715Y-95163855D01*
X133341667Y-95963855D02*
X133341667Y-95163855D01*
X133341667Y-95163855D02*
X133798810Y-95963855D01*
X133798810Y-95963855D02*
X133798810Y-95163855D01*
X134179762Y-95659093D02*
X134789286Y-95659093D01*
X134484524Y-95963855D02*
X134484524Y-95354331D01*
X137928571Y-89710117D02*
X137928571Y-88810117D01*
X138357142Y-89710117D02*
X138357142Y-88810117D01*
X138357142Y-88810117D02*
X138871428Y-89710117D01*
X138871428Y-89710117D02*
X138871428Y-88810117D01*
X141009523Y-86363855D02*
X141504761Y-86363855D01*
X141504761Y-86363855D02*
X141238095Y-86668617D01*
X141238095Y-86668617D02*
X141352380Y-86668617D01*
X141352380Y-86668617D02*
X141428571Y-86706712D01*
X141428571Y-86706712D02*
X141466666Y-86744807D01*
X141466666Y-86744807D02*
X141504761Y-86820998D01*
X141504761Y-86820998D02*
X141504761Y-87011474D01*
X141504761Y-87011474D02*
X141466666Y-87087664D01*
X141466666Y-87087664D02*
X141428571Y-87125760D01*
X141428571Y-87125760D02*
X141352380Y-87163855D01*
X141352380Y-87163855D02*
X141123809Y-87163855D01*
X141123809Y-87163855D02*
X141047618Y-87125760D01*
X141047618Y-87125760D02*
X141009523Y-87087664D01*
X141733333Y-86363855D02*
X142000000Y-87163855D01*
X142000000Y-87163855D02*
X142266666Y-86363855D01*
X142457142Y-86363855D02*
X142952380Y-86363855D01*
X142952380Y-86363855D02*
X142685714Y-86668617D01*
X142685714Y-86668617D02*
X142799999Y-86668617D01*
X142799999Y-86668617D02*
X142876190Y-86706712D01*
X142876190Y-86706712D02*
X142914285Y-86744807D01*
X142914285Y-86744807D02*
X142952380Y-86820998D01*
X142952380Y-86820998D02*
X142952380Y-87011474D01*
X142952380Y-87011474D02*
X142914285Y-87087664D01*
X142914285Y-87087664D02*
X142876190Y-87125760D01*
X142876190Y-87125760D02*
X142799999Y-87163855D01*
X142799999Y-87163855D02*
X142571428Y-87163855D01*
X142571428Y-87163855D02*
X142495237Y-87125760D01*
X142495237Y-87125760D02*
X142457142Y-87087664D01*
X145000000Y-88810117D02*
X145171428Y-88810117D01*
X145171428Y-88810117D02*
X145257143Y-88852974D01*
X145257143Y-88852974D02*
X145342857Y-88938688D01*
X145342857Y-88938688D02*
X145385714Y-89110117D01*
X145385714Y-89110117D02*
X145385714Y-89410117D01*
X145385714Y-89410117D02*
X145342857Y-89581545D01*
X145342857Y-89581545D02*
X145257143Y-89667260D01*
X145257143Y-89667260D02*
X145171428Y-89710117D01*
X145171428Y-89710117D02*
X145000000Y-89710117D01*
X145000000Y-89710117D02*
X144914286Y-89667260D01*
X144914286Y-89667260D02*
X144828571Y-89581545D01*
X144828571Y-89581545D02*
X144785714Y-89410117D01*
X144785714Y-89410117D02*
X144785714Y-89110117D01*
X144785714Y-89110117D02*
X144828571Y-88938688D01*
X144828571Y-88938688D02*
X144914286Y-88852974D01*
X144914286Y-88852974D02*
X145000000Y-88810117D01*
X145771428Y-88810117D02*
X145771428Y-89538688D01*
X145771428Y-89538688D02*
X145814285Y-89624402D01*
X145814285Y-89624402D02*
X145857143Y-89667260D01*
X145857143Y-89667260D02*
X145942857Y-89710117D01*
X145942857Y-89710117D02*
X146114285Y-89710117D01*
X146114285Y-89710117D02*
X146200000Y-89667260D01*
X146200000Y-89667260D02*
X146242857Y-89624402D01*
X146242857Y-89624402D02*
X146285714Y-89538688D01*
X146285714Y-89538688D02*
X146285714Y-88810117D01*
X146585714Y-88810117D02*
X147100000Y-88810117D01*
X146842857Y-89710117D02*
X146842857Y-88810117D01*
X148829762Y-81963855D02*
X148982143Y-81963855D01*
X148982143Y-81963855D02*
X149058333Y-82001950D01*
X149058333Y-82001950D02*
X149134524Y-82078140D01*
X149134524Y-82078140D02*
X149172619Y-82230521D01*
X149172619Y-82230521D02*
X149172619Y-82497188D01*
X149172619Y-82497188D02*
X149134524Y-82649569D01*
X149134524Y-82649569D02*
X149058333Y-82725760D01*
X149058333Y-82725760D02*
X148982143Y-82763855D01*
X148982143Y-82763855D02*
X148829762Y-82763855D01*
X148829762Y-82763855D02*
X148753571Y-82725760D01*
X148753571Y-82725760D02*
X148677381Y-82649569D01*
X148677381Y-82649569D02*
X148639285Y-82497188D01*
X148639285Y-82497188D02*
X148639285Y-82230521D01*
X148639285Y-82230521D02*
X148677381Y-82078140D01*
X148677381Y-82078140D02*
X148753571Y-82001950D01*
X148753571Y-82001950D02*
X148829762Y-81963855D01*
X149515476Y-81963855D02*
X149515476Y-82611474D01*
X149515476Y-82611474D02*
X149553571Y-82687664D01*
X149553571Y-82687664D02*
X149591666Y-82725760D01*
X149591666Y-82725760D02*
X149667857Y-82763855D01*
X149667857Y-82763855D02*
X149820238Y-82763855D01*
X149820238Y-82763855D02*
X149896428Y-82725760D01*
X149896428Y-82725760D02*
X149934523Y-82687664D01*
X149934523Y-82687664D02*
X149972619Y-82611474D01*
X149972619Y-82611474D02*
X149972619Y-81963855D01*
X150239285Y-81963855D02*
X150696428Y-81963855D01*
X150467856Y-82763855D02*
X150467856Y-81963855D01*
X150963095Y-82459093D02*
X151572619Y-82459093D01*
X148829762Y-95163855D02*
X148982143Y-95163855D01*
X148982143Y-95163855D02*
X149058333Y-95201950D01*
X149058333Y-95201950D02*
X149134524Y-95278140D01*
X149134524Y-95278140D02*
X149172619Y-95430521D01*
X149172619Y-95430521D02*
X149172619Y-95697188D01*
X149172619Y-95697188D02*
X149134524Y-95849569D01*
X149134524Y-95849569D02*
X149058333Y-95925760D01*
X149058333Y-95925760D02*
X148982143Y-95963855D01*
X148982143Y-95963855D02*
X148829762Y-95963855D01*
X148829762Y-95963855D02*
X148753571Y-95925760D01*
X148753571Y-95925760D02*
X148677381Y-95849569D01*
X148677381Y-95849569D02*
X148639285Y-95697188D01*
X148639285Y-95697188D02*
X148639285Y-95430521D01*
X148639285Y-95430521D02*
X148677381Y-95278140D01*
X148677381Y-95278140D02*
X148753571Y-95201950D01*
X148753571Y-95201950D02*
X148829762Y-95163855D01*
X149515476Y-95163855D02*
X149515476Y-95811474D01*
X149515476Y-95811474D02*
X149553571Y-95887664D01*
X149553571Y-95887664D02*
X149591666Y-95925760D01*
X149591666Y-95925760D02*
X149667857Y-95963855D01*
X149667857Y-95963855D02*
X149820238Y-95963855D01*
X149820238Y-95963855D02*
X149896428Y-95925760D01*
X149896428Y-95925760D02*
X149934523Y-95887664D01*
X149934523Y-95887664D02*
X149972619Y-95811474D01*
X149972619Y-95811474D02*
X149972619Y-95163855D01*
X150239285Y-95163855D02*
X150696428Y-95163855D01*
X150467856Y-95963855D02*
X150467856Y-95163855D01*
X150963095Y-95659093D02*
X151572619Y-95659093D01*
X151267857Y-95963855D02*
X151267857Y-95354331D01*
X130366667Y-126087664D02*
X130328571Y-126125760D01*
X130328571Y-126125760D02*
X130214286Y-126163855D01*
X130214286Y-126163855D02*
X130138095Y-126163855D01*
X130138095Y-126163855D02*
X130023809Y-126125760D01*
X130023809Y-126125760D02*
X129947619Y-126049569D01*
X129947619Y-126049569D02*
X129909524Y-125973379D01*
X129909524Y-125973379D02*
X129871428Y-125820998D01*
X129871428Y-125820998D02*
X129871428Y-125706712D01*
X129871428Y-125706712D02*
X129909524Y-125554331D01*
X129909524Y-125554331D02*
X129947619Y-125478140D01*
X129947619Y-125478140D02*
X130023809Y-125401950D01*
X130023809Y-125401950D02*
X130138095Y-125363855D01*
X130138095Y-125363855D02*
X130214286Y-125363855D01*
X130214286Y-125363855D02*
X130328571Y-125401950D01*
X130328571Y-125401950D02*
X130366667Y-125440045D01*
X130671428Y-125440045D02*
X130709524Y-125401950D01*
X130709524Y-125401950D02*
X130785714Y-125363855D01*
X130785714Y-125363855D02*
X130976190Y-125363855D01*
X130976190Y-125363855D02*
X131052381Y-125401950D01*
X131052381Y-125401950D02*
X131090476Y-125440045D01*
X131090476Y-125440045D02*
X131128571Y-125516236D01*
X131128571Y-125516236D02*
X131128571Y-125592426D01*
X131128571Y-125592426D02*
X131090476Y-125706712D01*
X131090476Y-125706712D02*
X130633333Y-126163855D01*
X130633333Y-126163855D02*
X131128571Y-126163855D01*
X125866667Y-118163855D02*
X125600000Y-117782902D01*
X125409524Y-118163855D02*
X125409524Y-117363855D01*
X125409524Y-117363855D02*
X125714286Y-117363855D01*
X125714286Y-117363855D02*
X125790476Y-117401950D01*
X125790476Y-117401950D02*
X125828571Y-117440045D01*
X125828571Y-117440045D02*
X125866667Y-117516236D01*
X125866667Y-117516236D02*
X125866667Y-117630521D01*
X125866667Y-117630521D02*
X125828571Y-117706712D01*
X125828571Y-117706712D02*
X125790476Y-117744807D01*
X125790476Y-117744807D02*
X125714286Y-117782902D01*
X125714286Y-117782902D02*
X125409524Y-117782902D01*
X126590476Y-117363855D02*
X126209524Y-117363855D01*
X126209524Y-117363855D02*
X126171428Y-117744807D01*
X126171428Y-117744807D02*
X126209524Y-117706712D01*
X126209524Y-117706712D02*
X126285714Y-117668617D01*
X126285714Y-117668617D02*
X126476190Y-117668617D01*
X126476190Y-117668617D02*
X126552381Y-117706712D01*
X126552381Y-117706712D02*
X126590476Y-117744807D01*
X126590476Y-117744807D02*
X126628571Y-117820998D01*
X126628571Y-117820998D02*
X126628571Y-118011474D01*
X126628571Y-118011474D02*
X126590476Y-118087664D01*
X126590476Y-118087664D02*
X126552381Y-118125760D01*
X126552381Y-118125760D02*
X126476190Y-118163855D01*
X126476190Y-118163855D02*
X126285714Y-118163855D01*
X126285714Y-118163855D02*
X126209524Y-118125760D01*
X126209524Y-118125760D02*
X126171428Y-118087664D01*
X105733333Y-107363855D02*
X105733333Y-107935283D01*
X105733333Y-107935283D02*
X105695238Y-108049569D01*
X105695238Y-108049569D02*
X105619047Y-108125760D01*
X105619047Y-108125760D02*
X105504762Y-108163855D01*
X105504762Y-108163855D02*
X105428571Y-108163855D01*
X106038095Y-107363855D02*
X106533333Y-107363855D01*
X106533333Y-107363855D02*
X106266667Y-107668617D01*
X106266667Y-107668617D02*
X106380952Y-107668617D01*
X106380952Y-107668617D02*
X106457143Y-107706712D01*
X106457143Y-107706712D02*
X106495238Y-107744807D01*
X106495238Y-107744807D02*
X106533333Y-107820998D01*
X106533333Y-107820998D02*
X106533333Y-108011474D01*
X106533333Y-108011474D02*
X106495238Y-108087664D01*
X106495238Y-108087664D02*
X106457143Y-108125760D01*
X106457143Y-108125760D02*
X106380952Y-108163855D01*
X106380952Y-108163855D02*
X106152381Y-108163855D01*
X106152381Y-108163855D02*
X106076190Y-108125760D01*
X106076190Y-108125760D02*
X106038095Y-108087664D01*
X142436144Y-111390476D02*
X141788525Y-111390476D01*
X141788525Y-111390476D02*
X141712335Y-111428571D01*
X141712335Y-111428571D02*
X141674240Y-111466666D01*
X141674240Y-111466666D02*
X141636144Y-111542857D01*
X141636144Y-111542857D02*
X141636144Y-111695238D01*
X141636144Y-111695238D02*
X141674240Y-111771428D01*
X141674240Y-111771428D02*
X141712335Y-111809523D01*
X141712335Y-111809523D02*
X141788525Y-111847619D01*
X141788525Y-111847619D02*
X142436144Y-111847619D01*
X141636144Y-112647618D02*
X141636144Y-112190475D01*
X141636144Y-112419047D02*
X142436144Y-112419047D01*
X142436144Y-112419047D02*
X142321859Y-112342856D01*
X142321859Y-112342856D02*
X142245668Y-112266666D01*
X142245668Y-112266666D02*
X142207573Y-112190475D01*
X129663855Y-116704762D02*
X130463855Y-116171428D01*
X129663855Y-116171428D02*
X130463855Y-116704762D01*
X130463855Y-115866666D02*
X129663855Y-115866666D01*
X130235283Y-115523810D02*
X130235283Y-115142857D01*
X130463855Y-115600000D02*
X129663855Y-115333333D01*
X129663855Y-115333333D02*
X130463855Y-115066667D01*
X129663855Y-114647619D02*
X129663855Y-114495238D01*
X129663855Y-114495238D02*
X129701950Y-114419048D01*
X129701950Y-114419048D02*
X129778140Y-114342857D01*
X129778140Y-114342857D02*
X129930521Y-114304762D01*
X129930521Y-114304762D02*
X130197188Y-114304762D01*
X130197188Y-114304762D02*
X130349569Y-114342857D01*
X130349569Y-114342857D02*
X130425760Y-114419048D01*
X130425760Y-114419048D02*
X130463855Y-114495238D01*
X130463855Y-114495238D02*
X130463855Y-114647619D01*
X130463855Y-114647619D02*
X130425760Y-114723810D01*
X130425760Y-114723810D02*
X130349569Y-114800000D01*
X130349569Y-114800000D02*
X130197188Y-114838096D01*
X130197188Y-114838096D02*
X129930521Y-114838096D01*
X129930521Y-114838096D02*
X129778140Y-114800000D01*
X129778140Y-114800000D02*
X129701950Y-114723810D01*
X129701950Y-114723810D02*
X129663855Y-114647619D01*
X130044807Y-113352381D02*
X130044807Y-113085715D01*
X130463855Y-112971429D02*
X130463855Y-113352381D01*
X130463855Y-113352381D02*
X129663855Y-113352381D01*
X129663855Y-113352381D02*
X129663855Y-112971429D01*
X130425760Y-112666667D02*
X130463855Y-112552381D01*
X130463855Y-112552381D02*
X130463855Y-112361905D01*
X130463855Y-112361905D02*
X130425760Y-112285714D01*
X130425760Y-112285714D02*
X130387664Y-112247619D01*
X130387664Y-112247619D02*
X130311474Y-112209524D01*
X130311474Y-112209524D02*
X130235283Y-112209524D01*
X130235283Y-112209524D02*
X130159093Y-112247619D01*
X130159093Y-112247619D02*
X130120998Y-112285714D01*
X130120998Y-112285714D02*
X130082902Y-112361905D01*
X130082902Y-112361905D02*
X130044807Y-112514286D01*
X130044807Y-112514286D02*
X130006712Y-112590476D01*
X130006712Y-112590476D02*
X129968617Y-112628571D01*
X129968617Y-112628571D02*
X129892426Y-112666667D01*
X129892426Y-112666667D02*
X129816236Y-112666667D01*
X129816236Y-112666667D02*
X129740045Y-112628571D01*
X129740045Y-112628571D02*
X129701950Y-112590476D01*
X129701950Y-112590476D02*
X129663855Y-112514286D01*
X129663855Y-112514286D02*
X129663855Y-112323809D01*
X129663855Y-112323809D02*
X129701950Y-112209524D01*
X130463855Y-111866666D02*
X129663855Y-111866666D01*
X129663855Y-111866666D02*
X129663855Y-111561904D01*
X129663855Y-111561904D02*
X129701950Y-111485714D01*
X129701950Y-111485714D02*
X129740045Y-111447619D01*
X129740045Y-111447619D02*
X129816236Y-111409523D01*
X129816236Y-111409523D02*
X129930521Y-111409523D01*
X129930521Y-111409523D02*
X130006712Y-111447619D01*
X130006712Y-111447619D02*
X130044807Y-111485714D01*
X130044807Y-111485714D02*
X130082902Y-111561904D01*
X130082902Y-111561904D02*
X130082902Y-111866666D01*
X129663855Y-111142857D02*
X129663855Y-110647619D01*
X129663855Y-110647619D02*
X129968617Y-110914285D01*
X129968617Y-110914285D02*
X129968617Y-110800000D01*
X129968617Y-110800000D02*
X130006712Y-110723809D01*
X130006712Y-110723809D02*
X130044807Y-110685714D01*
X130044807Y-110685714D02*
X130120998Y-110647619D01*
X130120998Y-110647619D02*
X130311474Y-110647619D01*
X130311474Y-110647619D02*
X130387664Y-110685714D01*
X130387664Y-110685714D02*
X130425760Y-110723809D01*
X130425760Y-110723809D02*
X130463855Y-110800000D01*
X130463855Y-110800000D02*
X130463855Y-111028571D01*
X130463855Y-111028571D02*
X130425760Y-111104762D01*
X130425760Y-111104762D02*
X130387664Y-111142857D01*
X129740045Y-110342857D02*
X129701950Y-110304761D01*
X129701950Y-110304761D02*
X129663855Y-110228571D01*
X129663855Y-110228571D02*
X129663855Y-110038095D01*
X129663855Y-110038095D02*
X129701950Y-109961904D01*
X129701950Y-109961904D02*
X129740045Y-109923809D01*
X129740045Y-109923809D02*
X129816236Y-109885714D01*
X129816236Y-109885714D02*
X129892426Y-109885714D01*
X129892426Y-109885714D02*
X130006712Y-109923809D01*
X130006712Y-109923809D02*
X130463855Y-110380952D01*
X130463855Y-110380952D02*
X130463855Y-109885714D01*
X130159093Y-109542856D02*
X130159093Y-108933333D01*
X130387664Y-108095237D02*
X130425760Y-108133333D01*
X130425760Y-108133333D02*
X130463855Y-108247618D01*
X130463855Y-108247618D02*
X130463855Y-108323809D01*
X130463855Y-108323809D02*
X130425760Y-108438095D01*
X130425760Y-108438095D02*
X130349569Y-108514285D01*
X130349569Y-108514285D02*
X130273379Y-108552380D01*
X130273379Y-108552380D02*
X130120998Y-108590476D01*
X130120998Y-108590476D02*
X130006712Y-108590476D01*
X130006712Y-108590476D02*
X129854331Y-108552380D01*
X129854331Y-108552380D02*
X129778140Y-108514285D01*
X129778140Y-108514285D02*
X129701950Y-108438095D01*
X129701950Y-108438095D02*
X129663855Y-108323809D01*
X129663855Y-108323809D02*
X129663855Y-108247618D01*
X129663855Y-108247618D02*
X129701950Y-108133333D01*
X129701950Y-108133333D02*
X129740045Y-108095237D01*
X129663855Y-107828571D02*
X129663855Y-107333333D01*
X129663855Y-107333333D02*
X129968617Y-107599999D01*
X129968617Y-107599999D02*
X129968617Y-107485714D01*
X129968617Y-107485714D02*
X130006712Y-107409523D01*
X130006712Y-107409523D02*
X130044807Y-107371428D01*
X130044807Y-107371428D02*
X130120998Y-107333333D01*
X130120998Y-107333333D02*
X130311474Y-107333333D01*
X130311474Y-107333333D02*
X130387664Y-107371428D01*
X130387664Y-107371428D02*
X130425760Y-107409523D01*
X130425760Y-107409523D02*
X130463855Y-107485714D01*
X130463855Y-107485714D02*
X130463855Y-107714285D01*
X130463855Y-107714285D02*
X130425760Y-107790476D01*
X130425760Y-107790476D02*
X130387664Y-107828571D01*
X134743855Y-100990475D02*
X133943855Y-100990475D01*
X133943855Y-100990475D02*
X133943855Y-100799999D01*
X133943855Y-100799999D02*
X133981950Y-100685713D01*
X133981950Y-100685713D02*
X134058140Y-100609523D01*
X134058140Y-100609523D02*
X134134331Y-100571428D01*
X134134331Y-100571428D02*
X134286712Y-100533332D01*
X134286712Y-100533332D02*
X134400998Y-100533332D01*
X134400998Y-100533332D02*
X134553379Y-100571428D01*
X134553379Y-100571428D02*
X134629569Y-100609523D01*
X134629569Y-100609523D02*
X134705760Y-100685713D01*
X134705760Y-100685713D02*
X134743855Y-100799999D01*
X134743855Y-100799999D02*
X134743855Y-100990475D01*
X133943855Y-99847618D02*
X133943855Y-99999999D01*
X133943855Y-99999999D02*
X133981950Y-100076190D01*
X133981950Y-100076190D02*
X134020045Y-100114285D01*
X134020045Y-100114285D02*
X134134331Y-100190475D01*
X134134331Y-100190475D02*
X134286712Y-100228571D01*
X134286712Y-100228571D02*
X134591474Y-100228571D01*
X134591474Y-100228571D02*
X134667664Y-100190475D01*
X134667664Y-100190475D02*
X134705760Y-100152380D01*
X134705760Y-100152380D02*
X134743855Y-100076190D01*
X134743855Y-100076190D02*
X134743855Y-99923809D01*
X134743855Y-99923809D02*
X134705760Y-99847618D01*
X134705760Y-99847618D02*
X134667664Y-99809523D01*
X134667664Y-99809523D02*
X134591474Y-99771428D01*
X134591474Y-99771428D02*
X134400998Y-99771428D01*
X134400998Y-99771428D02*
X134324807Y-99809523D01*
X134324807Y-99809523D02*
X134286712Y-99847618D01*
X134286712Y-99847618D02*
X134248617Y-99923809D01*
X134248617Y-99923809D02*
X134248617Y-100076190D01*
X134248617Y-100076190D02*
X134286712Y-100152380D01*
X134286712Y-100152380D02*
X134324807Y-100190475D01*
X134324807Y-100190475D02*
X134400998Y-100228571D01*
X134743855Y-124190475D02*
X133943855Y-124190475D01*
X133943855Y-124190475D02*
X133943855Y-123999999D01*
X133943855Y-123999999D02*
X133981950Y-123885713D01*
X133981950Y-123885713D02*
X134058140Y-123809523D01*
X134058140Y-123809523D02*
X134134331Y-123771428D01*
X134134331Y-123771428D02*
X134286712Y-123733332D01*
X134286712Y-123733332D02*
X134400998Y-123733332D01*
X134400998Y-123733332D02*
X134553379Y-123771428D01*
X134553379Y-123771428D02*
X134629569Y-123809523D01*
X134629569Y-123809523D02*
X134705760Y-123885713D01*
X134705760Y-123885713D02*
X134743855Y-123999999D01*
X134743855Y-123999999D02*
X134743855Y-124190475D01*
X133943855Y-123466666D02*
X133943855Y-122933332D01*
X133943855Y-122933332D02*
X134743855Y-123276190D01*
X137283855Y-100990475D02*
X136483855Y-100990475D01*
X136483855Y-100990475D02*
X136483855Y-100799999D01*
X136483855Y-100799999D02*
X136521950Y-100685713D01*
X136521950Y-100685713D02*
X136598140Y-100609523D01*
X136598140Y-100609523D02*
X136674331Y-100571428D01*
X136674331Y-100571428D02*
X136826712Y-100533332D01*
X136826712Y-100533332D02*
X136940998Y-100533332D01*
X136940998Y-100533332D02*
X137093379Y-100571428D01*
X137093379Y-100571428D02*
X137169569Y-100609523D01*
X137169569Y-100609523D02*
X137245760Y-100685713D01*
X137245760Y-100685713D02*
X137283855Y-100799999D01*
X137283855Y-100799999D02*
X137283855Y-100990475D01*
X136483855Y-99809523D02*
X136483855Y-100190475D01*
X136483855Y-100190475D02*
X136864807Y-100228571D01*
X136864807Y-100228571D02*
X136826712Y-100190475D01*
X136826712Y-100190475D02*
X136788617Y-100114285D01*
X136788617Y-100114285D02*
X136788617Y-99923809D01*
X136788617Y-99923809D02*
X136826712Y-99847618D01*
X136826712Y-99847618D02*
X136864807Y-99809523D01*
X136864807Y-99809523D02*
X136940998Y-99771428D01*
X136940998Y-99771428D02*
X137131474Y-99771428D01*
X137131474Y-99771428D02*
X137207664Y-99809523D01*
X137207664Y-99809523D02*
X137245760Y-99847618D01*
X137245760Y-99847618D02*
X137283855Y-99923809D01*
X137283855Y-99923809D02*
X137283855Y-100114285D01*
X137283855Y-100114285D02*
X137245760Y-100190475D01*
X137245760Y-100190475D02*
X137207664Y-100228571D01*
X137283855Y-124190475D02*
X136483855Y-124190475D01*
X136483855Y-124190475D02*
X136483855Y-123999999D01*
X136483855Y-123999999D02*
X136521950Y-123885713D01*
X136521950Y-123885713D02*
X136598140Y-123809523D01*
X136598140Y-123809523D02*
X136674331Y-123771428D01*
X136674331Y-123771428D02*
X136826712Y-123733332D01*
X136826712Y-123733332D02*
X136940998Y-123733332D01*
X136940998Y-123733332D02*
X137093379Y-123771428D01*
X137093379Y-123771428D02*
X137169569Y-123809523D01*
X137169569Y-123809523D02*
X137245760Y-123885713D01*
X137245760Y-123885713D02*
X137283855Y-123999999D01*
X137283855Y-123999999D02*
X137283855Y-124190475D01*
X136826712Y-123276190D02*
X136788617Y-123352380D01*
X136788617Y-123352380D02*
X136750521Y-123390475D01*
X136750521Y-123390475D02*
X136674331Y-123428571D01*
X136674331Y-123428571D02*
X136636236Y-123428571D01*
X136636236Y-123428571D02*
X136560045Y-123390475D01*
X136560045Y-123390475D02*
X136521950Y-123352380D01*
X136521950Y-123352380D02*
X136483855Y-123276190D01*
X136483855Y-123276190D02*
X136483855Y-123123809D01*
X136483855Y-123123809D02*
X136521950Y-123047618D01*
X136521950Y-123047618D02*
X136560045Y-123009523D01*
X136560045Y-123009523D02*
X136636236Y-122971428D01*
X136636236Y-122971428D02*
X136674331Y-122971428D01*
X136674331Y-122971428D02*
X136750521Y-123009523D01*
X136750521Y-123009523D02*
X136788617Y-123047618D01*
X136788617Y-123047618D02*
X136826712Y-123123809D01*
X136826712Y-123123809D02*
X136826712Y-123276190D01*
X136826712Y-123276190D02*
X136864807Y-123352380D01*
X136864807Y-123352380D02*
X136902902Y-123390475D01*
X136902902Y-123390475D02*
X136979093Y-123428571D01*
X136979093Y-123428571D02*
X137131474Y-123428571D01*
X137131474Y-123428571D02*
X137207664Y-123390475D01*
X137207664Y-123390475D02*
X137245760Y-123352380D01*
X137245760Y-123352380D02*
X137283855Y-123276190D01*
X137283855Y-123276190D02*
X137283855Y-123123809D01*
X137283855Y-123123809D02*
X137245760Y-123047618D01*
X137245760Y-123047618D02*
X137207664Y-123009523D01*
X137207664Y-123009523D02*
X137131474Y-122971428D01*
X137131474Y-122971428D02*
X136979093Y-122971428D01*
X136979093Y-122971428D02*
X136902902Y-123009523D01*
X136902902Y-123009523D02*
X136864807Y-123047618D01*
X136864807Y-123047618D02*
X136826712Y-123123809D01*
X139823855Y-100990475D02*
X139023855Y-100990475D01*
X139023855Y-100990475D02*
X139023855Y-100799999D01*
X139023855Y-100799999D02*
X139061950Y-100685713D01*
X139061950Y-100685713D02*
X139138140Y-100609523D01*
X139138140Y-100609523D02*
X139214331Y-100571428D01*
X139214331Y-100571428D02*
X139366712Y-100533332D01*
X139366712Y-100533332D02*
X139480998Y-100533332D01*
X139480998Y-100533332D02*
X139633379Y-100571428D01*
X139633379Y-100571428D02*
X139709569Y-100609523D01*
X139709569Y-100609523D02*
X139785760Y-100685713D01*
X139785760Y-100685713D02*
X139823855Y-100799999D01*
X139823855Y-100799999D02*
X139823855Y-100990475D01*
X139290521Y-99847618D02*
X139823855Y-99847618D01*
X138985760Y-100038094D02*
X139557188Y-100228571D01*
X139557188Y-100228571D02*
X139557188Y-99733332D01*
X139823855Y-124190475D02*
X139023855Y-124190475D01*
X139023855Y-124190475D02*
X139023855Y-123999999D01*
X139023855Y-123999999D02*
X139061950Y-123885713D01*
X139061950Y-123885713D02*
X139138140Y-123809523D01*
X139138140Y-123809523D02*
X139214331Y-123771428D01*
X139214331Y-123771428D02*
X139366712Y-123733332D01*
X139366712Y-123733332D02*
X139480998Y-123733332D01*
X139480998Y-123733332D02*
X139633379Y-123771428D01*
X139633379Y-123771428D02*
X139709569Y-123809523D01*
X139709569Y-123809523D02*
X139785760Y-123885713D01*
X139785760Y-123885713D02*
X139823855Y-123999999D01*
X139823855Y-123999999D02*
X139823855Y-124190475D01*
X139823855Y-123352380D02*
X139823855Y-123199999D01*
X139823855Y-123199999D02*
X139785760Y-123123809D01*
X139785760Y-123123809D02*
X139747664Y-123085713D01*
X139747664Y-123085713D02*
X139633379Y-123009523D01*
X139633379Y-123009523D02*
X139480998Y-122971428D01*
X139480998Y-122971428D02*
X139176236Y-122971428D01*
X139176236Y-122971428D02*
X139100045Y-123009523D01*
X139100045Y-123009523D02*
X139061950Y-123047618D01*
X139061950Y-123047618D02*
X139023855Y-123123809D01*
X139023855Y-123123809D02*
X139023855Y-123276190D01*
X139023855Y-123276190D02*
X139061950Y-123352380D01*
X139061950Y-123352380D02*
X139100045Y-123390475D01*
X139100045Y-123390475D02*
X139176236Y-123428571D01*
X139176236Y-123428571D02*
X139366712Y-123428571D01*
X139366712Y-123428571D02*
X139442902Y-123390475D01*
X139442902Y-123390475D02*
X139480998Y-123352380D01*
X139480998Y-123352380D02*
X139519093Y-123276190D01*
X139519093Y-123276190D02*
X139519093Y-123123809D01*
X139519093Y-123123809D02*
X139480998Y-123047618D01*
X139480998Y-123047618D02*
X139442902Y-123009523D01*
X139442902Y-123009523D02*
X139366712Y-122971428D01*
X142363855Y-100990475D02*
X141563855Y-100990475D01*
X141563855Y-100990475D02*
X141563855Y-100799999D01*
X141563855Y-100799999D02*
X141601950Y-100685713D01*
X141601950Y-100685713D02*
X141678140Y-100609523D01*
X141678140Y-100609523D02*
X141754331Y-100571428D01*
X141754331Y-100571428D02*
X141906712Y-100533332D01*
X141906712Y-100533332D02*
X142020998Y-100533332D01*
X142020998Y-100533332D02*
X142173379Y-100571428D01*
X142173379Y-100571428D02*
X142249569Y-100609523D01*
X142249569Y-100609523D02*
X142325760Y-100685713D01*
X142325760Y-100685713D02*
X142363855Y-100799999D01*
X142363855Y-100799999D02*
X142363855Y-100990475D01*
X141563855Y-100266666D02*
X141563855Y-99771428D01*
X141563855Y-99771428D02*
X141868617Y-100038094D01*
X141868617Y-100038094D02*
X141868617Y-99923809D01*
X141868617Y-99923809D02*
X141906712Y-99847618D01*
X141906712Y-99847618D02*
X141944807Y-99809523D01*
X141944807Y-99809523D02*
X142020998Y-99771428D01*
X142020998Y-99771428D02*
X142211474Y-99771428D01*
X142211474Y-99771428D02*
X142287664Y-99809523D01*
X142287664Y-99809523D02*
X142325760Y-99847618D01*
X142325760Y-99847618D02*
X142363855Y-99923809D01*
X142363855Y-99923809D02*
X142363855Y-100152380D01*
X142363855Y-100152380D02*
X142325760Y-100228571D01*
X142325760Y-100228571D02*
X142287664Y-100266666D01*
X142363855Y-124571428D02*
X141563855Y-124571428D01*
X141563855Y-124571428D02*
X141563855Y-124380952D01*
X141563855Y-124380952D02*
X141601950Y-124266666D01*
X141601950Y-124266666D02*
X141678140Y-124190476D01*
X141678140Y-124190476D02*
X141754331Y-124152381D01*
X141754331Y-124152381D02*
X141906712Y-124114285D01*
X141906712Y-124114285D02*
X142020998Y-124114285D01*
X142020998Y-124114285D02*
X142173379Y-124152381D01*
X142173379Y-124152381D02*
X142249569Y-124190476D01*
X142249569Y-124190476D02*
X142325760Y-124266666D01*
X142325760Y-124266666D02*
X142363855Y-124380952D01*
X142363855Y-124380952D02*
X142363855Y-124571428D01*
X142363855Y-123352381D02*
X142363855Y-123809524D01*
X142363855Y-123580952D02*
X141563855Y-123580952D01*
X141563855Y-123580952D02*
X141678140Y-123657143D01*
X141678140Y-123657143D02*
X141754331Y-123733333D01*
X141754331Y-123733333D02*
X141792426Y-123809524D01*
X141563855Y-122857142D02*
X141563855Y-122780952D01*
X141563855Y-122780952D02*
X141601950Y-122704761D01*
X141601950Y-122704761D02*
X141640045Y-122666666D01*
X141640045Y-122666666D02*
X141716236Y-122628571D01*
X141716236Y-122628571D02*
X141868617Y-122590476D01*
X141868617Y-122590476D02*
X142059093Y-122590476D01*
X142059093Y-122590476D02*
X142211474Y-122628571D01*
X142211474Y-122628571D02*
X142287664Y-122666666D01*
X142287664Y-122666666D02*
X142325760Y-122704761D01*
X142325760Y-122704761D02*
X142363855Y-122780952D01*
X142363855Y-122780952D02*
X142363855Y-122857142D01*
X142363855Y-122857142D02*
X142325760Y-122933333D01*
X142325760Y-122933333D02*
X142287664Y-122971428D01*
X142287664Y-122971428D02*
X142211474Y-123009523D01*
X142211474Y-123009523D02*
X142059093Y-123047619D01*
X142059093Y-123047619D02*
X141868617Y-123047619D01*
X141868617Y-123047619D02*
X141716236Y-123009523D01*
X141716236Y-123009523D02*
X141640045Y-122971428D01*
X141640045Y-122971428D02*
X141601950Y-122933333D01*
X141601950Y-122933333D02*
X141563855Y-122857142D01*
X144903855Y-100990475D02*
X144103855Y-100990475D01*
X144103855Y-100990475D02*
X144103855Y-100799999D01*
X144103855Y-100799999D02*
X144141950Y-100685713D01*
X144141950Y-100685713D02*
X144218140Y-100609523D01*
X144218140Y-100609523D02*
X144294331Y-100571428D01*
X144294331Y-100571428D02*
X144446712Y-100533332D01*
X144446712Y-100533332D02*
X144560998Y-100533332D01*
X144560998Y-100533332D02*
X144713379Y-100571428D01*
X144713379Y-100571428D02*
X144789569Y-100609523D01*
X144789569Y-100609523D02*
X144865760Y-100685713D01*
X144865760Y-100685713D02*
X144903855Y-100799999D01*
X144903855Y-100799999D02*
X144903855Y-100990475D01*
X144180045Y-100228571D02*
X144141950Y-100190475D01*
X144141950Y-100190475D02*
X144103855Y-100114285D01*
X144103855Y-100114285D02*
X144103855Y-99923809D01*
X144103855Y-99923809D02*
X144141950Y-99847618D01*
X144141950Y-99847618D02*
X144180045Y-99809523D01*
X144180045Y-99809523D02*
X144256236Y-99771428D01*
X144256236Y-99771428D02*
X144332426Y-99771428D01*
X144332426Y-99771428D02*
X144446712Y-99809523D01*
X144446712Y-99809523D02*
X144903855Y-100266666D01*
X144903855Y-100266666D02*
X144903855Y-99771428D01*
X144103855Y-124590476D02*
X144103855Y-124095238D01*
X144103855Y-124095238D02*
X144408617Y-124361904D01*
X144408617Y-124361904D02*
X144408617Y-124247619D01*
X144408617Y-124247619D02*
X144446712Y-124171428D01*
X144446712Y-124171428D02*
X144484807Y-124133333D01*
X144484807Y-124133333D02*
X144560998Y-124095238D01*
X144560998Y-124095238D02*
X144751474Y-124095238D01*
X144751474Y-124095238D02*
X144827664Y-124133333D01*
X144827664Y-124133333D02*
X144865760Y-124171428D01*
X144865760Y-124171428D02*
X144903855Y-124247619D01*
X144903855Y-124247619D02*
X144903855Y-124476190D01*
X144903855Y-124476190D02*
X144865760Y-124552381D01*
X144865760Y-124552381D02*
X144827664Y-124590476D01*
X144103855Y-123866666D02*
X144903855Y-123599999D01*
X144903855Y-123599999D02*
X144103855Y-123333333D01*
X144103855Y-123142857D02*
X144103855Y-122647619D01*
X144103855Y-122647619D02*
X144408617Y-122914285D01*
X144408617Y-122914285D02*
X144408617Y-122800000D01*
X144408617Y-122800000D02*
X144446712Y-122723809D01*
X144446712Y-122723809D02*
X144484807Y-122685714D01*
X144484807Y-122685714D02*
X144560998Y-122647619D01*
X144560998Y-122647619D02*
X144751474Y-122647619D01*
X144751474Y-122647619D02*
X144827664Y-122685714D01*
X144827664Y-122685714D02*
X144865760Y-122723809D01*
X144865760Y-122723809D02*
X144903855Y-122800000D01*
X144903855Y-122800000D02*
X144903855Y-123028571D01*
X144903855Y-123028571D02*
X144865760Y-123104762D01*
X144865760Y-123104762D02*
X144827664Y-123142857D01*
X147443855Y-100990475D02*
X146643855Y-100990475D01*
X146643855Y-100990475D02*
X146643855Y-100799999D01*
X146643855Y-100799999D02*
X146681950Y-100685713D01*
X146681950Y-100685713D02*
X146758140Y-100609523D01*
X146758140Y-100609523D02*
X146834331Y-100571428D01*
X146834331Y-100571428D02*
X146986712Y-100533332D01*
X146986712Y-100533332D02*
X147100998Y-100533332D01*
X147100998Y-100533332D02*
X147253379Y-100571428D01*
X147253379Y-100571428D02*
X147329569Y-100609523D01*
X147329569Y-100609523D02*
X147405760Y-100685713D01*
X147405760Y-100685713D02*
X147443855Y-100799999D01*
X147443855Y-100799999D02*
X147443855Y-100990475D01*
X147443855Y-99771428D02*
X147443855Y-100228571D01*
X147443855Y-99999999D02*
X146643855Y-99999999D01*
X146643855Y-99999999D02*
X146758140Y-100076190D01*
X146758140Y-100076190D02*
X146834331Y-100152380D01*
X146834331Y-100152380D02*
X146872426Y-100228571D01*
X146681950Y-124209523D02*
X146643855Y-124285713D01*
X146643855Y-124285713D02*
X146643855Y-124399999D01*
X146643855Y-124399999D02*
X146681950Y-124514285D01*
X146681950Y-124514285D02*
X146758140Y-124590475D01*
X146758140Y-124590475D02*
X146834331Y-124628570D01*
X146834331Y-124628570D02*
X146986712Y-124666666D01*
X146986712Y-124666666D02*
X147100998Y-124666666D01*
X147100998Y-124666666D02*
X147253379Y-124628570D01*
X147253379Y-124628570D02*
X147329569Y-124590475D01*
X147329569Y-124590475D02*
X147405760Y-124514285D01*
X147405760Y-124514285D02*
X147443855Y-124399999D01*
X147443855Y-124399999D02*
X147443855Y-124323808D01*
X147443855Y-124323808D02*
X147405760Y-124209523D01*
X147405760Y-124209523D02*
X147367664Y-124171427D01*
X147367664Y-124171427D02*
X147100998Y-124171427D01*
X147100998Y-124171427D02*
X147100998Y-124323808D01*
X147443855Y-123828570D02*
X146643855Y-123828570D01*
X146643855Y-123828570D02*
X147443855Y-123371427D01*
X147443855Y-123371427D02*
X146643855Y-123371427D01*
X147443855Y-122990475D02*
X146643855Y-122990475D01*
X146643855Y-122990475D02*
X146643855Y-122799999D01*
X146643855Y-122799999D02*
X146681950Y-122685713D01*
X146681950Y-122685713D02*
X146758140Y-122609523D01*
X146758140Y-122609523D02*
X146834331Y-122571428D01*
X146834331Y-122571428D02*
X146986712Y-122533332D01*
X146986712Y-122533332D02*
X147100998Y-122533332D01*
X147100998Y-122533332D02*
X147253379Y-122571428D01*
X147253379Y-122571428D02*
X147329569Y-122609523D01*
X147329569Y-122609523D02*
X147405760Y-122685713D01*
X147405760Y-122685713D02*
X147443855Y-122799999D01*
X147443855Y-122799999D02*
X147443855Y-122990475D01*
X149983855Y-100990475D02*
X149183855Y-100990475D01*
X149183855Y-100990475D02*
X149183855Y-100799999D01*
X149183855Y-100799999D02*
X149221950Y-100685713D01*
X149221950Y-100685713D02*
X149298140Y-100609523D01*
X149298140Y-100609523D02*
X149374331Y-100571428D01*
X149374331Y-100571428D02*
X149526712Y-100533332D01*
X149526712Y-100533332D02*
X149640998Y-100533332D01*
X149640998Y-100533332D02*
X149793379Y-100571428D01*
X149793379Y-100571428D02*
X149869569Y-100609523D01*
X149869569Y-100609523D02*
X149945760Y-100685713D01*
X149945760Y-100685713D02*
X149983855Y-100799999D01*
X149983855Y-100799999D02*
X149983855Y-100990475D01*
X149183855Y-100038094D02*
X149183855Y-99961904D01*
X149183855Y-99961904D02*
X149221950Y-99885713D01*
X149221950Y-99885713D02*
X149260045Y-99847618D01*
X149260045Y-99847618D02*
X149336236Y-99809523D01*
X149336236Y-99809523D02*
X149488617Y-99771428D01*
X149488617Y-99771428D02*
X149679093Y-99771428D01*
X149679093Y-99771428D02*
X149831474Y-99809523D01*
X149831474Y-99809523D02*
X149907664Y-99847618D01*
X149907664Y-99847618D02*
X149945760Y-99885713D01*
X149945760Y-99885713D02*
X149983855Y-99961904D01*
X149983855Y-99961904D02*
X149983855Y-100038094D01*
X149983855Y-100038094D02*
X149945760Y-100114285D01*
X149945760Y-100114285D02*
X149907664Y-100152380D01*
X149907664Y-100152380D02*
X149831474Y-100190475D01*
X149831474Y-100190475D02*
X149679093Y-100228571D01*
X149679093Y-100228571D02*
X149488617Y-100228571D01*
X149488617Y-100228571D02*
X149336236Y-100190475D01*
X149336236Y-100190475D02*
X149260045Y-100152380D01*
X149260045Y-100152380D02*
X149221950Y-100114285D01*
X149221950Y-100114285D02*
X149183855Y-100038094D01*
X149183855Y-123752380D02*
X149183855Y-124133332D01*
X149183855Y-124133332D02*
X149564807Y-124171428D01*
X149564807Y-124171428D02*
X149526712Y-124133332D01*
X149526712Y-124133332D02*
X149488617Y-124057142D01*
X149488617Y-124057142D02*
X149488617Y-123866666D01*
X149488617Y-123866666D02*
X149526712Y-123790475D01*
X149526712Y-123790475D02*
X149564807Y-123752380D01*
X149564807Y-123752380D02*
X149640998Y-123714285D01*
X149640998Y-123714285D02*
X149831474Y-123714285D01*
X149831474Y-123714285D02*
X149907664Y-123752380D01*
X149907664Y-123752380D02*
X149945760Y-123790475D01*
X149945760Y-123790475D02*
X149983855Y-123866666D01*
X149983855Y-123866666D02*
X149983855Y-124057142D01*
X149983855Y-124057142D02*
X149945760Y-124133332D01*
X149945760Y-124133332D02*
X149907664Y-124171428D01*
X149183855Y-123485713D02*
X149983855Y-123219046D01*
X149983855Y-123219046D02*
X149183855Y-122952380D01*
X153163855Y-113904761D02*
X153811474Y-113904761D01*
X153811474Y-113904761D02*
X153887664Y-113866666D01*
X153887664Y-113866666D02*
X153925760Y-113828571D01*
X153925760Y-113828571D02*
X153963855Y-113752380D01*
X153963855Y-113752380D02*
X153963855Y-113599999D01*
X153963855Y-113599999D02*
X153925760Y-113523809D01*
X153925760Y-113523809D02*
X153887664Y-113485714D01*
X153887664Y-113485714D02*
X153811474Y-113447618D01*
X153811474Y-113447618D02*
X153163855Y-113447618D01*
X153925760Y-113104762D02*
X153963855Y-112990476D01*
X153963855Y-112990476D02*
X153963855Y-112800000D01*
X153963855Y-112800000D02*
X153925760Y-112723809D01*
X153925760Y-112723809D02*
X153887664Y-112685714D01*
X153887664Y-112685714D02*
X153811474Y-112647619D01*
X153811474Y-112647619D02*
X153735283Y-112647619D01*
X153735283Y-112647619D02*
X153659093Y-112685714D01*
X153659093Y-112685714D02*
X153620998Y-112723809D01*
X153620998Y-112723809D02*
X153582902Y-112800000D01*
X153582902Y-112800000D02*
X153544807Y-112952381D01*
X153544807Y-112952381D02*
X153506712Y-113028571D01*
X153506712Y-113028571D02*
X153468617Y-113066666D01*
X153468617Y-113066666D02*
X153392426Y-113104762D01*
X153392426Y-113104762D02*
X153316236Y-113104762D01*
X153316236Y-113104762D02*
X153240045Y-113066666D01*
X153240045Y-113066666D02*
X153201950Y-113028571D01*
X153201950Y-113028571D02*
X153163855Y-112952381D01*
X153163855Y-112952381D02*
X153163855Y-112761904D01*
X153163855Y-112761904D02*
X153201950Y-112647619D01*
X153544807Y-112038095D02*
X153582902Y-111923809D01*
X153582902Y-111923809D02*
X153620998Y-111885714D01*
X153620998Y-111885714D02*
X153697188Y-111847618D01*
X153697188Y-111847618D02*
X153811474Y-111847618D01*
X153811474Y-111847618D02*
X153887664Y-111885714D01*
X153887664Y-111885714D02*
X153925760Y-111923809D01*
X153925760Y-111923809D02*
X153963855Y-111999999D01*
X153963855Y-111999999D02*
X153963855Y-112304761D01*
X153963855Y-112304761D02*
X153163855Y-112304761D01*
X153163855Y-112304761D02*
X153163855Y-112038095D01*
X153163855Y-112038095D02*
X153201950Y-111961904D01*
X153201950Y-111961904D02*
X153240045Y-111923809D01*
X153240045Y-111923809D02*
X153316236Y-111885714D01*
X153316236Y-111885714D02*
X153392426Y-111885714D01*
X153392426Y-111885714D02*
X153468617Y-111923809D01*
X153468617Y-111923809D02*
X153506712Y-111961904D01*
X153506712Y-111961904D02*
X153544807Y-112038095D01*
X153544807Y-112038095D02*
X153544807Y-112304761D01*
X153659093Y-111504761D02*
X153659093Y-110895238D01*
X153887664Y-110057142D02*
X153925760Y-110095238D01*
X153925760Y-110095238D02*
X153963855Y-110209523D01*
X153963855Y-110209523D02*
X153963855Y-110285714D01*
X153963855Y-110285714D02*
X153925760Y-110400000D01*
X153925760Y-110400000D02*
X153849569Y-110476190D01*
X153849569Y-110476190D02*
X153773379Y-110514285D01*
X153773379Y-110514285D02*
X153620998Y-110552381D01*
X153620998Y-110552381D02*
X153506712Y-110552381D01*
X153506712Y-110552381D02*
X153354331Y-110514285D01*
X153354331Y-110514285D02*
X153278140Y-110476190D01*
X153278140Y-110476190D02*
X153201950Y-110400000D01*
X153201950Y-110400000D02*
X153163855Y-110285714D01*
X153163855Y-110285714D02*
X153163855Y-110209523D01*
X153163855Y-110209523D02*
X153201950Y-110095238D01*
X153201950Y-110095238D02*
X153240045Y-110057142D01*
X122866667Y-103163855D02*
X122600000Y-102782902D01*
X122409524Y-103163855D02*
X122409524Y-102363855D01*
X122409524Y-102363855D02*
X122714286Y-102363855D01*
X122714286Y-102363855D02*
X122790476Y-102401950D01*
X122790476Y-102401950D02*
X122828571Y-102440045D01*
X122828571Y-102440045D02*
X122866667Y-102516236D01*
X122866667Y-102516236D02*
X122866667Y-102630521D01*
X122866667Y-102630521D02*
X122828571Y-102706712D01*
X122828571Y-102706712D02*
X122790476Y-102744807D01*
X122790476Y-102744807D02*
X122714286Y-102782902D01*
X122714286Y-102782902D02*
X122409524Y-102782902D01*
X123171428Y-102440045D02*
X123209524Y-102401950D01*
X123209524Y-102401950D02*
X123285714Y-102363855D01*
X123285714Y-102363855D02*
X123476190Y-102363855D01*
X123476190Y-102363855D02*
X123552381Y-102401950D01*
X123552381Y-102401950D02*
X123590476Y-102440045D01*
X123590476Y-102440045D02*
X123628571Y-102516236D01*
X123628571Y-102516236D02*
X123628571Y-102592426D01*
X123628571Y-102592426D02*
X123590476Y-102706712D01*
X123590476Y-102706712D02*
X123133333Y-103163855D01*
X123133333Y-103163855D02*
X123628571Y-103163855D01*
X120563855Y-108209523D02*
X121211474Y-108209523D01*
X121211474Y-108209523D02*
X121287664Y-108171428D01*
X121287664Y-108171428D02*
X121325760Y-108133333D01*
X121325760Y-108133333D02*
X121363855Y-108057142D01*
X121363855Y-108057142D02*
X121363855Y-107904761D01*
X121363855Y-107904761D02*
X121325760Y-107828571D01*
X121325760Y-107828571D02*
X121287664Y-107790476D01*
X121287664Y-107790476D02*
X121211474Y-107752380D01*
X121211474Y-107752380D02*
X120563855Y-107752380D01*
X120640045Y-107409524D02*
X120601950Y-107371428D01*
X120601950Y-107371428D02*
X120563855Y-107295238D01*
X120563855Y-107295238D02*
X120563855Y-107104762D01*
X120563855Y-107104762D02*
X120601950Y-107028571D01*
X120601950Y-107028571D02*
X120640045Y-106990476D01*
X120640045Y-106990476D02*
X120716236Y-106952381D01*
X120716236Y-106952381D02*
X120792426Y-106952381D01*
X120792426Y-106952381D02*
X120906712Y-106990476D01*
X120906712Y-106990476D02*
X121363855Y-107447619D01*
X121363855Y-107447619D02*
X121363855Y-106952381D01*
X143490475Y-125725760D02*
X143604761Y-125763855D01*
X143604761Y-125763855D02*
X143795237Y-125763855D01*
X143795237Y-125763855D02*
X143871428Y-125725760D01*
X143871428Y-125725760D02*
X143909523Y-125687664D01*
X143909523Y-125687664D02*
X143947618Y-125611474D01*
X143947618Y-125611474D02*
X143947618Y-125535283D01*
X143947618Y-125535283D02*
X143909523Y-125459093D01*
X143909523Y-125459093D02*
X143871428Y-125420998D01*
X143871428Y-125420998D02*
X143795237Y-125382902D01*
X143795237Y-125382902D02*
X143642856Y-125344807D01*
X143642856Y-125344807D02*
X143566666Y-125306712D01*
X143566666Y-125306712D02*
X143528571Y-125268617D01*
X143528571Y-125268617D02*
X143490475Y-125192426D01*
X143490475Y-125192426D02*
X143490475Y-125116236D01*
X143490475Y-125116236D02*
X143528571Y-125040045D01*
X143528571Y-125040045D02*
X143566666Y-125001950D01*
X143566666Y-125001950D02*
X143642856Y-124963855D01*
X143642856Y-124963855D02*
X143833333Y-124963855D01*
X143833333Y-124963855D02*
X143947618Y-125001950D01*
X144557142Y-125344807D02*
X144671428Y-125382902D01*
X144671428Y-125382902D02*
X144709523Y-125420998D01*
X144709523Y-125420998D02*
X144747619Y-125497188D01*
X144747619Y-125497188D02*
X144747619Y-125611474D01*
X144747619Y-125611474D02*
X144709523Y-125687664D01*
X144709523Y-125687664D02*
X144671428Y-125725760D01*
X144671428Y-125725760D02*
X144595238Y-125763855D01*
X144595238Y-125763855D02*
X144290476Y-125763855D01*
X144290476Y-125763855D02*
X144290476Y-124963855D01*
X144290476Y-124963855D02*
X144557142Y-124963855D01*
X144557142Y-124963855D02*
X144633333Y-125001950D01*
X144633333Y-125001950D02*
X144671428Y-125040045D01*
X144671428Y-125040045D02*
X144709523Y-125116236D01*
X144709523Y-125116236D02*
X144709523Y-125192426D01*
X144709523Y-125192426D02*
X144671428Y-125268617D01*
X144671428Y-125268617D02*
X144633333Y-125306712D01*
X144633333Y-125306712D02*
X144557142Y-125344807D01*
X144557142Y-125344807D02*
X144290476Y-125344807D01*
X145509523Y-125763855D02*
X145052380Y-125763855D01*
X145280952Y-125763855D02*
X145280952Y-124963855D01*
X145280952Y-124963855D02*
X145204761Y-125078140D01*
X145204761Y-125078140D02*
X145128571Y-125154331D01*
X145128571Y-125154331D02*
X145052380Y-125192426D01*
X117866667Y-119163855D02*
X117600000Y-118782902D01*
X117409524Y-119163855D02*
X117409524Y-118363855D01*
X117409524Y-118363855D02*
X117714286Y-118363855D01*
X117714286Y-118363855D02*
X117790476Y-118401950D01*
X117790476Y-118401950D02*
X117828571Y-118440045D01*
X117828571Y-118440045D02*
X117866667Y-118516236D01*
X117866667Y-118516236D02*
X117866667Y-118630521D01*
X117866667Y-118630521D02*
X117828571Y-118706712D01*
X117828571Y-118706712D02*
X117790476Y-118744807D01*
X117790476Y-118744807D02*
X117714286Y-118782902D01*
X117714286Y-118782902D02*
X117409524Y-118782902D01*
X118552381Y-118630521D02*
X118552381Y-119163855D01*
X118361905Y-118325760D02*
X118171428Y-118897188D01*
X118171428Y-118897188D02*
X118666667Y-118897188D01*
X105733333Y-93363855D02*
X105733333Y-93935283D01*
X105733333Y-93935283D02*
X105695238Y-94049569D01*
X105695238Y-94049569D02*
X105619047Y-94125760D01*
X105619047Y-94125760D02*
X105504762Y-94163855D01*
X105504762Y-94163855D02*
X105428571Y-94163855D01*
X106076190Y-93440045D02*
X106114286Y-93401950D01*
X106114286Y-93401950D02*
X106190476Y-93363855D01*
X106190476Y-93363855D02*
X106380952Y-93363855D01*
X106380952Y-93363855D02*
X106457143Y-93401950D01*
X106457143Y-93401950D02*
X106495238Y-93440045D01*
X106495238Y-93440045D02*
X106533333Y-93516236D01*
X106533333Y-93516236D02*
X106533333Y-93592426D01*
X106533333Y-93592426D02*
X106495238Y-93706712D01*
X106495238Y-93706712D02*
X106038095Y-94163855D01*
X106038095Y-94163855D02*
X106533333Y-94163855D01*
X105733333Y-84363855D02*
X105733333Y-84935283D01*
X105733333Y-84935283D02*
X105695238Y-85049569D01*
X105695238Y-85049569D02*
X105619047Y-85125760D01*
X105619047Y-85125760D02*
X105504762Y-85163855D01*
X105504762Y-85163855D02*
X105428571Y-85163855D01*
X106533333Y-85163855D02*
X106076190Y-85163855D01*
X106304762Y-85163855D02*
X106304762Y-84363855D01*
X106304762Y-84363855D02*
X106228571Y-84478140D01*
X106228571Y-84478140D02*
X106152381Y-84554331D01*
X106152381Y-84554331D02*
X106076190Y-84592426D01*
X121409524Y-85163855D02*
X121409524Y-84363855D01*
X121409524Y-84363855D02*
X121600000Y-84363855D01*
X121600000Y-84363855D02*
X121714286Y-84401950D01*
X121714286Y-84401950D02*
X121790476Y-84478140D01*
X121790476Y-84478140D02*
X121828571Y-84554331D01*
X121828571Y-84554331D02*
X121866667Y-84706712D01*
X121866667Y-84706712D02*
X121866667Y-84820998D01*
X121866667Y-84820998D02*
X121828571Y-84973379D01*
X121828571Y-84973379D02*
X121790476Y-85049569D01*
X121790476Y-85049569D02*
X121714286Y-85125760D01*
X121714286Y-85125760D02*
X121600000Y-85163855D01*
X121600000Y-85163855D02*
X121409524Y-85163855D01*
X122628571Y-85163855D02*
X122171428Y-85163855D01*
X122400000Y-85163855D02*
X122400000Y-84363855D01*
X122400000Y-84363855D02*
X122323809Y-84478140D01*
X122323809Y-84478140D02*
X122247619Y-84554331D01*
X122247619Y-84554331D02*
X122171428Y-84592426D01*
X137366667Y-126087664D02*
X137328571Y-126125760D01*
X137328571Y-126125760D02*
X137214286Y-126163855D01*
X137214286Y-126163855D02*
X137138095Y-126163855D01*
X137138095Y-126163855D02*
X137023809Y-126125760D01*
X137023809Y-126125760D02*
X136947619Y-126049569D01*
X136947619Y-126049569D02*
X136909524Y-125973379D01*
X136909524Y-125973379D02*
X136871428Y-125820998D01*
X136871428Y-125820998D02*
X136871428Y-125706712D01*
X136871428Y-125706712D02*
X136909524Y-125554331D01*
X136909524Y-125554331D02*
X136947619Y-125478140D01*
X136947619Y-125478140D02*
X137023809Y-125401950D01*
X137023809Y-125401950D02*
X137138095Y-125363855D01*
X137138095Y-125363855D02*
X137214286Y-125363855D01*
X137214286Y-125363855D02*
X137328571Y-125401950D01*
X137328571Y-125401950D02*
X137366667Y-125440045D01*
X137633333Y-125363855D02*
X138128571Y-125363855D01*
X138128571Y-125363855D02*
X137861905Y-125668617D01*
X137861905Y-125668617D02*
X137976190Y-125668617D01*
X137976190Y-125668617D02*
X138052381Y-125706712D01*
X138052381Y-125706712D02*
X138090476Y-125744807D01*
X138090476Y-125744807D02*
X138128571Y-125820998D01*
X138128571Y-125820998D02*
X138128571Y-126011474D01*
X138128571Y-126011474D02*
X138090476Y-126087664D01*
X138090476Y-126087664D02*
X138052381Y-126125760D01*
X138052381Y-126125760D02*
X137976190Y-126163855D01*
X137976190Y-126163855D02*
X137747619Y-126163855D01*
X137747619Y-126163855D02*
X137671428Y-126125760D01*
X137671428Y-126125760D02*
X137633333Y-126087664D01*
X114733333Y-84744807D02*
X114466667Y-84744807D01*
X114466667Y-85163855D02*
X114466667Y-84363855D01*
X114466667Y-84363855D02*
X114847619Y-84363855D01*
X115571428Y-85163855D02*
X115114285Y-85163855D01*
X115342857Y-85163855D02*
X115342857Y-84363855D01*
X115342857Y-84363855D02*
X115266666Y-84478140D01*
X115266666Y-84478140D02*
X115190476Y-84554331D01*
X115190476Y-84554331D02*
X115114285Y-84592426D01*
%TO.C,Q1*%
X117240000Y-114440000D02*
X118760000Y-114440000D01*
X117240000Y-114490000D02*
X117240000Y-114440000D01*
X117240000Y-116390000D02*
X117240000Y-115610000D01*
X117240000Y-117560000D02*
X117240000Y-117510000D01*
X118760000Y-114440000D02*
X118760000Y-115440000D01*
X118760000Y-116560000D02*
X118760000Y-117560000D01*
X118760000Y-117560000D02*
X117240000Y-117560000D01*
X116700000Y-115620000D02*
X116940000Y-115950000D01*
X116460000Y-115950000D01*
X116700000Y-115620000D01*
G36*
X116940000Y-115950000D02*
G01*
X116460000Y-115950000D01*
X116700000Y-115620000D01*
X116940000Y-115950000D01*
G37*
%TO.C,C4*%
X128738748Y-86265000D02*
X129261252Y-86265000D01*
X128738748Y-87735000D02*
X129261252Y-87735000D01*
%TO.C,R6*%
X126227064Y-115265000D02*
X125772936Y-115265000D01*
X126227064Y-116735000D02*
X125772936Y-116735000D01*
%TO.C,C1*%
X126261252Y-110265000D02*
X125738748Y-110265000D01*
X126261252Y-111735000D02*
X125738748Y-111735000D01*
%TO.C,R1*%
X117772936Y-104265000D02*
X118227064Y-104265000D01*
X117772936Y-105735000D02*
X118227064Y-105735000D01*
%TO.C,D2*%
X118340000Y-90850000D02*
X118340000Y-95150000D01*
X118340000Y-90850000D02*
X124150000Y-90850000D01*
X118340000Y-95150000D02*
X124150000Y-95150000D01*
%TO.C,J4*%
X104200000Y-119600000D02*
X107800000Y-119600000D01*
%TO.C,R3*%
X111272936Y-115265000D02*
X111727064Y-115265000D01*
X111272936Y-116735000D02*
X111727064Y-116735000D01*
%TO.C,U3*%
X133000000Y-83000000D02*
X151000000Y-83000000D01*
X133000000Y-95000000D02*
X151000000Y-95000000D01*
X140100000Y-89000000D02*
X143600000Y-89000000D01*
X143600000Y-89000000D02*
X142900000Y-88400000D01*
X143600000Y-89000000D02*
X142900000Y-89600000D01*
%TO.C,C2*%
X129788748Y-127090000D02*
X131211252Y-127090000D01*
X129788748Y-128910000D02*
X131211252Y-128910000D01*
%TO.C,R5*%
X126227064Y-119265000D02*
X125772936Y-119265000D01*
X126227064Y-120735000D02*
X125772936Y-120735000D01*
%TO.C,J3*%
X104200000Y-107600000D02*
X107800000Y-107600000D01*
%TO.C,U1*%
X152500000Y-103100000D02*
X152500000Y-120900000D01*
%TO.C,R2*%
X122772936Y-104265000D02*
X123227064Y-104265000D01*
X122772936Y-105735000D02*
X123227064Y-105735000D01*
%TO.C,U2*%
X119390000Y-109390000D02*
X119565000Y-109390000D01*
X119390000Y-112610000D02*
X119390000Y-109390000D01*
X119565000Y-112610000D02*
X119390000Y-112610000D01*
X122435000Y-109390000D02*
X122610000Y-109390000D01*
X122610000Y-109390000D02*
X122610000Y-112610000D01*
X122610000Y-112610000D02*
X122435000Y-112610000D01*
X119560000Y-113160000D02*
X119230000Y-113400000D01*
X119230000Y-112920000D01*
X119560000Y-113160000D01*
G36*
X119560000Y-113160000D02*
G01*
X119230000Y-113400000D01*
X119230000Y-112920000D01*
X119560000Y-113160000D01*
G37*
%TO.C,R4*%
X117772936Y-120265000D02*
X118227064Y-120265000D01*
X117772936Y-121735000D02*
X118227064Y-121735000D01*
%TO.C,J2*%
X104200000Y-93600000D02*
X107800000Y-93600000D01*
%TO.C,J1*%
X104200000Y-84600000D02*
X107800000Y-84600000D01*
%TO.C,D1*%
X125510000Y-85350000D02*
X120000000Y-85350000D01*
X125510000Y-88650000D02*
X120000000Y-88650000D01*
X125510000Y-88650000D02*
X125510000Y-85350000D01*
%TO.C,C3*%
X136788748Y-127090000D02*
X138211252Y-127090000D01*
X136788748Y-128910000D02*
X138211252Y-128910000D01*
%TO.C,F1*%
X114272936Y-86090000D02*
X115727064Y-86090000D01*
X114272936Y-87910000D02*
X115727064Y-87910000D01*
%TD*%
%LPC*%
D12*
%TO.C,Q1*%
X117062500Y-115050000D03*
X117062500Y-116950000D03*
X118937500Y-116000000D03*
%TD*%
D13*
%TO.C,C4*%
X128050000Y-87000000D03*
X129950000Y-87000000D03*
%TD*%
D14*
%TO.C,R6*%
X126912500Y-116000000D03*
X125087500Y-116000000D03*
%TD*%
D15*
%TO.C,C1*%
X126950000Y-111000000D03*
X125050000Y-111000000D03*
%TD*%
D16*
%TO.C,R1*%
X117087500Y-105000000D03*
X118912500Y-105000000D03*
%TD*%
D17*
%TO.C,D2*%
X119850000Y-93000000D03*
X124150000Y-93000000D03*
%TD*%
D18*
%TO.C,J4*%
X106000000Y-125600000D03*
D19*
X106000000Y-122000000D03*
%TD*%
D16*
%TO.C,R3*%
X110587500Y-116000000D03*
X112412500Y-116000000D03*
%TD*%
D20*
%TO.C,U3*%
X133875000Y-93250000D03*
X133875000Y-84750000D03*
X150125000Y-93250000D03*
X150125000Y-84750000D03*
%TD*%
D21*
%TO.C,C2*%
X129025000Y-128000000D03*
X131975000Y-128000000D03*
%TD*%
D14*
%TO.C,R5*%
X126912500Y-120000000D03*
X125087500Y-120000000D03*
%TD*%
D18*
%TO.C,J3*%
X106000000Y-113600000D03*
D19*
X106000000Y-110000000D03*
%TD*%
D22*
%TO.C,U1*%
X149620000Y-103500000D03*
X147080000Y-103500000D03*
X144540000Y-103500000D03*
X142000000Y-103500000D03*
X139460000Y-103500000D03*
X136920000Y-103500000D03*
X134380000Y-103500000D03*
X134380000Y-120500000D03*
X136920000Y-120500000D03*
X139460000Y-120500000D03*
X142000000Y-120500000D03*
X144540000Y-120500000D03*
X147080000Y-120500000D03*
X149620000Y-120500000D03*
%TD*%
D16*
%TO.C,R2*%
X122087500Y-105000000D03*
X123912500Y-105000000D03*
%TD*%
D23*
%TO.C,U2*%
X120000000Y-113100000D03*
X120500000Y-113100000D03*
X121000000Y-113100000D03*
X121500000Y-113100000D03*
X122000000Y-113100000D03*
X122000000Y-108900000D03*
X121500000Y-108900000D03*
X121000000Y-108900000D03*
X120500000Y-108900000D03*
X120000000Y-108900000D03*
%TD*%
D24*
%TO.C,SB1*%
X143850000Y-128000000D03*
X145150000Y-128000000D03*
%TD*%
D16*
%TO.C,R4*%
X117087500Y-121000000D03*
X118912500Y-121000000D03*
%TD*%
D18*
%TO.C,J2*%
X106000000Y-99600000D03*
D19*
X106000000Y-96000000D03*
%TD*%
D18*
%TO.C,J1*%
X106000000Y-90600000D03*
D19*
X106000000Y-87000000D03*
%TD*%
D25*
%TO.C,D1*%
X124000000Y-87000000D03*
X120000000Y-87000000D03*
%TD*%
D21*
%TO.C,C3*%
X136025000Y-128000000D03*
X138975000Y-128000000D03*
%TD*%
D26*
%TO.C,F1*%
X113537500Y-87000000D03*
X116462500Y-87000000D03*
%TD*%
%LPD*%
M02*
