M48
; DRILL file KiCad 10.0.6 date 2026-09-08T17:18:01
; FORMAT={-:-/ absolute / metric / decimal}
; #@! TF.CreationDate,2026-09-08T17:18:01+02:00
; #@! TF.GenerationSoftware,Kicad,Pcbnew,10.0.6
; #@! TF.FileFunction,Plated,1,4,PTH
FMAT,2
METRIC
; #@! TA.AperFunction,Plated,PTH,ViaDrill
T1C0.350
%
G90
G05
T1
X108.0Y-109.4
X108.0Y-124.5
X109.0Y-96.0
X117.062Y-118.6
X117.088Y-102.5
X118.6Y-106.6
X118.912Y-123.2
X120.0Y-114.9
X120.6Y-124.5
X121.5Y-110.6
X121.5Y-122.0
X122.0Y-107.2
X124.5Y-118.0
X125.05Y-113.0
X126.4Y-93.0
X127.5Y-128.0
X131.3Y-84.75
X131.6Y-87.0
X133.0Y-128.0
X134.5Y-128.0
X136.92Y-100.0
X139.46Y-99.0
X140.5Y-128.0
X142.2Y-128.0
X147.08Y-124.0
X153.5Y-84.75
X153.5Y-93.25
M30
